<?xml version="1.0" standalone="no"?>
<!DOCTYPE svg PUBLIC "-//W3C//DTD SVG 20010904//EN" "http://www.w3.org/TR/2001/REC-SVG-20010904/DTD/svg10.dtd">
<!-- Created using Krita: https://krita.org -->
<svg xmlns="http://www.w3.org/2000/svg" 
    xmlns:xlink="http://www.w3.org/1999/xlink"
    xmlns:krita="http://krita.org/namespaces/svg/krita"
    xmlns:sodipodi="http://sodipodi.sourceforge.net/DTD/sodipodi-0.dtd"
    width="491.52pt"
    height="491.52pt"
    viewBox="0 0 491.52 491.52">
<defs/>
<path id="shape0" transform="matrix(4 0 0 4 35.52 41.3437820952379)" fill="#ffffff" fill-rule="evenodd" d="M30.96 0.721329C27.7673 -0.301715 24.4983 -0.505286 21.36 1.92133C17.8162 6.55454 15.5294 11.8097 13.68 17.2813C13.1839 22.2192 13.3234 27.3143 14.4 32.6413C15.7895 38.6466 19.2689 43.1357 22.56 47.7613C25.275 49.8466 28.17 51.4897 31.2 52.8013C31.4204 55.432 31.2687 57.777 30.96 60.0013C29.8355 59.518 28.6837 58.4767 27.36 58.4241C24.9775 60.2301 23.0162 63.0348 21.12 65.2813C16.7334 64.9326 12.2606 64.9057 7.68 65.2813C7.57533 69.1632 7.62637 72.9263 8.16 76.3213C5.36026 78.5504 2.07429 80.8365 0 83.3241C8.61032 90.6674 18.9869 95.4712 27.72 102.404C32.6545 105.051 39.6348 104.268 42 100.484C47.7964 99.8885 51.8028 100.133 57.84 101.264C60.5935 106.455 71.4798 108.369 76.8 105.601C83.0344 102.644 99.3586 85.3191 100.56 79.4841C98.5403 77.5549 95.1015 74.7399 92.4 73.9213C93.3529 70.7278 94.0387 67.4351 94.56 64.0813C93.5956 52.2542 88.3889 44.4399 82.32 37.4413C82.2379 31.5686 83.8142 19.8828 83.46 17.8813C81.9594 9.40304 75.8118 4.43585 72.72 2.64133C69.1195 0.551572 57.6516 -0.0851994 50.88 2.64133C44.6163 5.37976 39.0787 10.4506 37.68 14.8813C37.1367 17.2454 37.0916 20.4224 37.44 24.2413C34.9877 16.695 32.556 9.12802 30.96 0.721329Z" sodipodi:nodetypes="ccccccccccccccccccccsscccc"/><path id="shape1" transform="matrix(4 0 0 4 162.24 6.72)" fill="#ffffff" fill-rule="evenodd" d="M0 5.76L12.48 15.12L6 0Z" sodipodi:nodetypes="cccc"/><path id="shape2" transform="matrix(4 0 0 4 214.08 23.04)" fill="#ffffff" fill-rule="evenodd" d="M2.16 7.44L3.6 7.2L2.4 0L0 1.44Z" sodipodi:nodetypes="ccccc"/><path id="shape3" transform="matrix(4 0 0 4 171.84 62.4)" fill="#ffffff" fill-rule="evenodd" d="M0.72 0L6.96 2.64L6.24 4.08L0 2.88Z" sodipodi:nodetypes="ccccc"/><path id="shape4" transform="matrix(4 0 0 4 363.84 48)" fill="#ffffff" fill-rule="evenodd" d="M0 11.04L9.12 0L11.04 5.52Z" sodipodi:nodetypes="cccc"/><path id="shape5" transform="matrix(4 0 0 4 372.48 108.48)" fill="#ffffff" fill-rule="evenodd" d="M0 1.2L9.36 0L9.84 5.28Z" sodipodi:nodetypes="cccc"/><path id="shape6" transform="matrix(4 0 0 4 375.36 138.24)" fill="#ffffff" fill-rule="evenodd" d="M0.48 0L4.32 2.64L3.12 4.32L0 0.96Z" sodipodi:nodetypes="ccccc"/><path id="shape7" transform="translate(108.415233211515, 56.8567375221239)" fill="#000000" fill-rule="evenodd" d="M235.985 139.703C236.04 106.07 242.227 86.2231 241.265 64.8233C239.459 24.6578 200.93 1.50562 175.505 0.743262C141.12 -0.287742 97.2114 24.4498 91.9848 57.8633C90.555 67.0035 92.0827 110.785 96.0648 132.983C56.1031 97.1462 46.7931 52.3962 37.5048 8.18326C33.0831 -12.8642 12.5006 9.18958 3.90477 45.8633C-7.10325 92.8284 5.9994 147 32.7048 166.343C44.5364 174.913 57.7944 178.174 70.6248 186.263C74.29 198.21 71.8958 216.532 66.5448 231.623C35.8437 281.93 54.0821 326.782 63.4248 372.743C109.654 365.949 163.379 363.544 192.785 380.903C255.426 343.335 289.198 232.721 235.985 139.703Z" sodipodi:nodetypes="cssscsssccccc"/><path id="shape8" transform="translate(165.812526772349, 192)" fill="#ffffff" fill-rule="evenodd" d="M52.5875 0C49.4155 6.7845 45.7955 17.0607 44.1875 24.24C26.5039 42.2682 24.4915 60.9161 21.8675 83.04C-7.56172 135.91 0.228741 160.933 3.14747 189.6C32.8976 222.046 88.9847 227.606 131.067 202.32C162.182 164.44 176.393 122.848 169.227 76.56C161.395 50.0128 154.228 22.9801 140.187 0.96Z" sodipodi:nodetypes="cccccccc"/><path id="shape9" transform="translate(189.36, 212.4)" fill="#1f120d" fill-rule="evenodd" d="M0 42.96C5.40324 23.3963 13.5085 11.0951 25.92 0C16.5712 4.2537 7.98242 12.0395 1.44 21.36Z" sodipodi:nodetypes="cccc"/><path id="shape10" transform="translate(172.32, 267.6)" fill="#1f120d" fill-rule="evenodd" d="M0 39.6C6.49649 24.4225 13.8407 11.1513 25.44 0C19.1204 2.63089 13.8949 6.86358 9.36 12C3.40698 20.5595 1.18119 29.9616 0 39.6Z" sodipodi:nodetypes="cccc"/><path id="shape11" transform="translate(208.32, 251.463638449414)" fill="#1f120d" fill-rule="evenodd" d="M0 11.3364C31.6685 3.28801 56.0425 5.5265 92.4 12.7764C75.0508 6.82496 63.7843 1.01008 43.44 0.0563616C28.7762 -0.631061 11.9015 5.07662 0 11.3364Z" sodipodi:nodetypes="ccsc"/><path id="shape12" transform="translate(277.955528368216, 309.068077105322)" fill="#000000" fill-rule="evenodd" d="M18.9245 1.25192C21.2452 0.572108 49.4643 23.7426 52.5245 23.8119C55.3878 23.8768 96.4895 -1.2914 99.0845 0.0519229C101.883 1.50074 101.295 45.6604 102.684 46.8519C103.916 47.9082 137.077 51.9646 138.684 54.0519C145.042 62.3087 68.0555 140.676 56.6045 142.132C25.4606 146.09 3.40978 129.872 0.684472 116.692C-3.99137 94.0785 16.7421 1.89118 18.9245 1.25192Z" sodipodi:nodetypes="csssssss"/><path id="shape13" transform="translate(63.359122066507, 297.598499095054)" fill="#000000" fill-rule="evenodd" d="M86.8809 0.0015009C92.6107 0.526563 137.766 92.3672 134.161 119.522C132.187 134.391 102.962 145.578 89.2809 140.642C85.1918 139.166 -0.315893 77.0112 0.000877933 74.6415C0.297813 72.4202 22.9433 60.3934 24.2409 58.5615C25.4502 56.8542 18.6109 22.9997 20.4009 21.3615C21.8722 20.0149 63.3871 27.7346 65.0409 27.1215C66.6746 26.5158 84.3489 -0.230526 86.8809 0.0015009Z" sodipodi:nodetypes="csssssss"/><path id="shape14" transform="translate(287.497305830025, 323.703385803068)" fill="#ffc101" fill-rule="evenodd" d="M15.1427 2.45661C17.4635 1.7768 38.9625 21.5873 42.0227 21.6566C44.886 21.7215 79.0277 -1.2867 81.6227 0.0566142C84.4215 1.50543 82.1535 39.6651 83.5427 40.8566C84.7742 41.9129 113.264 42.9966 114.743 45.1766C118.924 51.3396 54.8799 115.45 45.8627 119.577C24.2749 129.456 1.9914 109.089 0.502694 99.4166C-3.00994 76.5936 12.9604 3.09588 15.1427 2.45661Z" sodipodi:nodetypes="csssssss"/><path id="shape15" transform="translate(77.998984166242, 311.99964009682)" fill="#ffc101" fill-rule="evenodd" d="M71.761 0.000359903C73.8908 -0.194578 113.901 78.8542 109.201 105.84C107.744 114.208 91.1033 121.321 77.761 117.84C73.5547 116.743 -0.315755 63.0901 0.00101583 60.7204C0.297951 58.499 21.9834 52.2323 23.281 50.4004C24.4904 48.693 14.7711 19.6386 16.561 18.0004C18.0324 16.6537 53.5473 27.0134 55.201 26.4004C56.8348 25.7947 69.229 0.232115 71.761 0.000359903Z" sodipodi:nodetypes="csssssss"/><path id="shape16" transform="translate(307.68, 375.189678978626)" fill="#000000" fill-rule="evenodd" d="M0 0.650321C18.8163 3.00709 34.9283 12.575 49.92 25.1303C44.7335 16.2866 37.4535 9.48659 28.08 4.73032C19.5607 0.407495 10.2007 -0.952505 0 0.650321Z" sodipodi:nodetypes="ccsc"/><path id="shape17" transform="translate(118.56, 365.982255823791)" fill="#000000" fill-rule="evenodd" d="M42.96 0.737744C25.884 2.92372 11.9626 9.84159 0 19.6977C5.61122 12.225 11.6912 6.94504 18.24 3.85774C26.081 0.161236 34.321 -0.878764 42.96 0.737744Z" sodipodi:nodetypes="ccsc"/><path id="shape18" transform="translate(309.30670756157, 208.8)" fill="#000000" fill-rule="evenodd" d="M7.01329 154.08C0.492827 151.06 -2.61023 134.924 2.69329 121.2C21.6298 72.199 20.1612 50.9783 14.2133 14.88L36.2933 0C64.656 11.6964 89.416 63.3871 83.5733 102.96C79.0727 133.443 28.0745 163.836 7.01329 154.08Z" sodipodi:nodetypes="csccss"/><path id="shape19" transform="translate(214.076024205393, 96.2239332542172)" fill="#ffffff" fill-rule="evenodd" d="M30.484 29.7761C32.665 15.3138 31.1934 -0.576194 19.204 0.0160667C10.5258 0.444758 0.233968 10.8222 0.00397579 33.3761C-0.202928 53.6658 7.70981 65.2524 13.444 65.5361C23.4526 66.0312 26.7284 54.6795 30.484 29.7761Z" sodipodi:nodetypes="cssss"/><path id="shape20" transform="translate(275.027381856809, 93.5993120276934)" fill="#ffffff" fill-rule="evenodd" d="M0.0126181 29.2807C-0.255919 16.0662 3.69021 -0.121537 18.7326 0.000687972C36.4418 0.144581 42.4978 15.179 42.7326 37.6807C43.1106 73.9015 35.4478 74.3808 24.7326 73.9207C11.5387 73.3541 0.455561 51.0775 0.0126181 29.2807Z" sodipodi:nodetypes="cssss"/><path id="shape21" transform="translate(224.353855806281, 104.399905256221)" fill="#000000" fill-rule="evenodd" d="M13.9661 9.47438e-05C6.62201 0.0455049 0.428622 11.5426 0.0461442 21.3601C-0.438073 33.789 2.9135 42.0215 8.92614 42.0001C16.3812 41.9735 19.2566 29.7242 19.4861 20.1601C19.6774 12.191 20.331 -0.0392606 13.9661 9.47438e-05Z" sodipodi:nodetypes="cssss"/><path id="shape22" transform="translate(278.518732034025, 103.91642839093)" fill="#000000" fill-rule="evenodd" d="M10.6813 0.00357161C1.23545 -0.237065 -0.531096 11.7315 0.121268 20.8836C0.508746 26.3195 3.1818 44.8437 13.8013 45.8436C24.2796 46.8301 26.7181 34.5474 24.8413 20.1636C24.125 14.6737 20.7155 0.259197 10.6813 0.00357161Z" sodipodi:nodetypes="cssss"/><path id="shape23" transform="translate(228.220458220681, 108.924924949458)" fill="#ffffff" fill-rule="evenodd" d="M7.45954 0.0350751C5.37989 -0.465808 0.297318 4.52719 0.0195418 6.75508C-0.319037 9.47062 3.83139 14.4567 5.53954 14.4351C8.23669 14.401 10.5914 0.789374 7.45954 0.0350751Z" sodipodi:nodetypes="csss"/><path id="shape24" transform="translate(279.596576513626, 108.62521057904)" fill="#ffffff" fill-rule="evenodd" d="M6.96342 0.0947894C4.86905 -0.738466 -0.149622 4.10244 0.00342349 7.53479C0.12882 10.347 3.81779 14.1657 6.00342 13.5348C8.44972 12.8286 10.0877 1.3378 6.96342 0.0947894Z" sodipodi:nodetypes="csss"/><path id="shape25" transform="translate(198.095922827223, 116.444943190685)" fill="#000000" fill-rule="evenodd" d="M62.1986 0.00304386C48.806 -0.299375 26.0359 22.0033 13.9586 35.523C2.88424 38.9483 -5.54592 51.3614 4.46408 65.7151C13.5373 85.1346 29.1654 108.698 39.0241 119.715C47.9535 129.694 58.2225 131.095 71.1841 123.555C95.1896 109.59 118.228 87.2365 133.584 68.8351C143.12 57.4073 137.297 36.4469 117.879 42.003C97.3785 37.4967 78.4851 -0.014829 62.1986 0.00304386Z" sodipodi:nodetypes="cccssscc"/><path id="shape26" transform="translate(204.501057937705, 121.2)" fill="#ffc101" fill-rule="evenodd" d="M55.1789 0C43.7889 0.0125572 19.2586 20.469 7.41894 38.16L7.89894 35.76C2.04904 36.0521 -3.02167 48.5033 2.13894 55.2C12.8832 76.5076 22.0873 90.9432 39.0989 112.08C41.8662 115.673 49.1627 118.312 58.2989 113.52C85.6154 99.9891 115.359 72.6877 121.419 58.8C131.834 53.0177 121.535 38.2907 109.899 42L110.859 44.16C99.0916 41.7012 67.1614 0.0555841 55.1789 0Z" sodipodi:nodetypes="cccccccccc"/><path id="shape0" transform="matrix(4.00000007479799 0 0 4.00000007479799 209.28 134.4)" fill="#000000" fill-rule="evenodd" stroke-opacity="0" stroke="#000000" stroke-width="0" stroke-linecap="square" stroke-linejoin="bevel" d="M0 10.56C2.17547 5.63548 7.44308 0.163003 10.56 0C15.5987 0.256244 24.7414 10.725 27.6 11.04C25.094 11.2442 21.614 19.2365 13.2 23.28C17.8372 19.7986 20.507 16.021 22.8 12.48C21.1477 11.7652 19.9184 11.1746 18 11.04C14.5006 13.4768 12.665 16.2783 11.28 20.4C9.86726 18.0469 8.35176 15.8075 9.12 11.04C6.95015 11.2839 4.77167 11.3207 2.64 12.48C3.49057 15.2798 5.40177 18.0844 7.44 20.88C2.32587 16.0128 0.782672 11.5153 0 10.56Z" sodipodi:nodetypes="ccccccccccc"/><path id="shape27" transform="matrix(4 0 0 4 264.96 126.87828658544)" fill="#000000" fill-rule="evenodd" d="M0 0.440428C1.20577 0.543462 2.3004 0.903219 3.3 1.22043L2.46 0.0204284C1.40499 -0.0713797 0.678008 0.159967 0 0.440428Z" sodipodi:nodetypes="cccc"/><path id="shape28" transform="matrix(4 0 0 4 250.478562476741 168.72)" fill="#ff6767" fill-rule="evenodd" d="M6.26036 1.02C5.41766 0.383229 4.98303 0.156785 3.74036 0C-0.926084 0.782652 -0.303082 5.77376 0.740359 8.46C1.83453 5.7699 3.73124 3.23226 6.26036 1.02Z" sodipodi:nodetypes="cccc"/>
</svg>
