<svg width="1024" height="768" viewBox="-512 -384 8192 4096">
  <g stroke="transparent" stroke-width="0" fill="black">
<!-- gаsоlіне -->
    <path d="M190 -192q-2 -36 -9 -75.5t-23 -82.5q-8 -22 -25.5 -53t-40 -61.5t-45.5 -51.5q-3 -3 -7 -3q-6 0 -12.5 6.5t-4.5 11.5q10 27 16 44.5t10 33t8.5 34.5t11.5 48q7 30 11.5 76.5t6 101.5t1.5 110q0 74 -2.5 137t-4.5 87l110 41q11 -54 39 -91.5t66 -64.5q11 -8 24 -8
q15 0 28.5 9.5t24.5 21.5q23 25 32 48.5t9 58.5t-7 60t-27 54q-21 31 -48 55.5t-61 24.5q-5 0 -10 -1q-41 -5 -121 -55q-23 -15 -58 -40q6 29 8 100q3 110 9 188.5t18 142.5q7 40 16 75.5t33 86.5q-20 -6 -49 -6q-19 0 -32 3q-39 9 -80.5 21.5t-93.5 15.5h-8
q-28 0 -56 -10.5t-48.5 -28t-25.5 -40.5q-1 -5 -3 -19.5t-4 -29.5t-4 -23q-7 -31 -21.5 -48t-47.5 -17q-25 3 -39.5 15t-14.5 38q0 48 39 97q20 25 46 46.5t59 36.5q27 13 57 18t58 5q19 0 37 -1q39 -5 73 -15t67 -18.5t67 -8.5h8q35 1 60 12.5t51 29.5q13 9 22 -3
q5 -6 3 -13t-6 -13q-14 -21 -26.5 -62t-22.5 -84q-19 -87 -28.5 -188t-9.5 -191q0 -6 1 -6q26 18 44.5 29.5t41 17.5t59.5 8q42 0 70 -21t48 -51q18 -27 25.5 -53t7.5 -59q0 -40 -11 -73t-27 -60q-20 -35 -49 -65.5t-64 -48.5t-70 -18q-20 0 -43 8t-38 20q2 -24 3 -53t1 -66
q0 -21 -0.5 -45t-1.5 -52z" />
    <path d="M300 443v-8q0 -47 2 -106t6 -121.5t9 -119.5t12 -100q-22 -3 -50 -3t-51 3q-2 22 -4.5 43.5t-4.5 42.5q-2 23 -3.5 46.5t-3.5 48.5l-28 -39q-15 -21 -26 -43t-18 -51q-20 -5 -42.5 -15t-37.5 -21q-9 0 -17 4t-8 14q0 26 11.5 52.5t23.5 50.5q19 39 44.5 75.5t49 76.5
t35.5 89q-1 16 -2 26t-3 40q19 5 50.5 10t55.5 5zM208 208q-1 7 -1.5 23.5t-1.5 33.5t-2 25q-16 -36 -36.5 -70.5t-37.5 -69.5q-7 -14 -7 -21q3 -8 11 -8q6 0 17 8q12 12 28.5 37.5t29.5 41.5z" />
    <path d="M284 340q-5 2 -5.5 5t-2.5 7q0 15 -5.5 23.5t-11.5 16.5q-7 10 -30 10q-24 0 -40.5 -15.5t-25 -38.5t-8.5 -47q0 -25 7.5 -39t21.5 -25q4 -3 10 -4t13 -1q13 0 26 2.5t20 4.5q14 7 27.5 13t24.5 11l53 24q12 5 31 9t35 4q42 0 65.5 -19t39.5 -48q9 -15 16 -34.5t7 -42.5
q0 -28 -7.5 -44t-18.5 -33l-58 -45q-12 -10 -26 -19.5t-28 -17.5q-7 -4 -16 -4q-11 0 -23 3t-20 4l-29 8q-29 6 -60 10q-55 0 -100 -5.5t-95 -16.5q-2 -1 -8 -1q-7 0 -13 2t-11 3q-2 3 -4.5 7.5t-2.5 10.5q0 5 1 7l94 37q26 10 54 18.5t58 15.5q15 3 29 3q27 0 53.5 -5
t48.5 -10l55 -12q5 2 13 11t11 13q-2 41 -12.5 76.5t-30.5 60.5q-15 18 -43 18q-8 2 -16 -3q-22 -9 -42 -18l-42 -20q-29 -14 -71.5 -33t-81.5 -21q-22 12 -38.5 34.5t-16.5 54.5v6q0 26 11.5 52t28 47.5t32.5 35.5q24 22 58.5 39.5t74.5 17.5q11 0 21 -0.5t17 -1.5l37 -5
q8 0 16 -1t15 -1q9 0 17.5 1t15.5 5q8 5 12 6q13 -6 16 -21q-19 -9 -39 -21t-38 -23q-16 -10 -32.5 -20t-33.5 -21z" />
    <path d="M294 450q35 0 90 -76q59 -80 59 -139v-7.5t-1 -7.5q-6 -48 -30 -90.5t-57 -73t-68 -44.5q-54 -22 -90 -22q-5 0 -9 -0.5t-8 0.5q-41 12 -91 90q-43 65 -43 114v2q0 59 38 112q42 57 96 99q55 43 114 43zM217 371q-24 0 -43 -18t-30 -38q-3 -22 -3 -40q0 -74 41 -144
q47 -77 96 -77q10 0 19 3q20 6 45 43q8 34 8 62q0 47 -14.5 83t-31.5 57q-16 20 -28 33t-21 20q-19 16 -38 16z" />
    <path d="M-307 695q-25 3 -39.5 15t-14.5 38q0 48 39 97q38 47 98 80t143 33q17 0 40.5 -5t46.5 -11.5t40 -11.5t20 -5q24 -10 46 -13.5t47 -3.5q30 0 74 23l28 19q13 9 22 -3t-3 -26q-23 -43 -31 -88q-4 -23 -9.5 -66.5t-10.5 -95t-9 -96.5q-6 -74 -10 -126t-7 -94t-5.5 -84
t-5.5 -93t-7 -123q-1 -19 -2 -37t-8 -18h-101q-3 0 -4.5 8t-1.5 13q3 89 6.5 158.5t9 132.5t11.5 131.5t14 156.5q4 44 8 87.5t8 86.5q11 80 41 103q-22 -7 -46 -7q-9 0 -19 1q-29 3 -62.5 12.5t-69.5 18t-71 8.5q-43 0 -79.5 -23t-45.5 -55q-7 -21 -9 -47t-8 -48t-24 -31
q-21 -11 -39 -11z" />
    <path d="M63 0q0 49 5 105.5t12.5 115t17 112t17.5 95.5q22 6 55.5 10.5t58.5 6.5l1 -7q-13 -27 -21.5 -57t-13.5 -56q-5 -29 -10 -69t-8.5 -82t-3.5 -77q0 -47 3 -97l-10 -0.5t-23.5 -1t-22.5 -0.5q-19 0 -38 1z" />
    <path d="M430 441q-24 -34 -31.5 -84.5t-7.5 -107.5v-36q0 -32 3 -72.5t8 -78t10 -62.5q-13 -2 -27 -3t-29 -1q-2 -1 -6 -1q-13 0 -25 1.5t-23 3.5q-5 56 -8 111.5t-3 116.5v30l-122 44q-10 -73 -14 -150t-4 -152q-14 -2 -27 -3t-24 -1t-24 1t-26 3v54q0 48 4 103.5t10.5 110
t12.5 97.5q3 17 6 32t7 28q29 9 55.5 14.5t51.5 5.5l5 -4q-9 -9 -13 -19.5t-7 -31.5q-2 -15 -4.5 -29.5t-4.5 -28.5l118 -43q5 73 15 134q23 11 56.5 16.5t64.5 5.5z" />
    <path d="M235 282q0 -4 -1 -21.5t-2 -33.5t-2 -16v0q-16 -13 -33 -22t-37 -17q2 -16 5 -34t6 -31q22 4 45 16q4 1 4 -3v-15q0 -13 -3 -33t-5 -27q-19 -16 -45.5 -27t-52.5 -22q-6 -2 -7 -2q-10 0 -15.5 14.5t-7.5 24.5q-8 41 -15.5 92t-7.5 111q2 64 21 99.5t59 65.5
q19 13 48.5 26.5t54.5 17.5q3 -13 3 -29t-2 -30.5t-5 -30.5q-26 -7 -45.5 -17t-37.5 -21q-2 -7 -3 -19.5t-1 -23.5v-13.5t1 -14.5q20 8 40 17.5t36 21.5q5 2 5 -3z" />
    
<!-- wіъъ -->
    <path d="M239 73q21 15 41.5 32t39.5 33q-19 41 -34 90t-15 105q0 23 3.5 43t8.5 37q20 14 48 21t58 11l5 -7q-5 -10 -11 -21t-10 -22q-1 -7 -1.5 -16.5t-0.5 -19.5q0 -69 21 -128t50 -100q19 -28 41 -45q23 27 37 66.5t14 91.5q0 41 -5.5 71t-16.5 61q-4 11 -7.5 17t-14.5 10v9
q19 14 47 23.5t55 13.5q18 -16 27.5 -51.5t9.5 -69.5q0 -73 -15.5 -119t-48.5 -92q-24 -34 -52.5 -68t-56.5 -57q-7 -4 -14 0q-34 17 -60.5 50t-46.5 68q-5 -5 -11 -9.5t-12 -9.5q-34 -26 -65.5 -50.5t-69.5 -48.5q-4 -2 -5 -2q-2 0 -4 2q-40 39 -65.5 102.5t-37.5 131.5
q-4 24 -6 48t-2 48q0 55 23 91q20 13 49 21.5t58 10.5l5 -7q-6 -10 -15 -23t-14 -24q-2 -13 -3.5 -26.5t-1.5 -29.5q0 -62 16.5 -116.5t37.5 -97.5q14 -28 27 -48z" />
    <path d="M63 0q0 49 5 105.5t12.5 115t17 112t17.5 95.5q22 6 55.5 10.5t58.5 6.5l1 -7q-13 -27 -21.5 -57t-13.5 -56q-5 -29 -10 -69t-8.5 -82t-3.5 -77q0 -47 3 -97l-10 -0.5t-23.5 -1t-22.5 -0.5q-19 0 -38 1z" />
    <path d="M154 407q4 -48 4.5 -100t0.5 -103q-19 -9 -46.5 -17.5t-50.5 -13.5l-7 3q5 35 7 80t2 89q0 31 -1 62h-19q-6 5 -6 12q0 12 8 18h235q23 117 53 227.5t68 211.5q19 6 52.5 11.5t57.5 5.5l5 -8q-47 -98 -82 -212.5t-59 -235.5h207q5 0 5 -6q0 -4 -2 -6q-19 -19 -42 -44
t-43.5 -51t-31.5 -48q-1 -3 -7 -3t-6 3q-1 4 -1 8.5v10.5v50q0 19 -2.5 34t-12.5 22h-69q-10 -50 -17.5 -102.5t-12.5 -106.5q3 1 19.5 8t35.5 14t27 7q3 0 4 -2q18 -50 34 -108t24 -117h-256q6 111 16.5 209.5t29.5 197.5h-121zM337 164q-3 -30 -5.5 -65.5t-2.5 -68.5h52
q-1 9 -4.5 30.5t-9.5 45t-13.5 40.5t-16.5 18z" />
    <path d="M154 407q4 -48 4.5 -100t0.5 -103q-19 -9 -46.5 -17.5t-50.5 -13.5l-7 3q5 35 7 80t2 89q0 31 -1 62h-19q-6 5 -6 12q0 12 8 18h235q23 117 53 227.5t68 211.5q19 6 52.5 11.5t57.5 5.5l5 -8q-47 -98 -82 -212.5t-59 -235.5h207q5 0 5 -6q0 -4 -2 -6q-19 -19 -42 -44
t-43.5 -51t-31.5 -48q-1 -3 -7 -3t-6 3q-1 4 -1 8.5v10.5v50q0 19 -2.5 34t-12.5 22h-69q-10 -50 -17.5 -102.5t-12.5 -106.5q3 1 19.5 8t35.5 14t27 7q3 0 4 -2q18 -50 34 -108t24 -117h-256q6 111 16.5 209.5t29.5 197.5h-121zM337 164q-3 -30 -5.5 -65.5t-2.5 -68.5h52
q-1 9 -4.5 30.5t-9.5 45t-13.5 40.5t-16.5 18z" />

<!-- ве -->
    <path d="M42 0q6 77 16.5 157t20.5 156q5 32 10 65t10 59h221q2 0 10 -3t1 -7q-21 -14 -45.5 -40t-46 -55t-34.5 -51l7 -5h93q10 -13 17 -45q13 -49 22.5 -110.5t11.5 -120.5h-314zM177 293q16 33 39 61.5t47 52.5h-70l-7 -45q-4 -30 -9 -69zM194 261q-9 -6 -15.5 -24t-10.5 -39
t-7 -35q-6 -32 -10.5 -65t-7.5 -68h109q-3 59 -12 113t-28 94q-4 11 -11 17.5z" />
    <path d="M235 282q0 -4 -1 -21.5t-2 -33.5t-2 -16v0q-16 -13 -33 -22t-37 -17q2 -16 5 -34t6 -31q22 4 45 16q4 1 4 -3v-15q0 -13 -3 -33t-5 -27q-19 -16 -45.5 -27t-52.5 -22q-6 -2 -7 -2q-10 0 -15.5 14.5t-7.5 24.5q-8 41 -15.5 92t-7.5 111q2 64 21 99.5t59 65.5
q19 13 48.5 26.5t54.5 17.5q3 -13 3 -29t-2 -30.5t-5 -30.5q-26 -7 -45.5 -17t-37.5 -21q-2 -7 -3 -19.5t-1 -23.5v-13.5t1 -14.5q20 8 40 17.5t36 21.5q5 2 5 -3z" />
    
<!-- уэ -->
    <path d="M133 49q0 -12 8.5 -21t8.5 -22q0 -10 -10 -10h-92q-13 0 -13 9q0 6 5 14t10 13q10 9 38 43q5 6 22 35l37 68q45 87 66 133q5 12 5 26q0 10 -1 19l-9 56q-5 16 7 18l38 2q10 0 22.5 2t22.5 2q20 0 22 -10q3 -19 8.5 -53.5t11.5 -73.5t11 -70.5t8 -44.5q2 -9 7 -9q7 0 9 10
q7 36 18 74.5t29 83.5t42 66q18 17 46.5 33t61.5 16q19 0 30.5 -7.5t11.5 -22.5q0 -18 -7 -43.5t-16 -48.5t-15 -34q-7 -12 -17 -25q-5 -9 -12 -9q-8 0 -12 8t-6 16l-6 18q-6 15 -14.5 27t-21.5 12q-19 0 -28.5 -24t-16.5 -47q-12 -40 -22 -95.5t-18.5 -120t-14.5 -130.5
q-7 -85 -13.5 -160t-18.5 -146t-36 -141q-14 -44 -30 -73q-7 -8 -16 -8q-13 2 -9 24q4 17 8.5 34.5t8.5 38.5q23 110 33.5 229.5t10.5 253.5q0 8 -2.5 10.5t-11.5 2.5l-19 -1q-12 1 -17 16q-8 25 -14 61l-25 153q-4 16 -11 1q-8 -18 -24.5 -47.5t-32.5 -58t-25 -42.5
q-3 -7 -6.5 -14.5t-3.5 -15.5z" />
    <path d="M253 -104q36 47 67 117t42 143l-94 -72q-7 -2 -15 0t-14 6q-8 5 -23 20.5t-21 26.5q-3 7 -6 13t-5 15l-41 -31q-11 -10 -22.5 -20t-17.5 -25q-6 0 -13.5 5t-9.5 11q7 15 19.5 28.5t25.5 22.5l130 101q14 -4 24 -19q9 -11 17.5 -23t17.5 -23q8 -10 10 -13t10 -8
q8 6 16.5 12t16.5 14v12q0 44 -9.5 86t-25.5 72q-11 23 -25 34q-2 1 -5 0.5t-7 -0.5q-26 0 -45 -13.5t-32.5 -32t-24.5 -35.5q-1 0 -2 0.5l-3 1.5l-121 44q-1 2 -1 7q0 7 3.5 13t7.5 8l26 -10q4 4 12 12.5t18 17.5q11 9 22 17.5t17 10.5q6 1 12.5 1h12.5h11.5h11.5
q44 0 73.5 -7.5t57.5 -27.5q51 -37 84 -93t33 -140q0 -51 -12 -101t-26 -84q-16 -37 -40.5 -75.5t-50.5 -67.5q-34 5 -57.5 9.5t-54.5 18.5q-33 15 -55.5 29t-47.5 39q0 8 7 15t14 7q24 -24 48.5 -39.5t59.5 -29.5z" />
    
<!-- дцщє -->
    <path d="M461 30q4 -8 4 -21q0 -38 -5.5 -63.5t-17.5 -56.5q-16 -34 -31 -60t-36 -56q-16 -14 -31 -24.5t-35 -20.5q-4 -1 -9.5 2t-3.5 7q12 17 24.5 36t20.5 39q14 34 22 60t11.5 55.5t3.5 72.5h-246l3 -49.5t1 -26.5v-23v-20.5v-29.5q0 -10 -1.5 -31.5t-3 -44.5t-2.5 -36
q-19 -18 -45 -34t-54 -23q-2 -1 -6 1.5t-3 4.5q9 37 13.5 79.5t4.5 85.5q0 37 -1.5 68.5t-4.5 63.5l-10.5 12t-5.5 14q-2 5 -0.5 12t6.5 7h137q25 41 42.5 93t27.5 109q3 21 6 40t5 36q-1 31 -2.5 60t-1.5 59q13 5 33.5 9t42 7.5t37.5 4.5q-4 -40 -4.5 -70.5t-0.5 -66.5v-16
q0 -69 6.5 -137.5t16.5 -127.5h93zM267 44q-5 33 -8.5 64.5t-8.5 69.5q-21 -82 -55 -148h74z" />
    <path d="M308 30q-5 53 -6 110t-1 114v37.5v37.5q0 26 2 47t5 43q39 16 85 24q7 1 12 1.5t9 0.5l5 -5q-10 -28 -15 -57.5t-5 -67.5q0 -59 2 -120.5t6 -117.5q1 -16 2.5 -27.5t1.5 -19.5h46q0 -139 -11 -271.5t-37 -247.5q-4 -16 -9 -24.5t-15 -16.5h-2q-15 0 -26 12q8 32 12 73
t6 74q3 47 4 95.5t1 98.5v34v34q0 33 -0.5 56t-2.5 53h-317q0 44 1.5 80.5t4.5 72.5t6 78q5 50 11.5 104.5t16.5 93.5q26 7 51 11t50 5l4 -5q-21 -88 -30.5 -195.5t-9.5 -214.5h143z" />
    <path d="M597 195q1 -53 5 -99.5t9 -95.5h-236q-2 -82 -2 -156t-12 -141q-4 -22 -11 -53.5t-19 -62.5t-29.5 -54t-42.5 -28q-15 4 -19 20q19 19 26.5 56.5t8.5 80t2 75.5v19q0 32 -1 64.5t-2 64.5q0 29 -0.5 57.5t-0.5 57.5h-225v17.5v17.5v14q1 69 7.5 138t19 132t31.5 111
q24 5 54.5 10t57.5 5l3 -3q-21 -38 -35.5 -90t-22.5 -110.5t-10 -116.5q-2 -57 -3 -95h122q0 73 7.5 157.5t21.5 158.5q5 24 14 48.5t15 34.5q22 6 48 11t53 5l4 -5q-22 -36 -29 -72.5t-15 -83.5q-7 -48 -11.5 -104.5t-4.5 -111.5v-21.5t1 -16.5h127q-3 23 -3.5 51t-0.5 56
v30v29q0 41 3 82t10 76q4 18 9 32.5t11 29.5q20 9 52 17t57 8l3 -10q-21 -28 -28.5 -63.5t-13.5 -79.5q-3 -22 -4 -44.5t-1 -48.5z" />
    <path d="M183 92q16 -52 42 -106.5t53 -89.5l15 6q31 15 51 28t42 35q8 0 14.5 -7t6.5 -15q-25 -25 -46.5 -38.5t-56.5 -29.5q-25 -13 -51.5 -18t-60.5 -10q-40 45 -71 103t-47 128q-11 49 -11 97q0 84 33 140t84 93q28 20 58 27.5t73 7.5h23h12t13 -1l26 -20t26 -21l17 -17l26 10
q4 -2 7.5 -8t3.5 -13q0 -5 -1 -7l-121 -44l-3 -1.5t-2 -0.5q-13 22 -29.5 42t-39.5 31q-16 8 -33 8q-4 0 -7 0.5t-5 -0.5q-25 -20 -37.5 -59.5t-17.5 -77.5q-2 -14 -3.5 -28t-1.5 -27q0 -23 3 -44.5t7 -41.5q34 23 78 48t82 43q28 -5 53 -19.5t46 -28.5l22 10q14 -6 14 -19
q0 -5 -1 -8l-125 -59q-12 12 -28 25t-33 20q-13 5 -22 5l-38 -24t-39 -24z" />

<!-- гее -->
    <path d="M51 0q0 110 8.5 225t21.5 212h295q5 0 5 -6q0 -4 -2 -6q-28 -28 -59.5 -65.5t-48.5 -72.5q-1 -3 -7 -3t-6 3q-1 4 -0.5 8.5t0.5 9.5q0 12 -0.5 23.5t-0.5 23.5q0 18 -2.5 33t-12.5 22h-66q-8 -68 -13.5 -148.5t-8.5 -155.5q-3 -57 -3 -103q-27 -3 -51 -3q-23 0 -49 3z
" />
    <path d="M235 282q0 -4 -1 -21.5t-2 -33.5t-2 -16v0q-16 -13 -33 -22t-37 -17q2 -16 5 -34t6 -31q22 4 45 16q4 1 4 -3v-15q0 -13 -3 -33t-5 -27q-19 -16 -45.5 -27t-52.5 -22q-6 -2 -7 -2q-10 0 -15.5 14.5t-7.5 24.5q-8 41 -15.5 92t-7.5 111q2 64 21 99.5t59 65.5
q19 13 48.5 26.5t54.5 17.5q3 -13 3 -29t-2 -30.5t-5 -30.5q-26 -7 -45.5 -17t-37.5 -21q-2 -7 -3 -19.5t-1 -23.5v-13.5t1 -14.5q20 8 40 17.5t36 21.5q5 2 5 -3z" />
    <path d="M235 282q0 -4 -1 -21.5t-2 -33.5t-2 -16v0q-16 -13 -33 -22t-37 -17q2 -16 5 -34t6 -31q22 4 45 16q4 1 4 -3v-15q0 -13 -3 -33t-5 -27q-19 -16 -45.5 -27t-52.5 -22q-6 -2 -7 -2q-10 0 -15.5 14.5t-7.5 24.5q-8 41 -15.5 92t-7.5 111q2 64 21 99.5t59 65.5
q19 13 48.5 26.5t54.5 17.5q3 -13 3 -29t-2 -30.5t-5 -30.5q-26 -7 -45.5 -17t-37.5 -21q-2 -7 -3 -19.5t-1 -23.5v-13.5t1 -14.5q20 8 40 17.5t36 21.5q5 2 5 -3z" />
    

<!-- пкгяаіне -->
    <path d="M291 45q0 91 7 186t14 176h-124q-7 -22 -10.5 -52.5t-6.5 -60.5q-7 -69 -12.5 -144.5t-5.5 -149.5q-14 -1 -27.5 -2.5t-27.5 -1.5q-13 0 -26 1.5t-26 2.5q0 83 9.5 171t19.5 165q4 29 8.5 54t8.5 47h328q0 -2 1 -2.5t1 -2.5q-12 -63 -19 -134t-7 -149q0 -23 -0.5 -43.5
t-0.5 -42.5q0 -14 0.5 -29.5t1.5 -33.5q-11 -2 -24 -3.5t-27 -1.5t-27.5 1.5t-26.5 3.5q0 11 -0.5 22t-0.5 23z" />
    <path d="M159 117q0 -25 1 -59.5t3 -57.5q-12 -2 -24 -3t-24 -1h-6q-13 0 -24.5 1.5t-21.5 2.5q-2 18 -2.5 39t-0.5 43v7.5v7.5q0 71 6.5 139t16.5 128q3 19 6 34t6 28q23 8 48.5 13.5t56.5 5.5q-13 -50 -22 -110.5t-14 -119.5q-3 -25 -4 -49.5t-1 -48.5zM501 445q3 0 3 -4
q0 -2 -1 -3l-49 -61q-10 -13 -19.5 -23.5t-18.5 -18.5q-3 -3 -10 5t-10 10q-10 9 -21 17.5t-23 14.5q-28 -22 -51 -56t-36 -70q10 0 19 0.5t19 0.5t17.5 -0.5t11.5 -1.5q27 -36 46.5 -85.5t30.5 -100.5q5 -19 8 -36t3 -33q-25 -3 -52 -3q-26 0 -53 3q-7 57 -22.5 110.5
t-42.5 99.5l-11 18q-4 8 -7.5 13.5t-0.5 13.5q11 30 24 52t29 44q31 43 70 70q11 5 29.5 8.5t34.5 5.5q19 3 42 6.5t41 3.5z" />
    <path d="M51 0q0 110 8.5 225t21.5 212h295q5 0 5 -6q0 -4 -2 -6q-28 -28 -59.5 -65.5t-48.5 -72.5q-1 -3 -7 -3t-6 3q-1 4 -0.5 8.5t0.5 9.5q0 12 -0.5 23.5t-0.5 23.5q0 18 -2.5 33t-12.5 22h-66q-8 -68 -13.5 -148.5t-8.5 -155.5q-3 -57 -3 -103q-27 -3 -51 -3q-23 0 -49 3z
" />
    <path d="M356 0h-97v124q0 19 -1 46t-5 52t-12 37l-3 2q-15 -10 -25.5 -29t-18.5 -41t-14 -39q-5 -14 -12 -42.5t-13 -59t-9 -50.5h-104q11 60 28 120.5t36 110.5q7 17 12.5 28t10.5 17h93l8 5q-7 21 -21 42.5t-29 41.5q-14 18 -28.5 33.5t-28.5 28.5q-5 5 1.5 7.5t10.5 2.5h221
q2 -32 3 -84t1 -112q0 -49 -1 -100q0 -38 -1.5 -74t-1.5 -67zM188 407q14 -14 26.5 -32t22.5 -36q7 -10 12.5 -21.5t9.5 -24.5v69v27t-1 18h-70z" />
    <path d="M300 443v-8q0 -47 2 -106t6 -121.5t9 -119.5t12 -100q-22 -3 -50 -3t-51 3q-2 22 -4.5 43.5t-4.5 42.5q-2 23 -3.5 46.5t-3.5 48.5l-28 -39q-15 -21 -26 -43t-18 -51q-20 -5 -42.5 -15t-37.5 -21q-9 0 -17 4t-8 14q0 26 11.5 52.5t23.5 50.5q19 39 44.5 75.5t49 76.5
t35.5 89q-1 16 -2 26t-3 40q19 5 50.5 10t55.5 5zM208 208q-1 7 -1.5 23.5t-1.5 33.5t-2 25q-16 -36 -36.5 -70.5t-37.5 -69.5q-7 -14 -7 -21q3 -8 11 -8q6 0 17 8q12 12 28.5 37.5t29.5 41.5z" />
    <path d="M63 0q0 49 5 105.5t12.5 115t17 112t17.5 95.5q22 6 55.5 10.5t58.5 6.5l1 -7q-13 -27 -21.5 -57t-13.5 -56q-5 -29 -10 -69t-8.5 -82t-3.5 -77q0 -47 3 -97l-10 -0.5t-23.5 -1t-22.5 -0.5q-19 0 -38 1z" />
    <path d="M430 441q-24 -34 -31.5 -84.5t-7.5 -107.5v-36q0 -32 3 -72.5t8 -78t10 -62.5q-13 -2 -27 -3t-29 -1q-2 -1 -6 -1q-13 0 -25 1.5t-23 3.5q-5 56 -8 111.5t-3 116.5v30l-122 44q-10 -73 -14 -150t-4 -152q-14 -2 -27 -3t-24 -1t-24 1t-26 3v54q0 48 4 103.5t10.5 110
t12.5 97.5q3 17 6 32t7 28q29 9 55.5 14.5t51.5 5.5l5 -4q-9 -9 -13 -19.5t-7 -31.5q-2 -15 -4.5 -29.5t-4.5 -28.5l118 -43q5 73 15 134q23 11 56.5 16.5t64.5 5.5z" />
    <path d="M235 282q0 -4 -1 -21.5t-2 -33.5t-2 -16v0q-16 -13 -33 -22t-37 -17q2 -16 5 -34t6 -31q22 4 45 16q4 1 4 -3v-15q0 -13 -3 -33t-5 -27q-19 -16 -45.5 -27t-52.5 -22q-6 -2 -7 -2q-10 0 -15.5 14.5t-7.5 24.5q-8 41 -15.5 92t-7.5 111q2 64 21 99.5t59 65.5
q19 13 48.5 26.5t54.5 17.5q3 -13 3 -29t-2 -30.5t-5 -30.5q-26 -7 -45.5 -17t-37.5 -21q-2 -7 -3 -19.5t-1 -23.5v-13.5t1 -14.5q20 8 40 17.5t36 21.5q5 2 5 -3z" />
  </g>
</svg>