<?xml version="1.0" encoding="UTF-8" standalone="no"?>
<svg width="159px" height="159px" viewBox="0 0 159 159" version="1.1" xmlns="http://www.w3.org/2000/svg" xmlns:xlink="http://www.w3.org/1999/xlink" xmlns:sketch="http://www.bohemiancoding.com/sketch/ns">
    <!-- Generator: Sketch 3.4 (15588) - http://www.bohemiancoding.com/sketch -->
    <title>ic_antarctic_2</title>
    <desc>Created with Sketch.</desc>
    <defs></defs>
    <g id="1.Home" stroke="none" stroke-width="1" fill="none" fill-rule="evenodd" sketch:type="MSPage">
        <g id="1.Home_Desktop_HD" sketch:type="MSArtboardGroup" transform="translate(-984.000000, -3996.000000)" fill="#FFFFFF">
            <g id="4.Passeport" sketch:type="MSLayerGroup" transform="translate(0.000000, 3839.000000)">
                <g id="citoyens" transform="translate(855.000000, 139.000000)" sketch:type="MSShapeGroup">
                    <g id="ic_antarctic_2" transform="translate(129.000000, 18.000000)">
                        <path d="M158.397383,82.1120924 L158.397383,77.1521693 C158.397383,76.9797787 158.367831,76.8123136 158.348129,76.6448485 C158.328427,76.4478307 158.279173,76.2606638 158.274247,76.0734969 C158.264396,75.6252814 158.274247,75.1721405 158.269322,74.723925 C158.264396,74.5515344 158.279173,74.3692929 158.220067,74.2116787 C158.126484,73.9851082 158.151111,73.7536123 158.136335,73.517191 C158.096931,72.8128523 158.052602,72.1134392 158.003348,71.4091005 C157.998422,71.3450697 157.96887,71.2908899 157.959019,71.2268591 C157.934392,71.0593939 157.904839,70.8919288 157.885137,70.7195382 C157.830957,70.2368446 157.816181,69.7443001 157.722597,69.2616065 C157.673343,69.0153343 157.638865,68.7641366 157.619163,68.5080135 C157.599461,68.2518903 157.53543,68.0056181 157.500952,67.7544204 C157.456623,67.5032227 157.407369,67.252025 157.367965,67.0057528 C157.274382,66.3752958 157.210351,65.7399134 157.08229,65.1193074 C156.806465,63.7845118 156.506013,62.4644925 156.20556,61.1395479 C155.850928,59.5929582 155.42734,58.0512939 154.939721,56.5391823 C154.309264,54.5936316 153.668956,52.6480808 152.900587,50.75671 C152.383415,49.4908706 151.890871,48.2151804 151.299817,46.9887446 C150.77772,45.9149976 150.319654,44.8116979 149.7286,43.7625782 C149.107994,42.6642039 148.566195,41.5264262 147.920962,40.4428283 C147.344685,39.4675902 146.802886,38.4775758 146.177354,37.5318903 C145.418836,36.399038 144.684945,35.2464839 143.877172,34.1481097 C143.13343,33.133468 142.409389,32.1089755 141.611467,31.1337374 C140.961308,30.3407407 140.360404,29.5181914 139.700394,28.7350457 C139.09949,28.0159307 138.478884,27.3066667 137.833651,26.6269553 C137.040654,25.7896296 136.27721,24.9227513 135.459586,24.1051275 C134.932564,23.5731794 134.361212,23.0855604 133.814488,22.5733141 C133.06582,21.8739009 132.317152,21.1646368 131.568485,20.4602982 C131.524156,20.4208947 131.474901,20.3765657 131.425647,20.3371621 C130.997133,19.9874555 130.563694,19.6377489 130.140106,19.2880423 C129.795325,18.9974411 129.46532,18.6920635 129.115613,18.4162386 C128.396498,17.8498124 127.677383,17.2883117 126.943492,16.7366619 C126.209601,16.1899375 125.48556,15.6382876 124.722116,15.1211159 C123.579413,14.3478211 122.407157,13.6139298 121.254603,12.8406349 C119.924733,11.9589803 118.530832,11.1709091 117.112304,10.4271669 C116.038557,9.86566619 114.979586,9.2647619 113.86151,8.76729197 C112.772987,8.28952381 111.709091,7.73787398 110.600866,7.2798076 C109.556671,6.84636845 108.517403,6.39815296 107.463357,5.99919192 C106.404387,5.60023088 105.33064,5.25544974 104.261818,4.88604137 C102.858066,4.39842232 101.429687,3.96990861 99.986532,3.59064935 C98.8339779,3.29512266 97.6764983,3.02914863 96.5190188,2.7631746 C96.0806542,2.6646657 95.6373641,2.59570948 95.203925,2.49720058 C94.6867532,2.37406445 94.1646561,2.280481 93.6425589,2.20659933 C92.9480712,2.11301587 92.2535835,1.98987975 91.5689466,1.85196729 C91.1946128,1.77808562 90.8055026,1.76330928 90.4262434,1.71405483 C89.7563829,1.61554594 89.0914478,1.46778259 88.406811,1.46778259 C88.3427802,1.46778259 88.2836748,1.44315536 88.2147186,1.43330447 C87.9832227,1.4037518 87.7517268,1.36434824 87.5202309,1.34957191 C87.3724675,1.33479557 87.2099278,1.37419913 87.0769408,1.32987013 C86.6385762,1.17225589 86.1854353,1.22643579 85.7372198,1.2165849 C85.5894565,1.21165945 85.4219913,1.23628668 85.2890043,1.18210678 C85.0230303,1.06882155 84.7472054,1.09344877 84.466455,1.08852333 C84.0576431,1.08359788 83.6488312,1.09344877 83.2449447,1.08852333 C83.0971813,1.08359788 82.949418,1.05897066 82.7967292,1.04419432 C82.5898605,1.0195671 82.3780664,0.96046176 82.1711977,0.96046176 C80.53595,0.955536316 78.9056277,0.955536316 77.2753054,0.955536316 C77.1423184,0.955536316 76.9994805,0.930909091 76.8861953,0.975238095 C76.4675325,1.13777778 76.0439442,1.07867244 75.6154305,1.08852333 C75.2263203,1.09837422 74.8224339,1.02941799 74.4579509,1.118076 C74.0097354,1.22151034 73.5664454,1.20180856 73.1231554,1.2165849 C72.9901684,1.22151034 72.8473304,1.19195767 72.7389707,1.24121212 C72.4483694,1.3594228 72.1479173,1.32987013 71.8523906,1.34957191 C71.5519384,1.36927369 71.2662626,1.44315536 70.9658105,1.47270803 C70.4387879,1.52688793 69.9068398,1.5564406 69.3748918,1.60569505 C69.310861,1.61062049 69.2517557,1.62047138 69.1877249,1.63524772 C68.769062,1.70912939 68.3553247,1.79286195 67.9317364,1.85689274 C67.5327754,1.91599808 67.1288889,1.94555075 66.7299278,1.99480519 C66.4146994,2.04405964 66.1043963,2.10809043 65.7891679,2.17212121 C65.2719962,2.27555556 64.7597499,2.41346801 64.2327273,2.49720058 C63.0801732,2.68436748 61.9473208,2.97989418 60.809543,3.24094276 C60.2923713,3.35915344 59.7899759,3.53154401 59.2678788,3.64975469 C58.085772,3.92557961 56.9332179,4.29498797 55.7757383,4.6594709 C54.0518326,5.21112073 52.3427032,5.8218759 50.6582011,6.48188552 C49.3874363,6.9842809 48.1166715,7.49160173 46.8951611,8.08758057 C44.4127369,9.29431457 41.9155363,10.4813468 39.5660991,11.9294276 C38.3642905,12.6633189 37.1674074,13.4021356 35.9853006,14.1655796 C35.2169312,14.667975 34.4978163,15.2344012 33.7343723,15.7367965 C32.7197306,16.4115825 31.7789707,17.1750265 30.8185089,17.9236941 C30.4786532,18.1798172 30.1634247,18.465493 29.8284945,18.7314671 C29.5280423,18.9728139 29.2078884,19.184608 28.9222126,19.4308802 C28.2819048,20.0022318 27.6415969,20.5637326 26.9865127,21.1153824 C26.4841174,21.5389707 26.07038,22.0709187 25.5138047,22.450178 C24.277518,23.7504954 22.9033189,24.9326022 21.7556902,26.3265031 C21.332102,26.8288985 20.8395575,27.2820394 20.4110438,27.7893603 C19.8790957,28.4050409 19.3372968,29.0059452 18.8299759,29.6413276 C18.2290717,30.3899952 17.5887638,31.1041847 17.0124868,31.8676287 C16.2539683,32.8724194 15.5250024,33.896912 14.8108129,34.9312554 C13.7666186,36.443367 12.7618278,37.9702549 11.8309187,39.5562482 C11.1955363,40.6447715 10.5453776,41.7283694 9.95924964,42.8365945 C8.85102453,44.9643867 7.80683021,47.1168062 6.88084656,49.3332564 C6.31934584,50.6680519 5.79232323,52.0225493 5.30962963,53.3819721 C4.76783069,54.9039346 4.25558442,56.4406734 3.83199615,58.0020394 C3.48228956,59.3171332 3.09810486,60.6174507 2.82227994,61.9473208 C2.61048581,62.9668879 2.31988456,63.9618278 2.19182299,65.0010967 C2.11794132,65.5675228 1.9406253,66.1191727 1.85196729,66.6806734 C1.80271284,67.0008273 1.75345839,67.3111304 1.70420394,67.6263588 C1.63032227,68.0647234 1.65002405,68.5227898 1.54658971,68.956229 C1.46285714,69.2714574 1.47763348,69.5916114 1.42345358,69.8969889 C1.36434824,70.2368446 1.28554113,70.5668494 1.30524291,70.916556 C1.31016835,70.9756614 1.31016835,71.049543 1.28061568,71.1037229 C1.14270322,71.3647715 1.18703223,71.6455219 1.17718134,71.9262722 C1.17718134,72.0937374 1.22151034,72.2858297 1.162405,72.4335931 C1.01464165,72.8325541 1.0638961,73.2364406 1.04911977,73.6403271 C1.04419432,73.7930159 1.0638961,73.960481 1.00971621,74.0885426 C0.906281866,74.3397403 0.921058201,74.5958634 0.921058201,74.8470611 L0.921058201,76.1375277 C0.916132756,76.285291 0.891505532,76.4330544 0.871803752,76.5808177 C0.847176527,76.7679846 0.797922078,76.960077 0.797922078,77.1472439 C0.788071188,78.8218951 0.792996633,80.4965464 0.792996633,82.1761231 C0.792996633,82.2795575 0.768369408,82.4026936 0.807772968,82.4913516 C0.985088985,82.905089 0.906281866,83.3385281 0.921058201,83.7621164 C0.930909091,84.1512266 0.857027417,84.555113 0.945685426,84.9146705 C1.05897066,85.3678114 1.03434343,85.8111015 1.04911977,86.259317 C1.05404521,86.3824531 1.0195671,86.5302165 1.06882155,86.6385762 C1.20180856,86.9488793 1.17225589,87.2690332 1.18210678,87.5891871 C1.18703223,87.7418759 1.20673401,87.8896392 1.22151034,88.0324772 C1.24613757,88.2245695 1.28554113,88.406811 1.30524291,88.5989033 C1.3594228,89.1111496 1.35449735,89.6233959 1.46285714,90.1208658 C1.56629149,90.6183357 1.58106782,91.1355075 1.6992785,91.6329774 C1.78793651,92.0073112 1.79286195,92.3914959 1.86181818,92.7658297 C2.00465608,93.5785281 2.17212121,94.3863011 2.33958634,95.1940741 C2.48734969,95.9230399 2.63018759,96.6520058 2.80257816,97.3760462 C3.1030303,98.5877056 3.37392977,99.8141414 3.74826359,101.011025 C4.04871573,101.981337 4.29991342,102.971352 4.61021645,103.94659 C4.88604137,104.813468 5.20619529,105.675421 5.51649832,106.532448 C5.7775469,107.251563 6.03859548,107.975604 6.32919673,108.679942 C6.69367965,109.571448 7.01875902,110.47773 7.45219817,111.334757 C7.79697932,112.019394 8.05310245,112.74836 8.38803271,113.437922 C9.26968735,115.265262 10.195671,117.082751 11.2152381,118.83621 C11.6437518,119.575026 12.0968927,120.299067 12.5451082,121.023107 C12.8701876,121.555055 13.2248196,122.057451 13.5351227,122.594324 C14.0670707,123.520308 14.7270803,124.357633 15.3329101,125.234363 C15.5397787,125.529889 15.7466474,125.830342 15.963367,126.116017 C16.5544204,126.899163 17.1109957,127.706936 17.7513035,128.450678 C18.2783261,129.061433 18.7905724,129.696816 19.273266,130.342049 C19.5441655,130.706532 19.8938721,130.997133 20.1499952,131.361616 C20.568658,131.957595 21.1695623,132.39596 21.5635979,133.01164 C23.7357191,135.114805 25.7502261,137.370659 28.0947379,139.296508 C28.6365368,139.744723 29.158634,140.212641 29.7102838,140.655931 C30.5229822,141.306089 31.3356806,141.956248 32.1631554,142.591631 C33.3255604,143.492987 34.5372198,144.325387 35.7390284,145.167638 C36.3153054,145.571525 36.9112843,145.945859 37.5072631,146.310342 C38.3938432,146.857066 39.2656469,147.443194 40.1916306,147.925887 C41.1914959,148.457835 42.1519577,149.05874 43.151823,149.580837 C44.6097547,150.339355 46.0726118,151.092949 47.5896489,151.738182 C48.6486195,152.191323 49.7075902,152.649389 50.7764117,153.072977 C51.9043386,153.516267 53.0470418,153.93493 54.1897451,154.333891 C55.1551323,154.668822 56.1352958,154.979125 57.1105339,155.274651 C57.8000962,155.486445 58.4995094,155.678538 59.1989226,155.860779 C60.3711785,156.156306 61.5483598,156.451833 62.7206157,156.727658 C63.1983838,156.845868 63.6810774,156.91975 64.1588456,157.018259 C64.70557,157.126619 65.2424435,157.239904 65.7891679,157.313785 C66.4196248,157.402443 67.0402309,157.545281 67.6657624,157.658567 C67.9612891,157.712747 68.2518903,157.75215 68.5523425,157.786628 C69.0153343,157.840808 69.4931025,157.826032 69.9413179,157.944242 C70.4831169,158.092006 71.0446176,158.02305 71.5864165,158.156037 C71.9706013,158.254545 72.399115,158.136335 72.7882251,158.3038 C73.5418182,158.234844 74.2757095,158.426936 75.0243771,158.431861 C75.4085618,158.436787 75.797672,158.431861 76.1867821,158.436787 C76.3148437,158.436787 76.4576816,158.41216 76.5660414,158.461414 C76.8763444,158.599327 77.2014238,158.554998 77.5166522,158.559923 C78.2505435,158.564848 78.9795094,158.559923 79.7134007,158.559923 C80.5260991,158.559923 81.3437229,158.564848 82.1613468,158.559923 C82.3091101,158.559923 82.4716498,158.594401 82.6095623,158.540221 C82.9838961,158.392458 83.3680808,158.441712 83.7522655,158.436787 C84.156152,158.426936 84.5797403,158.500818 84.9688504,158.41216 C85.4663203,158.308725 85.9440885,158.318576 86.436633,158.308725 C86.5449928,158.3038 86.6681289,158.328427 86.7567869,158.284098 C87.0670899,158.14126 87.3872439,158.190515 87.7073978,158.170813 C87.9191919,158.160962 88.1309861,158.126484 88.3378547,158.101857 C88.4856181,158.082155 88.6333814,158.062453 88.7811448,158.047677 C88.9338336,158.037826 89.0963733,158.067379 89.2293603,158.018124 C89.7219048,157.850659 90.2440019,157.929466 90.7463973,157.801405 C91.174911,157.69797 91.6280519,157.707821 92.071342,157.633939 C92.6968735,157.530505 93.3174796,157.358114 93.9479365,157.289158 C94.750784,157.2005 95.5388552,156.993632 96.3318519,156.850794 C97.1839538,156.693179 98.0212795,156.446907 98.868456,156.249889 C100.592362,155.841077 102.29164,155.368235 103.966291,154.826436 C105.123771,154.442251 106.276325,154.058066 107.419028,153.634478 C108.413968,153.26507 109.384281,152.816854 110.374295,152.43267 C111.47267,152.004156 112.536566,151.506686 113.590611,151.004291 C115.654372,150.019202 117.693506,148.975007 119.653834,147.787975 C120.417278,147.320058 121.195498,146.871842 121.944165,146.389149 C123.535084,145.359731 125.101376,144.290909 126.628264,143.158057 C127.948283,142.182819 129.219048,141.148475 130.499663,140.123983 C131.233555,139.54278 131.937893,138.912323 132.612679,138.262165 C133.459856,137.444541 134.361212,136.686022 135.183761,135.843771 C136.124521,134.878384 137.050505,133.89822 137.98634,132.918057 C138.010967,132.89343 138.05037,132.863877 138.070072,132.824473 C138.237537,132.489543 138.528139,132.267898 138.774411,131.996999 C139.020683,131.726099 139.237403,131.445349 139.478749,131.169524 C139.828456,130.765637 140.20279,130.381453 140.532795,129.967715 C141.118923,129.233824 141.6952,128.490082 142.2567,127.741414 C142.921635,126.854834 143.596421,125.978105 144.217027,125.061972 C145.211967,123.599115 146.201982,122.126407 147.113189,120.604444 C147.743646,119.565176 148.374103,118.520981 148.925753,117.442309 C150.11771,115.117499 151.309668,112.792689 152.299683,110.374295 C152.900587,108.916364 153.457162,107.443656 154.003886,105.966022 C154.466878,104.685406 154.851063,103.375238 155.225397,102.069995 C155.693314,100.415046 156.156306,98.7600962 156.491236,97.0706686 C156.658701,96.2382684 156.885272,95.4206445 157.003482,94.5783935 C157.111842,93.8494276 157.318711,93.1303127 157.372891,92.3865705 C157.545281,92.0664165 157.461549,91.7117845 157.52558,91.3817797 C157.633939,90.8596825 157.727523,90.3375854 157.75215,89.8056373 C157.757076,89.6972775 157.737374,89.5790669 157.781703,89.4904089 C157.909764,89.2195094 157.875286,88.9486099 157.885137,88.6678595 C157.890063,88.539798 157.870361,88.3969601 157.919615,88.2886003 C158.0329,88.0620298 158.003348,87.8256085 158.013199,87.5891871 C158.018124,87.4414238 157.973795,87.2788841 158.02305,87.1409716 C158.190515,86.6878307 158.121558,86.214988 158.14126,85.7421453 C158.146186,85.6190091 158.121558,85.4761712 158.170813,85.362886 C158.3038,85.0722848 158.264396,84.7718326 158.269322,84.4713805 C158.274247,84.0477922 158.269322,83.6192785 158.274247,83.1858393 C158.274247,83.0331506 158.254545,82.8706109 158.313651,82.7425493 C158.402309,82.5356806 158.397383,82.3238865 158.397383,82.1120924 L158.397383,82.1120924 Z M40.9649254,138.183357 C40.9008947,138.262165 40.8073112,138.326195 40.7235786,138.405002 C40.3098413,138.345897 40.0684945,138.010967 39.7680423,137.799173 C38.7632516,137.084983 37.783088,136.33139 36.797999,135.592573 C36.4236652,135.316748 36.0493314,135.035998 35.679923,134.745397 C35.5814141,134.671515 35.4976816,134.563155 35.3843963,134.44987 C35.4435017,134.316883 35.4829052,134.16912 35.5666378,134.055835 C36.4384416,132.878653 37.3200962,131.701472 38.2066763,130.534141 C38.9110149,129.598307 39.6252044,128.667398 40.329543,127.736489 C41.0388071,126.780952 41.7480712,125.820491 42.4573353,124.864954 C42.4819625,124.830476 42.5065897,124.795998 42.5361424,124.76152 C42.9055507,124.278826 42.8907744,124.249274 42.4031554,123.953747 C41.8367292,123.618817 41.2801539,123.259259 40.7235786,122.904627 C40.6546224,122.860298 40.6152189,122.781491 40.51671,122.66328 C41.7037422,121.082213 42.8661472,119.535623 44.0384031,117.959481 C44.2157191,118.06784 44.3634824,118.136797 44.4964695,118.235305 C45.7770851,119.146513 47.0527754,120.072496 48.3383165,120.978778 C49.0475806,121.486099 49.771621,121.968793 50.4907359,122.461337 C50.978355,122.801193 51.4561231,123.145974 51.9683694,123.500606 C48.289062,128.411275 44.624531,133.302241 40.9649254,138.183357 L40.9649254,138.183357 Z M56.7953054,113.600462 C55.9185762,112.970005 55.0172198,112.35925 54.1848196,111.654911 C53.5642136,111.137739 52.9633093,110.591015 52.3377778,110.078769 C51.5644829,109.42861 50.8601443,108.70457 50.1656566,107.985455 C49.5844541,107.389476 49.0426551,106.759019 48.5107071,106.118711 C48.0871188,105.606465 47.6635305,105.104069 47.2596441,104.577047 C46.2893314,103.330909 45.4175277,102.020741 44.5851275,100.676094 C43.7724291,99.3659259 43.0927177,97.9868013 42.432708,96.5929004 C41.9844925,95.6521405 41.6446368,94.662126 41.2604521,93.6918134 C41.1126888,93.3125541 40.9797018,92.9332949 40.8467148,92.5491101 C40.4477537,91.3867051 40.1374507,90.1947475 39.8369986,88.9978644 C39.620279,88.1359115 39.4675902,87.2591823 39.3149014,86.3775277 C39.2065416,85.7519962 39.1326599,85.1166138 39.0440019,84.4910823 C38.9701203,84.0034632 39.0144493,83.5010678 38.9208658,83.0282251 C38.7139971,82.0037326 38.8519096,80.9743146 38.8174315,79.949822 C38.812506,79.8956421 38.8519096,79.8365368 38.8765368,79.7528042 C38.9553439,79.7380279 39.034151,79.7084752 39.1129582,79.7035498 C39.9552092,79.6493699 61.5483598,79.6936989 62.0113516,79.7478788 C62.0064262,79.994151 62.0015007,80.2354978 61.9473208,80.491621 C61.8488119,80.9841655 61.7355267,81.4816354 61.7404521,81.9988071 C61.7552285,83.5503223 61.750303,85.0919865 61.7453776,86.6385762 C61.7453776,86.8996248 61.7749303,87.1508225 61.6567196,87.3970948 C61.6123906,87.4906782 61.617316,87.6088889 61.6222415,87.7172487 C61.6419432,88.5792015 61.4005964,89.3968254 61.1937278,90.2193747 C61.0804425,90.6528139 60.952381,91.0813276 60.809543,91.4999904 C60.4746128,92.4506013 60.1199808,93.3864358 59.6816162,94.2927177 C59.248177,95.1891486 58.8393651,96.1052814 58.4305532,96.986936 C58.2680135,97.0558923 58.2039827,96.9524579 58.1251756,96.8884271 C57.952785,96.765291 57.7902453,96.6027513 57.6030784,96.5239442 C56.6672439,96.1052814 56.1993266,95.2975084 55.8397691,94.4109283 C55.5590188,93.7164406 55.3078211,93.0170274 55.0566234,92.3176142 C54.7857239,91.5935738 54.376912,90.953266 53.9089947,90.3326599 C53.3819721,89.6283213 52.6776335,89.1751804 51.963444,88.717114 C51.3477633,88.3132275 50.6631265,88.0768062 49.993266,87.7960558 C49.5795286,87.6285907 49.1657912,87.4562001 48.7520539,87.2985859 C48.0772679,87.0326118 47.4566619,87.1754497 46.8705339,87.5645599 C46.6784416,87.6926215 46.4666474,87.7862049 46.3681385,88.0374026 C46.2696296,88.2935257 46.2351515,88.539798 46.3829149,88.7712939 C46.5553054,89.0421934 46.7326215,89.3081674 46.9296392,89.5593651 C47.0675517,89.7219048 47.2300914,89.8647427 47.3827802,90.012506 C47.9541318,90.5641558 48.4614526,91.1699856 48.9342953,91.805368 C49.185493,92.1452237 49.5056469,92.4407504 49.7568446,92.7806061 C50.3084945,93.5144974 50.9389514,94.1794324 51.4610486,94.9330255 C51.7565753,95.3516883 51.8994132,95.8146801 52.0373256,96.277672 C52.1555363,96.6569312 52.1752381,97.0706686 52.2097162,97.4745551 C52.2343434,97.8341126 52.2343434,98.1887446 52.3082251,98.5532275 C52.3919577,98.9423377 52.362405,99.356075 52.4658393,99.7501106 C52.4806157,99.8141414 52.4609139,99.8830976 52.4904666,99.942203 C52.7909187,100.528331 53.0470418,101.148937 53.4164502,101.695661 C54.1700433,102.823588 55.1797595,103.72987 56.1205195,104.690332 C56.5391823,105.118846 56.923367,105.581837 57.3321789,106.010351 C57.7508418,106.448716 58.2138336,106.837826 58.5980183,107.300818 C59.0954882,107.906647 59.6274363,108.492775 60.0460991,109.162636 C60.188937,109.379355 60.3317749,109.59115 60.4893891,109.788167 C60.7849158,110.147725 60.8735738,110.576239 60.9917845,111.014603 C61.1247715,111.516999 61.0705916,112.029245 61.2085041,112.53164 C61.2922367,112.837018 61.2479076,113.196575 61.1493987,113.541356 C60.9474555,114.25062 60.8193939,114.984512 60.6470034,115.767658 C60.2677441,115.757807 60.0066955,115.560789 59.7357961,115.413025 C58.7310053,114.841674 57.7409909,114.260471 56.7953054,113.600462 L56.7953054,113.600462 Z M76.5414141,136.725426 C76.2655892,138.139028 75.5021453,139.242328 74.0737662,139.749649 C73.9407792,139.798903 73.8225685,139.87771 73.6354016,139.976219 C73.8028668,140.104281 73.9112266,140.197864 74.0294372,140.281597 C74.5072054,140.606676 74.9554209,140.956383 75.2607985,141.468629 C75.6646849,142.133564 75.9405099,142.832977 75.9257335,143.635825 C75.9109572,144.684945 75.6400577,145.635556 75.0637807,146.527061 C74.3643675,147.610659 73.4285329,148.354401 72.2365753,148.827244 C71.4731313,149.122771 70.694911,149.300087 69.8674363,149.290236 C69.5916114,149.28531 69.310861,149.275459 69.0350361,149.290236 C67.8923329,149.33949 66.7841077,149.152323 65.6808081,148.891275 C64.6218374,148.640077 63.5924194,148.29037 62.6221068,147.7929 C62.0310534,147.487523 61.4941799,147.108264 60.9868591,146.67975 C60.2628187,146.07392 59.7456469,145.344954 59.3565368,144.507629 C59.070861,143.901799 58.893545,143.271342 58.9083213,142.596556 C58.9230976,142.118788 58.9083213,141.650871 58.9132468,141.178028 C58.9132468,141.030265 58.9329485,140.887427 58.9427994,140.759365 C59.1447427,140.606676 59.3466859,140.631304 59.5289274,140.670707 C60.2529678,140.813545 60.9720827,141.020414 61.7010486,141.123848 C62.2526984,141.207581 62.7895719,141.325791 63.3313709,141.4243 C64.0258586,141.547436 64.7154209,141.680423 65.3951323,141.818336 C65.6955844,141.877441 65.6709572,141.916845 65.6660317,142.261626 C65.6611063,142.675363 65.7005099,143.103877 65.9369312,143.473285 C66.1733526,143.847619 66.4984319,144.118519 66.9220202,144.241655 C67.1682924,144.310611 67.4342665,144.404194 67.6657624,144.359865 C68.0203944,144.285984 68.3553247,144.123444 68.6705532,143.951053 C68.9611544,143.788514 69.089216,143.46836 69.2123521,143.172833 C69.4635498,142.557152 69.2369793,142.020279 68.8577201,141.527734 C68.769062,141.419375 68.6311496,141.335642 68.4981626,141.271611 C68.2666667,141.158326 68.0351708,141.054892 67.793824,140.98101 C67.5721789,140.912054 67.3357576,140.892352 67.0697835,140.852949 C67.0599327,140.705185 67.0156037,140.552496 67.0500818,140.424435 C67.2668013,139.557557 67.4047138,138.675902 67.5524772,137.799173 C67.5918807,137.572602 67.6706878,137.350957 67.7347186,137.104685 C67.9071092,137.129312 68.0696489,137.158865 68.2321886,137.168716 C68.4045791,137.178567 68.5769697,137.178567 68.7493603,137.173641 C69.4044444,137.139163 69.8674363,136.617066 69.8674363,135.932429 C69.8625108,135.257643 69.3601154,134.745397 68.7050313,134.725695 C68.2026359,134.705993 67.8332275,134.89316 67.6165079,135.361077 C67.5524772,135.518692 67.4588937,135.666455 67.3603848,135.853622 C67.2126215,135.858547 67.0353054,135.893025 66.8776912,135.858547 C66.000962,135.681231 65.1439346,135.464512 64.2524291,135.351227 C63.7894372,135.297047 63.3313709,135.178836 62.8782299,135.090178 C62.5038961,135.011371 62.1295623,134.937489 61.7552285,134.858682 C61.4695527,134.794651 61.1789514,134.740471 60.8735738,134.671515 C61.0311881,133.917922 61.3365657,133.267763 61.7158249,132.652083 C62.0212025,132.159538 62.3561328,131.696546 62.7895719,131.297585 C63.5677922,130.593247 64.4592977,130.140106 65.4936412,129.943088 C65.8531987,129.874132 66.2029052,129.819952 66.5723136,129.819952 C66.6954497,129.819952 66.8185859,129.765772 66.9466474,129.750996 C67.1387398,129.731294 67.3456085,129.662338 67.5130736,129.721443 C67.8480038,129.839654 68.192785,129.795325 68.5277152,129.829803 C68.9907071,129.879057 69.4586243,129.957864 69.9068398,130.046522 C70.5767003,130.18936 71.2317845,130.371602 71.8868687,130.563694 C72.7783742,130.834594 73.5910726,131.253256 74.3200385,131.814757 C74.9751227,132.322078 75.5809524,132.913131 75.9257335,133.706128 C75.9946898,133.863742 76.0784223,134.011506 76.1621549,134.164194 C76.5857431,134.971967 76.7088793,135.863473 76.5414141,136.725426 L76.5414141,136.725426 Z M97.8341126,146.610794 C97.6666474,146.945724 97.395748,147.182145 97.164252,147.45797 C96.5929004,148.137682 95.7949784,148.379028 94.9970563,148.61545 C94.7409331,148.684406 94.4454064,148.625301 94.1597306,148.625301 C93.4504666,148.748437 92.8101587,148.516941 92.2240308,148.147532 C91.2734199,147.551554 90.6922174,146.719153 90.7513228,145.561674 C90.8005772,144.645541 91.2143146,143.877172 91.9235786,143.310746 C92.4900048,142.857605 93.1303127,142.507898 93.8642039,142.384762 C95.2137759,142.168042 96.454988,142.369986 97.440077,143.424031 C97.8439634,143.85747 98.0656085,144.384493 98.0902357,144.985397 C98.1099375,145.541972 98.0853102,146.083771 97.8341126,146.610794 L97.8341126,146.610794 Z M104.88735,111.787898 C103.921962,112.600596 102.867917,113.285233 101.823723,113.989572 C100.932217,114.5757 100.025936,115.132275 99.0753247,115.62482 C98.5433766,115.895719 98.0262049,116.206022 97.4893314,116.467071 C96.454988,116.974392 95.3960173,117.432458 94.3173449,117.836344 C93.3618086,118.195902 92.4013468,118.550534 91.4261087,118.846061 C90.1848966,119.22532 88.9338336,119.570101 87.6482924,119.781895 C87.0621645,119.880404 86.4858874,120.008466 85.8997595,120.136527 C85.5894565,120.200558 85.2693025,120.180856 84.9491486,120.254738 C84.4172006,120.372949 83.8507744,120.372949 83.2991246,120.417278 C83.0430014,120.436979 82.7918038,120.407427 82.5406061,120.510861 C82.407619,120.569966 82.2450794,120.550265 82.097316,120.550265 C80.3980375,120.550265 78.698759,120.55519 77.004406,120.545339 C76.7975373,120.545339 76.5857431,120.481308 76.373949,120.461607 C76.0734969,120.441905 75.7779702,120.422203 75.477518,120.422203 C75.2312458,120.422203 75.0046753,120.39265 74.7781049,120.180856 C74.7731794,119.993689 74.7633285,119.762193 74.7633285,119.530697 C74.7633285,117.378278 74.7781049,115.230784 74.7584031,113.08329 C74.7485522,112.275517 74.9554209,111.521924 75.2213949,110.783107 C75.4627417,110.103396 75.8075228,109.463088 76.1670803,108.827706 C76.7039538,107.877095 77.1915729,106.896931 77.4870996,105.837961 C77.6988937,105.084367 77.8515825,104.320924 78.0091967,103.547629 C78.122482,103.000904 78.0141222,102.434478 78.2357672,101.912381 C78.2653199,101.833574 78.2456181,101.735065 78.2406926,101.656258 C78.1963636,100.577585 78.4524868,99.5432419 78.698759,98.5088985 C78.9302549,97.5533622 79.2996633,96.6421549 79.683848,95.7407985 C80.1468398,94.6719769 80.8216258,93.7558442 81.5259644,92.8397114 C82.1367196,92.0467148 82.7967292,91.2881962 83.2744974,90.4016162 C83.5158442,89.9484752 83.757191,89.4953343 84.0182395,89.0520443 C84.5945166,88.0521789 85.0919865,87.0129101 85.7322944,86.0524483 C86.3331987,85.141241 86.8454449,84.1709283 87.2148533,83.1415103 C87.3429149,82.7868783 87.4167965,82.407619 87.5054545,82.0332852 C87.5202309,81.9544781 87.5300818,81.8559692 87.5054545,81.7820875 C87.3281385,81.2550649 87.1803752,80.7083405 86.6779798,80.3734103 C85.9194613,80.1763925 85.495873,80.6787879 85.1264646,81.1762578 C84.6733237,81.7968639 84.2989899,82.4667244 83.8852525,83.1168831 C83.2892737,84.0477922 82.7474747,85.0131794 82.0677633,85.8948341 C81.6786532,86.4021549 81.3880519,86.9833574 81.0383454,87.5202309 C80.5950553,88.1950168 80.1517653,88.8747282 79.6789226,89.5347379 C79.4819048,89.8056373 79.1913035,90.0174315 78.9598076,90.2686291 C78.787417,90.4557961 78.6298028,90.6577393 78.4721886,90.8547571 C78.2209909,91.1699856 77.8909861,91.3620779 77.536354,91.5147667 C77.3491871,91.5984993 77.1669456,91.5541703 76.9994805,91.4113324 C76.6793266,91.1355075 76.4724579,90.7956518 76.3345455,90.4016162 C76.5808177,89.5593651 76.9699278,88.7811448 77.4230688,88.0275517 C77.8663588,87.2936604 78.2357672,86.5154401 78.6298028,85.761847 C78.6889081,85.6485618 78.7184608,85.5205002 78.7627898,85.4022896 C79.1223473,84.3531698 79.5114574,83.3188264 79.9596729,82.2992593 C80.2798268,81.5850697 80.53595,80.8364021 80.8117749,80.1123617 C80.7280423,79.9153439 80.6492352,79.7380279 80.5458009,79.5213083 C80.7674459,78.8908514 81.0038672,78.2308418 81.2402886,77.5659067 C81.4422318,77.004406 81.6195479,76.4429052 81.5949206,75.8321501 C81.5752189,75.3149784 81.565368,74.7978066 81.5998461,74.2806349 C81.6293987,73.8521212 81.4225301,73.5910726 81.0974507,73.3940548 C81.0038672,73.3398749 80.9004329,73.3053968 80.801924,73.2659933 C80.4226647,73.2955459 80.1665416,73.5418182 79.9645984,73.8077922 C79.4425012,74.5072054 78.831746,75.1425878 78.3786051,75.8961809 C78.3145743,76.0094661 78.2406926,76.1129004 78.1815873,76.2261857 C77.8171044,76.9994805 77.4526215,77.7727754 77.0881385,78.5460702 C76.9896296,78.7578644 76.9058971,78.9795094 76.8172391,79.1913035 C76.7630592,79.3144396 76.728581,79.4523521 76.639923,79.5360847 C76.2508129,79.9251948 76.1917076,80.4325156 76.0488696,80.9250601 C75.7730447,81.8559692 75.6105051,82.8262819 75.2854257,83.7522655 C75.0884079,84.3137662 74.8618374,84.8604906 74.5761616,85.3825878 C74.1772006,86.0967773 73.8028668,86.8158923 73.4285329,87.5399327 C73.2118134,87.9487446 72.9162867,88.273824 72.4779221,88.4363636 C72.1035883,88.3723329 71.8770178,88.1112843 71.6553728,87.8502357 C71.547013,87.7270996 71.4386532,87.554709 71.4337278,87.3970948 C71.4189514,86.9341029 71.3598461,86.4711111 71.5273112,86.0031938 C71.7932852,85.2200481 72.0838865,84.4418278 72.2267244,83.6192785 C72.2907552,83.259721 72.4040404,82.9149399 72.4335931,82.5603078 C72.5074747,81.5505916 72.7685233,80.5950553 73.1625589,79.6641462 C73.3103223,79.3193651 73.3842039,78.9302549 73.4531602,78.5559211 C73.56152,77.9057624 73.738836,77.27038 73.8915248,76.639923 C74.1772006,75.4725926 74.6549687,74.3742184 75.433189,73.4285329 C75.5711015,73.2659933 75.6794613,73.0837518 75.8173737,72.9212121 C76.2114093,72.4286676 76.2261857,71.8523906 76.1670803,71.2711881 C76.1424531,71.005214 75.9454353,70.8180471 75.7385666,70.6653583 C75.6351323,70.5865512 75.5119962,70.5422222 75.3987109,70.4880423 C75.1819913,70.3796825 74.9849735,70.3993843 74.8175084,70.5767003 C74.5318326,70.8673016 74.2412314,71.1431265 74.0097354,71.4928331 C73.4334584,72.3449351 72.9113612,73.2216643 72.4582203,74.1427225 C72.0050794,75.0637807 71.547013,75.9897643 71.1382011,76.9255988 C70.8081962,77.6890428 70.4486388,78.4426359 70.2220683,79.2454834 C70.1974411,79.329216 70.1432612,79.3981722 70.0841558,79.5163829 C70.0151996,79.5311592 69.9117653,79.5557864 69.8132564,79.5705628 C69.6704185,79.5902646 69.5669841,79.6641462 69.5078788,79.7823569 C69.4093699,79.994151 69.2862338,80.2059452 69.2320539,80.4275902 C68.9020491,81.6835786 68.5818951,82.9346417 68.2715921,84.1955556 C68.1780087,84.5846657 68.1632323,84.9934776 68.0499471,85.3776623 C67.8627802,86.0425974 67.5771044,86.658278 66.9663492,87.0523136 C66.8579894,87.1212698 66.7545551,87.200077 66.631419,87.2394805 C66.3457431,87.3379894 66.0058874,87.3921693 65.7694661,87.2099278 C65.6069264,87.0917172 65.5034921,86.8011159 65.5034921,86.5893218 C65.5084175,85.8455796 65.3705051,85.0870611 65.5921501,84.3531698 C65.6118519,84.289139 65.6069264,84.2251082 65.6118519,84.1610774 C65.6266282,83.4124098 65.8482732,82.6932949 65.956633,81.964329 C66.045291,81.3289466 66.2866378,80.7329678 66.4048485,80.1074363 C66.4393266,79.9251948 66.5181337,79.7380279 66.7496296,79.6887734 C66.8776912,79.6592208 66.8875421,79.5459355 66.9170948,79.4425012 C67.0254545,79.0336893 67.1436652,78.6248773 67.2569505,78.2160654 C67.429341,77.625012 67.5968062,77.0339586 67.7642713,76.4429052 C67.8677056,76.0537951 67.9612891,75.6548341 68.0647234,75.2657239 C68.3996537,74.0294372 68.7838384,72.8128523 69.3748918,71.6701491 C69.8674363,70.7195382 70.3649062,69.7738528 70.8623761,68.8281674 C71.3401443,67.9169601 71.8326888,67.0106782 72.2907552,66.0945455 C72.6946417,65.2719962 73.0098701,64.4149687 73.2216643,63.5185378 C73.3497258,63.001366 73.5122655,62.4940452 73.6354016,61.9817989 C73.7683886,61.4449254 73.871823,60.9031265 73.9900337,60.366253 C74.137797,59.6816162 74.1772006,58.982203 74.359442,58.3024916 C74.3988456,58.1645791 74.3545166,58.0069649 74.3446657,57.8296489 C74.1525734,57.8148725 73.9851082,57.7902453 73.8127177,57.7902453 C73.4039057,57.7853199 73.0000192,57.7951708 72.5912073,57.7853199 C72.1479173,57.7853199 71.7538817,57.9330832 71.3844733,58.1547282 C70.6899856,58.5733911 70.0349014,59.0413083 69.3650409,59.5092256 C68.6410005,60.011621 67.8627802,60.4056566 67.0106782,60.6470034 C66.5427609,60.7849158 66.0649928,60.8982011 65.5724483,60.8834247 C65.2916979,60.8735738 65.0109476,60.8735738 64.7351227,60.8834247 C64.1095911,60.9080519 63.5086869,60.7849158 62.9077826,60.6420779 C62.3216546,60.49924 61.7453776,60.366253 61.1641751,60.2431169 C60.2677441,60.0658009 59.7653487,59.4845984 59.4845984,58.6669745 C59.4304185,58.5093603 59.425493,58.3320443 59.4353439,58.1645791 C59.4451948,57.9133814 59.5634055,57.7114382 59.8096777,57.6080038 C60.0805772,57.4996441 60.3564021,57.3420298 60.6371525,57.2927754 C61.8980664,57.0859067 63.1343531,56.7706782 64.3607888,56.4258971 C65.2424435,56.1746994 66.1388745,55.9727561 67.0106782,55.7117076 C67.8578547,55.4605099 68.591746,55.0024435 69.177874,54.3128812 C69.7492256,53.6528716 70.3747571,53.037191 70.960885,52.3821068 C71.4189514,51.874786 71.9804521,51.5250794 72.6010582,51.2837326 C73.2758442,51.0276094 73.9654064,50.8108899 74.6845214,50.6877537 C75.9158826,50.4759596 77.1423184,50.2247619 78.3687542,49.9637133 C79.0927946,49.8011736 79.8266859,49.682963 80.5605772,49.5401251 C82.1465705,49.2248966 83.6340548,48.6387686 84.9294468,47.668456 C85.5057239,47.2350168 86.0622992,46.7375469 86.5302165,46.195748 C86.9538047,45.7081289 87.3970948,45.2451371 87.8403848,44.7821453 C87.9290428,44.6885618 87.9881481,44.580202 88.0620298,44.4718422 C88.6481578,43.6049639 89.2293603,42.7380856 89.8154882,41.8712073 C90.1553439,41.3737374 90.4853487,40.8861183 90.8252044,40.3935738 C90.8843098,40.3098413 90.9778932,40.2458105 91.0665512,40.1571525 C92.2831361,40.4231265 93.4356902,40.871342 94.5833189,41.314632 C95.7161712,41.7529966 96.8293218,42.2356902 97.9227706,42.7725637 C99.0309957,43.3143627 100.114594,43.915267 101.163713,44.5752766 C102.188206,45.2205099 103.207773,45.8706686 104.183011,46.6587398 C104.059875,46.816354 103.981068,46.9394901 103.882559,47.0429245 C102.872843,48.0575661 101.966561,49.1805676 100.902665,50.1508802 C100.173699,51.1359692 99.1935354,51.8895623 98.3956133,52.8155459 C97.9572487,53.3130159 97.484406,53.7809331 97.0460414,54.2784031 C96.587975,54.8054257 96.36633,55.4654353 96.1890139,56.1205195 C96.0511015,56.6278403 95.9378163,57.145012 95.8737855,57.6769601 C95.7703511,58.5635402 95.7112458,59.4550457 95.4945262,60.321924 C95.3024339,61.1050697 95.0364598,61.8734392 94.7606349,62.6319577 C94.3124194,63.8879461 93.6080808,65.0109476 92.9135931,66.1388745 C92.5638865,66.7053006 92.3717941,67.3456085 92.1895527,67.9809909 C91.9679076,68.7542857 91.8102934,69.5423569 91.6576046,70.3353535 C91.5393939,70.9805868 91.4950649,71.6455219 91.3719288,72.2907552 C91.3128235,72.5813564 91.2684945,72.8719577 91.2537181,73.1724098 C91.2290909,73.694507 91.3374507,74.1919769 91.4605868,74.6845214 C91.6625301,75.4922944 91.8250697,76.3000673 91.7807407,77.1472439 C91.7511881,77.7875517 91.7758153,78.432785 91.7758153,79.0780183 L91.7758153,79.6198172 C91.9334295,79.6493699 92.0516402,79.683848 92.1698509,79.6936989 C92.3865705,79.7035498 92.60329,79.6986243 92.8150842,79.6986243 L119.491294,79.6986243 C119.762193,79.6986243 120.042944,79.6592208 120.343396,79.7577297 C120.353247,79.9350457 120.377874,80.1025108 120.377874,80.2699759 C120.382799,80.934911 120.387725,81.5949206 120.377874,82.2647811 C120.377874,82.4519481 120.333545,82.639115 120.303992,82.8312073 C120.294141,82.9149399 120.249812,83.0035979 120.259663,83.082405 C120.333545,83.7079365 120.146378,84.3088408 120.116825,84.9294468 C120.092198,85.3727369 119.944435,85.806176 119.905031,86.2445406 C119.850851,86.8011159 119.72279,87.3379894 119.604579,87.8748629 C119.45189,88.5989033 119.269649,89.3229437 119.102184,90.0420587 C118.796806,91.3029726 118.387994,92.5343338 117.939779,93.7558442 C117.594998,94.6966041 117.250216,95.6373641 116.802001,96.5387205 C116.614834,96.9179798 116.467071,97.3218663 116.274978,97.706051 C115.339144,99.6319 114.221068,101.449389 113.009408,103.207773 C112.492237,103.961366 111.930736,104.690332 111.359384,105.404521 C111.02938,105.823184 110.635344,106.192593 110.305339,106.611255 C109.443386,107.714555 108.374565,108.620837 107.409177,109.620702 C106.892006,110.157576 106.300952,110.620568 105.714824,111.083559 C105.429149,111.31013 105.1681,111.551477 104.88735,111.787898 L104.88735,111.787898 Z M125.771236,130.076075 C125.707205,130.617874 125.603771,131.164598 125.460933,131.696546 C125.234363,132.553574 124.751669,133.243136 124.224646,133.917922 C123.963598,134.247927 123.677922,134.573006 123.387321,134.883309 C122.845522,135.459586 122.205214,135.932429 121.584608,136.415123 C120.845791,136.996325 120.05772,137.498721 119.205618,137.902607 C118.294411,138.331121 117.338874,138.675902 116.353785,138.813814 C115.51646,138.9271 114.654507,138.912323 113.80733,138.666051 C113.034036,138.444406 112.364175,138.074998 111.718942,137.602155 C111.177143,137.213045 110.719076,136.740202 110.295488,136.272285 C110.280712,136.085118 110.398923,136.011236 110.497431,135.94228 C111.452968,135.22809 112.408504,134.523752 113.378817,133.819413 C114.152112,133.262838 114.935257,132.711188 115.74303,132.139836 C115.880943,132.262973 116.023781,132.356556 116.13214,132.479692 C116.614834,133.006715 117.230515,133.134776 117.890524,133.031342 C118.294411,132.962386 118.629341,132.696412 118.905166,132.391034 C119.17114,132.075806 119.323829,131.676845 119.33368,131.282809 C119.348456,130.706532 119.136662,130.18936 118.624416,129.859355 C118.038288,129.485022 117.427532,129.430842 116.816777,129.819952 C116.5114,130.012044 116.220798,130.213987 115.895719,130.430707 C115.151977,129.41114 114.41316,128.406349 113.684194,127.406484 C113.964945,127.14051 114.225993,126.92379 114.447638,126.672593 C114.767792,126.317961 114.812121,125.761385 114.595402,125.347648 C114.334353,124.855103 113.895988,124.623608 113.319711,124.672862 C112.901049,124.712266 112.408504,125.111227 112.300144,125.53974 C112.231188,125.790938 112.245964,126.03721 112.364175,126.293333 C112.58582,126.795729 112.566118,126.810505 112.147456,127.125734 C111.216546,127.805445 110.300414,128.499933 109.37443,129.179644 C108.758749,129.632785 108.133218,130.076075 107.507686,130.524291 C107.423954,130.583396 107.315594,130.612949 107.202309,130.662203 C106.990515,130.465185 106.911708,130.204137 106.793497,129.96279 C106.458567,129.288004 106.21722,128.573814 106.10886,127.839923 C106.0005,127.110957 106.030053,126.352439 106.246772,125.618547 C106.591554,124.49062 107.197383,123.54001 108.000231,122.682982 C108.960693,121.663415 110.08862,120.850717 111.25595,120.1119 C112.19671,119.515921 113.255681,119.146513 114.339278,118.900241 C114.644656,118.826359 114.984512,118.89039 115.304666,118.870688 C116.314382,118.806657 117.245291,119.107109 118.126946,119.56025 C118.737701,119.870553 119.240096,120.33847 119.594728,120.934449 C119.806522,121.298932 119.973987,121.692968 120.121751,122.096854 C120.372949,122.811044 120.279365,123.520308 120.033093,124.224646 C119.94936,124.465993 119.860702,124.702415 119.742492,125.022569 C120.00354,124.97824 120.185782,124.963463 120.372949,124.914209 C121.018182,124.741818 121.668341,124.756595 122.32835,124.909283 C123.017912,125.071823 123.589264,125.416604 124.096585,125.884521 C124.909283,126.623338 125.42153,127.549322 125.633324,128.623069 C125.721982,129.100837 125.830342,129.608158 125.771236,130.076075 L125.771236,130.076075 Z M152.984319,76.9502261 C152.890736,76.960077 152.787302,76.9847042 152.688793,76.9896296 C150.797422,77.0585859 126.051987,77.0142569 125.480635,76.9354497 C125.460933,76.8664935 125.42153,76.7926118 125.416604,76.7088793 C125.391977,76.3049928 125.441231,75.9011063 125.298393,75.5070707 C125.239288,75.3543819 125.293468,75.1622896 125.278692,74.9948244 C125.25899,74.7830303 125.224512,74.5761616 125.190034,74.3643675 C125.180183,74.2806349 125.155556,74.1969024 125.15063,74.1131698 C125.116152,73.2610678 124.914209,72.4286676 124.795998,71.591342 C124.608831,70.3255026 124.288677,69.0990669 123.988225,67.8578547 C123.914343,67.5524772 123.830611,67.2421741 123.732102,66.941722 C123.456277,66.0945455 123.264185,65.2178163 122.914478,64.3903415 C122.747013,64.0012314 122.584473,63.6071958 122.456412,63.1983838 C122.249543,62.5186724 121.924464,61.8980664 121.663415,61.2479076 C121.2152,60.1298316 120.633997,59.0807119 120.097124,58.0069649 C119.762193,57.3469553 119.358307,56.7115729 118.979048,56.071265 C118.67367,55.5540933 118.368292,55.041847 118.043213,54.5443771 C117.634401,53.9188456 117.210813,53.303165 116.767523,52.7022607 C116.196171,51.9338913 115.614969,51.1753728 115.009139,50.4316306 C114.570774,49.9095334 114.053603,49.4465416 113.63494,48.9096681 C113.004483,48.0871188 112.226263,47.4123329 111.516999,46.6735161 C110.861914,45.9938047 110.128023,45.4027513 109.403983,44.8116979 C108.842482,44.3487061 108.295758,43.870938 107.739182,43.4128716 C107.359923,43.1025685 106.970813,42.8070418 106.571852,42.521366 C106.084233,42.1765849 105.586763,41.8416546 105.089293,41.5215007 C104.094353,40.8664165 103.084637,40.2261087 102.030592,39.6596825 C101.183415,39.2065416 100.331313,38.7632516 99.4742857,38.3199615 C98.4103896,37.7683117 97.2972391,37.3447234 96.1840885,36.9063588 C95.5487061,36.6600866 94.9231746,36.4088889 94.2779413,36.1823184 C93.7115152,35.9853006 93.1401635,35.8079846 92.5688119,35.6503704 C91.8102934,35.4435017 91.0468494,35.2514093 90.27848,35.0740933 C89.4756325,34.8918519 88.6777104,34.6702068 87.8502357,34.5815488 C87.1508225,34.5027417 86.4760366,34.3205002 85.7815488,34.2219913 C85.2101972,34.1431842 84.6339202,34.1234824 84.0576431,34.0791534 C83.9985378,34.074228 83.9246561,34.0939298 83.8655507,34.0693025 C83.348379,33.8772102 82.8115055,33.9757191 82.274632,33.9510919 C82.0185089,33.941241 81.7673112,33.9609428 81.5161135,33.8673593 C81.3634247,33.808254 81.1713324,33.8230303 81.0038672,33.8230303 C80.1665416,33.8181049 79.329216,33.8131794 78.4968158,33.8230303 C78.2603944,33.8279557 78.0288985,33.8821356 77.7974026,33.9116883 C77.6496392,33.9313901 77.4969505,33.941241 77.3491871,33.9510919 C76.7532083,33.9757191 76.152304,33.8722848 75.566176,34.0693025 C75.4873689,34.0988552 75.3987109,34.074228 75.3100529,34.0791534 C74.94557,34.0840789 74.590938,34.074228 74.226455,34.1776623 C73.8865993,34.2810967 73.4974892,34.1530351 73.1576335,34.3303511 C71.7982107,34.4534873 70.4831169,34.7884175 69.1483213,35.0691679 C67.2865031,35.458278 65.4985666,36.0641077 63.7057047,36.6797884 C62.779721,36.9999423 61.8882155,37.4186051 60.99671,37.8224916 C60.1741607,38.1869745 59.3713131,38.5859355 58.5586147,38.9701203 C57.8444252,39.3149014 57.1794901,39.7384897 56.4899278,40.1226744 C55.4211063,40.7137278 54.4015392,41.3688119 53.4065993,42.0682251 C52.761366,42.521366 52.1013564,42.9548052 51.5053776,43.4719769 C51.0128331,43.9103415 50.4661087,44.2846753 49.948937,44.6885618 C49.9144589,44.7181145 49.8799808,44.7427417 49.8455026,44.7722944 C49.3283309,45.2500625 48.7914574,45.7081289 48.289062,46.2006734 C47.5305435,46.9345647 46.7868013,47.6783069 46.0578355,48.4319 C45.5160366,48.9835498 44.9693122,49.5351996 44.491544,50.1361039 C43.6049639,51.2738817 42.6937566,52.406734 41.8662819,53.5937662 C41.0979125,54.7019913 40.3738721,55.8299182 39.7237133,57.0070996 C39.2656469,57.8247234 38.768177,58.6324964 38.369216,59.4796729 C37.7338336,60.8292448 37.0984512,62.1788167 36.5960558,63.5924194 C36.3153054,64.3706397 36.0247042,65.1587109 35.7784319,65.9467821 C35.4336508,67.0402309 35.1184223,68.1435305 34.8425974,69.2566811 C34.6258778,70.118634 34.473189,71.0002886 34.3155748,71.8770178 C34.2416931,72.2956806 34.2712458,72.7389707 34.1530351,73.1379317 C34.0101972,73.6107744 34.1284079,74.1230207 33.9313901,74.5860125 C33.8919865,74.6746705 33.9166138,74.7978066 33.9116883,74.901241 C33.9067629,75.2213949 33.896912,75.5366234 33.8181049,75.8518519 C33.7343723,76.1818567 33.7737759,76.5364887 33.763925,76.9108225 C33.6407888,76.9354497 33.5225782,76.9797787 33.399442,76.9896296 C33.2319769,76.9994805 33.0546609,76.9896296 32.8871958,76.9896296 L6.9842809,76.9896296 C6.73308321,76.9896296 6.47696008,77.0191823 6.20606061,76.9453006 C6.20606061,76.285291 6.19128427,75.6499086 6.21098605,75.0145262 C6.22083694,74.6943723 6.3045695,74.3840693 6.32919673,74.0639153 C6.35382395,73.7437614 6.27009139,73.3989803 6.35382395,73.1034536 C6.46218374,72.7192689 6.39815296,72.3301587 6.48188552,71.9607504 C6.57054353,71.5765657 6.53113997,71.192381 6.60502165,70.8229726 C6.75771044,70.0940067 6.74785955,69.3404137 6.94980279,68.6212987 C7.0384608,68.3011448 6.98920635,67.9514382 7.09264069,67.6165079 C7.19114959,67.2914286 7.17637326,66.9367965 7.24532949,66.6067917 C7.49160173,65.4887157 7.72802309,64.3657143 7.96444444,63.2525637 C8.56042328,60.4352092 9.46670515,57.7114382 10.3828379,54.9925926 C10.7226936,53.9878018 11.1265801,52.9977874 11.535392,52.0176239 C11.9442039,51.0276094 12.3382395,50.037595 12.8110823,49.0820587 C13.3873593,47.9098028 13.9291582,46.7178451 14.5251371,45.5603656 C14.9684271,44.7033381 15.5003752,43.9004906 15.9535161,43.0533141 C16.948456,41.2111977 18.1453391,39.4971429 19.3225204,37.7633862 C19.8347667,37.0097932 20.3814911,36.2709764 20.9331409,35.5370851 C21.4946417,34.7884175 22.0659933,34.0446753 22.6521212,33.3157095 C22.982126,32.9019721 23.3564598,32.5177874 23.7061664,32.1139009 C23.9425878,31.838076 24.1691582,31.5524002 24.4105051,31.2864262 C24.6518519,31.0155267 24.907975,30.7594036 25.12962,30.4638769 C25.395594,30.1043194 25.7551515,29.823569 26.0654545,29.4935642 C26.5826263,28.9468398 27.055469,28.3656373 27.5972679,27.8484656 C28.4247427,27.0702453 29.247292,26.292025 30.0698413,25.5138047 C30.7544781,24.8734969 31.4637422,24.2528908 32.1877826,23.656912 C33.4634728,22.5979413 34.7637903,21.5635979 36.1133622,20.5883598 C37.1083021,19.8593939 38.1081674,19.1353535 39.1425108,18.4556421 C40.2162578,17.7611544 41.3047811,17.0912939 42.3982299,16.4263588 C44.4127369,15.2048485 46.5208273,14.1655796 48.6338432,13.1312362 C49.4760943,12.7224242 50.3577489,12.3924194 51.2197018,12.0230111 C51.7516498,11.801366 52.273747,11.5698701 52.8155459,11.3630014 C53.6873497,11.0231457 54.5640789,10.6931409 55.450659,10.3779125 C56.2978355,10.0873112 57.145012,9.8016354 57.997114,9.54551227 C58.9772775,9.24506013 59.9574411,8.97416065 60.9376046,8.69833574 C61.2873112,8.59490139 61.6370178,8.51116883 61.9867244,8.42251082 C63.3904762,8.08265512 64.7991534,7.7625012 66.222607,7.51130351 C66.9762001,7.3783165 67.7297932,7.26503127 68.4784608,7.13204425 C69.133545,7.02368446 69.7837037,6.9399519 70.4387879,6.86607023 C71.1776046,6.78233766 71.9164214,6.68382876 72.6552381,6.60502165 C73.1871861,6.54099086 73.7339105,6.58531987 74.2412314,6.47696008 C74.9504954,6.32919673 75.6499086,6.39815296 76.3542472,6.36860029 C76.5906686,6.3587494 76.8221645,6.36860029 77.0536604,6.27994228 C77.2063492,6.22576239 77.3885907,6.24546417 77.5609812,6.24546417 C78.9992112,6.24053872 80.4374411,6.24053872 81.875671,6.24546417 C82.1120924,6.24546417 82.3435883,6.24546417 82.5750842,6.32919673 C82.727773,6.38830207 82.9149399,6.36860029 83.082405,6.36860029 C83.4912169,6.37352573 83.9000289,6.36367484 84.3088408,6.37352573 C84.4763059,6.37845118 84.643771,6.41292929 84.8112362,6.43755652 C84.8949687,6.45233285 84.9787013,6.49666186 85.0624339,6.48681097 C85.8160269,6.42278018 86.5499182,6.62964887 87.2985859,6.63457431 C87.466051,6.63457431 87.6335161,6.67890332 87.8009812,6.70353054 C87.8847138,6.71830688 87.9635209,6.7429341 88.0521789,6.75278499 C88.8747282,6.841443 89.7120539,6.88084656 90.5247523,7.03353535 C91.3571525,7.19114959 92.1944781,7.34383838 93.0268783,7.48667629 C94.0119673,7.64921597 94.9872054,7.87086099 95.9624435,8.06787879 C96.9229052,8.25997114 97.8587398,8.53579606 98.8044252,8.79191919 C99.7698124,9.05789322 100.7352,9.31401635 101.690736,9.60954305 C102.582241,9.89029341 103.463896,10.2104473 104.345551,10.5355267 C105.108995,10.8064262 105.862588,11.0970274 106.621106,11.3925541 C107.630823,11.7865897 108.630688,12.2151034 109.625628,12.6485426 C111.137739,13.3085522 112.580895,14.0867725 114.058528,14.8206638 C114.728389,15.1457431 115.368696,15.5348533 116.01393,15.9141126 C116.713343,16.317999 117.412756,16.7317364 118.102318,17.1503992 C118.900241,17.6478692 119.698163,18.1404137 120.471457,18.6674363 C121.648639,19.4702838 122.815969,20.2829822 123.968523,21.1301587 C124.736893,21.7015103 125.456008,22.3418182 126.194824,22.9427225 C126.559307,23.2431746 126.928716,23.523925 127.298124,23.8145262 C127.347379,23.8539298 127.396633,23.8982588 127.445887,23.9376623 C127.992612,24.4449832 128.52456,24.9769312 129.100837,25.4546994 C130.573545,26.6811352 131.849235,28.0996633 133.193882,29.4590861 C133.789861,30.0599904 134.380914,30.6805964 134.89316,31.3652333 C135.173911,31.7395671 135.513766,32.0744974 135.809293,32.4340548 C136.449601,33.2024242 137.104685,33.9658682 137.720366,34.7539394 C138.365599,35.5764887 138.99113,36.4138143 139.59696,37.2560654 C140.138759,38.0244348 140.64608,38.8174315 141.163252,39.5956518 C141.966099,40.8023858 142.695065,42.0583742 143.438807,43.3045118 C144.52733,45.1269264 145.428687,47.0478499 146.359596,48.9441462 C146.861991,49.9784897 147.29543,51.0423858 147.723944,52.1161328 C148.167234,53.2292833 148.595748,54.3375084 148.994709,55.4605099 C149.546359,57.0021741 149.994574,58.5783165 150.447715,60.1495334 C150.748167,61.1937278 150.989514,62.247773 151.27519,63.2919673 C151.496835,64.1095911 151.644598,64.9469168 151.802213,65.779317 C151.920423,66.3851467 151.984454,66.9959019 152.092814,67.6017316 C152.156845,67.9760654 152.260279,68.3454738 152.314459,68.724733 C152.383415,69.1877249 152.412968,69.6556421 152.472073,70.1137085 C152.536104,70.6210293 152.614911,71.1234247 152.683867,71.6258201 C152.703569,71.7538817 152.723271,71.8819432 152.728196,72.0100048 C152.742973,72.3498605 152.71342,72.6897162 152.831631,73.0246465 C152.900587,73.2167388 152.851332,73.4482347 152.856258,73.6649543 C152.866109,74.00481 152.82178,74.3446657 152.959692,74.679596 C153.008947,74.812583 152.984319,74.9800481 152.984319,75.1278114 L152.984319,76.9502261 L152.984319,76.9502261 Z" id="Fill-1"></path>
                        <path d="M47.9196537,35.5321597 C47.3975565,35.0248389 46.8508321,34.5569216 46.3188841,34.0496008 C45.8558923,33.6063107 45.4126022,33.1433189 44.9545358,32.690178 C42.2947956,30.0698413 39.6350553,27.45443 36.9753151,24.8390188 C36.9162097,24.774988 36.8571044,24.7158826 36.7930736,24.6617027 C36.620683,24.5188648 36.4926215,24.5139394 36.3350072,24.6518519 C36.2069456,24.7651371 36.0838095,24.8882732 35.9655988,25.0114093 C34.6997595,26.3215777 33.4339202,27.6268206 32.1680808,28.9419144 C32.1188264,28.9960943 32.0843482,29.0699759 32.0350938,29.1487831 C32.1434536,29.2620683 32.2271861,29.3655026 32.3158442,29.4492352 C32.7886869,29.912227 33.2172006,30.4293987 33.7787013,30.7938817 C34.7687157,31.8725541 35.911419,32.7739105 36.9359115,33.8131794 C37.0688985,33.9560173 37.1920346,34.1087061 37.3447234,34.2170659 C38.049062,34.7440885 38.7090717,35.3105147 39.4626647,35.7587302 C39.5217701,35.7981337 39.5611736,35.8621645 39.6153535,35.9212698 C39.4774411,36.0247042 39.3887831,35.9655988 39.2853487,35.9311207 C38.6745936,35.7390284 38.0687638,35.5420106 37.4580087,35.3646946 C36.3744108,35.0445406 35.2661857,34.8524483 34.1727369,34.5963252 C33.8427321,34.5125926 33.5176527,34.4140837 33.1827225,34.3451275 C32.0843482,34.0988552 30.985974,33.8624339 29.8875998,33.6161616 C29.2719192,33.4782492 28.6562386,33.3354113 28.0750361,33.1974988 C26.5382973,34.7243867 25.0458874,36.2069456 23.5584031,37.6895046 C23.5189995,37.7289081 23.5140741,37.8027898 23.4894468,37.871746 C23.6372102,38.0342857 23.7849735,38.1919 23.9327369,38.3396633 C25.3118615,39.7187879 26.6860606,41.1077633 28.1242905,42.4179317 C28.8581818,43.0828668 29.5231169,43.8167581 30.2274555,44.5063203 C32.3404714,46.5799327 34.4534873,48.6486195 36.5665031,50.7173064 C36.6453102,50.7911881 36.7290428,50.845368 36.8226263,50.9291005 C36.9457624,50.8108899 37.0639731,50.7173064 37.1674074,50.6089466 C38.3396633,49.4416162 39.5119192,48.2792112 40.6693987,47.0971044 C40.9255219,46.8459067 41.1225397,46.5405291 41.3540356,46.2499278 C41.1964214,46.0824627 41.0683598,45.9346994 40.9304473,45.8066378 C40.3196922,45.2402116 39.6843098,44.6984127 39.1080327,44.0975084 C38.1574218,43.1025685 37.1033766,42.2258393 36.1281385,41.2604521 C36.0690332,41.2013468 36.0050024,41.1422415 35.9360462,41.092987 C35.3597691,40.6595479 34.7736412,40.2310342 34.1924387,39.8074459 C34.2022896,39.7631169 34.207215,39.7187879 34.2170659,39.6843098 C34.2909476,39.6892352 34.3697547,39.6744589 34.4337855,39.6990861 C34.6751323,39.7828187 34.9017027,39.9010293 35.147975,39.9699856 C36.4532179,40.3541703 37.7929389,40.5856662 39.1178836,40.8959692 C40.2310342,41.1520924 41.358961,41.3540356 42.4819625,41.590457 C43.2503319,41.7529966 44.0384031,41.856431 44.7821453,42.0928523 C45.3190188,42.2652429 45.6194709,42.0682251 45.9396248,41.7185185 C46.683367,40.915671 47.4369601,40.1226744 48.1905532,39.3346032 C48.6338432,38.8716114 49.1017605,38.4233959 49.5499759,37.9653295 C49.6731121,37.8471188 49.7765464,37.7141318 49.9193843,37.5565176 C49.7568446,37.3890524 49.6189322,37.2314382 49.4711688,37.073824 C48.9589226,36.5615777 48.4516017,36.0345551 47.9196537,35.5321597" id="Fill-2"></path>
                        <path d="M100.12937,15.7466474 C99.7156325,15.0767869 99.2723425,14.4315536 98.7009909,13.8700529 C97.8193362,13.0130255 96.7751419,12.4712266 95.602886,12.1707744 C94.7803367,11.9540548 93.952862,11.7668879 93.1155363,11.6092737 C92.2634343,11.446734 91.4310342,11.1906109 90.5789322,11.0280712 C89.613545,10.8507552 88.6678595,10.6241847 87.7123232,10.4123906 C87.2493314,10.3138817 86.7764887,10.1808947 86.2740933,10.1808947 C86.12633,10.8162771 85.9834921,11.4368831 85.8505051,12.0525637 C85.6879654,12.8012314 85.5303511,13.5449735 85.3678114,14.2887157 C85.1904954,15.1161905 84.9984031,15.9436652 84.8210871,16.7760654 C84.6683983,17.5001058 84.5452621,18.2339971 84.3876479,18.9580375 C84.200481,19.8101395 83.978836,20.6425397 83.7965945,21.4946417 C83.5158442,22.8245118 83.2646465,24.1543819 82.9838961,25.484252 C82.8016546,26.3314286 82.5898605,27.1736797 82.3879173,28.0208562 C82.3780664,28.0602597 82.3780664,28.0996633 82.3731409,28.1439923 C82.3583646,28.3360847 82.4617989,28.4789226 82.6440404,28.5183261 C82.816431,28.5528042 82.9838961,28.572506 83.1513612,28.6119096 C83.9985378,28.794151 84.8506397,28.9911688 85.6928908,29.1783357 C86.6090236,29.3753535 87.5202309,29.5723713 88.4314382,29.7644637 C88.5348725,29.7890909 88.6333814,29.7940164 88.7565176,29.8087927 C88.8205483,29.6511785 88.8993555,29.513266 88.9289081,29.3753535 C89.027417,28.8975854 89.0914478,28.4148918 89.204733,27.9420491 C89.5101106,26.7254642 89.7711592,25.5039538 89.9977297,24.277518 C90.0075806,24.2233381 90.0765368,24.1839346 90.1356421,24.1199038 C90.1701203,24.1937855 90.2095238,24.2430399 90.2144493,24.2972198 C90.4804233,25.3020106 90.7414719,26.3068013 90.997595,27.3115921 C91.2241655,28.2227994 91.4310342,29.1241558 91.6477537,30.0353632 C91.7265608,30.365368 91.9235786,30.5476094 92.2634343,30.5968639 C92.4308995,30.6214911 92.5934392,30.6658201 92.7609043,30.7002982 C93.5686772,30.8825397 94.3764502,31.0500048 95.1891486,31.2223954 C96.1249832,31.4243386 97.0509668,31.6312073 97.9868013,31.8282251 C98.4497932,31.926734 98.912785,32.0695719 99.4348822,32.0449447 C99.2772679,31.66076 99.13443,31.3061279 98.9965176,30.9465705 C98.6369601,30.0353632 98.282328,29.1241558 97.927696,28.2129485 C97.6272439,27.4347282 97.3267917,26.6663588 97.0214141,25.893064 C96.7554401,25.2133526 96.5042424,24.5385666 95.957518,23.9918422 C96.0855796,23.7307937 96.2727465,23.7652718 96.4352862,23.7701972 C96.8884271,23.7800481 97.3366426,23.6963155 97.75038,23.5387013 C98.5433766,23.2382492 99.1738336,22.7309283 99.6417508,21.9921116 C100.242655,21.0464262 100.533256,20.0120827 100.651467,18.9334103 C100.754901,17.9729485 100.641616,17.0124868 100.277133,16.1062049 C100.232804,15.9830688 100.193401,15.8599327 100.12937,15.7466474 L100.12937,15.7466474 Z M93.9725637,18.642809 C93.9380856,18.9678884 93.8100241,19.1993843 93.6130063,19.4358057 C93.3913612,19.7017797 93.10076,19.8396922 92.790457,19.8790957 C92.1944781,19.9628283 91.6083502,19.8889466 91.0271477,19.5786436 C91.2438672,18.5935546 91.4605868,17.6133911 91.6871573,16.5691967 C92.0664165,16.6578547 92.3767196,16.7218855 92.6820972,16.7957672 C93.6819625,17.037114 94.0759981,17.6183165 93.9725637,18.642809 L93.9725637,18.642809 Z" id="Fill-3"></path>
                        <path d="M36.2709764,51.2295527 C35.8178355,51.2738817 35.36962,51.0571621 34.8721501,51.0817893 C34.1825878,51.111342 33.4930255,51.0916402 32.8083886,51.0867148 C32.6556999,51.0867148 32.4931602,51.1162674 32.3601732,51.0620875 C32.0498701,50.934026 31.7297162,50.9635786 31.4095623,50.9635786 C30.764329,50.9586532 30.1190957,50.9635786 29.4738624,50.9586532 C29.3260991,50.9586532 29.158634,50.9882059 29.0305724,50.934026 C28.6759404,50.7911881 28.3114574,50.8355171 27.9469745,50.8305916 C27.3460702,50.8256662 26.7451659,50.8305916 26.1442617,50.8305916 C25.9964983,50.8256662 25.8290332,50.8601443 25.6960462,50.8059644 C25.3020106,50.6582011 24.8931987,50.7074555 24.4893122,50.7025301 C23.9081097,50.6976046 23.3269072,50.7025301 22.7506301,50.7025301 C22.5979413,50.7025301 22.4354016,50.7271573 22.3024146,50.6729774 C21.9871861,50.5449158 21.6670322,50.5793939 21.3518038,50.5744685 L19.4161039,50.5744685 C19.2683405,50.5744685 19.1107263,50.5892448 18.9728139,50.5498413 C18.1847427,50.3281962 17.3966715,50.4956614 16.6135257,50.4464069 C16.5199423,50.6089466 16.4312843,50.7370082 16.3771044,50.8699952 C15.5102261,53.0273401 14.6531987,55.1797595 13.7666186,57.3863588 C13.8897547,57.5242713 13.9587109,57.6474074 14.0621453,57.7065127 C14.3527465,57.8592015 14.5596152,58.1103992 14.7960366,58.3271188 C15.1900722,58.6817508 15.5594805,59.0757864 15.9978451,59.3762386 C16.5150168,59.7259452 16.9090524,60.2135642 17.4114478,60.5780471 C17.9286195,60.952381 18.3669841,61.4301491 18.8447523,61.8586628 C18.8890813,61.8980664 18.9383357,61.9473208 18.9875902,61.9867244 C19.4161039,62.336431 19.8692448,62.6615103 20.2682059,63.0407696 C20.9035883,63.6416739 21.5882251,64.1834728 22.2482347,64.7597499 C22.9033189,65.3409524 23.5584031,65.9221549 24.2282636,66.4787302 C24.7208081,66.8875421 25.1788745,67.340683 25.6517172,67.7691967 C25.7206734,67.8283021 25.7797787,67.882482 25.848735,67.9415873 C26.3068013,68.3208466 26.7697932,68.6902549 27.2229341,69.0793651 C27.6908514,69.4832516 28.1489177,69.9019144 28.6119096,70.3107263 C28.6365368,70.3353535 28.6907167,70.3304281 28.7695238,70.340279 C29.2571429,69.2714574 29.6708802,68.1583069 30.1092448,67.0500818 C30.5476094,65.9517076 31.030303,64.8631842 31.4046368,63.7303319 C30.8135835,63.1688312 30.0255123,62.912708 29.4935642,62.292102 C29.8186436,61.4941799 30.1289466,60.720885 30.4491005,59.9623665 C30.7692544,59.1989226 30.9958249,58.396075 31.3997114,57.7015873 C31.838076,57.6129293 32.2074844,57.6966619 32.5867436,57.775469 C32.956152,57.8493506 33.3403367,57.8345743 33.763925,57.8690524 C34.6505051,55.7806638 35.4385762,53.6430207 36.3251563,51.5447811 C36.3448581,51.4856758 36.3350072,51.421645 36.3350072,51.3576142 C36.3350072,51.3379125 36.3153054,51.3182107 36.2709764,51.2295527 L36.2709764,51.2295527 Z M26.5333718,57.7212891 C26.2575469,58.2680135 26.1393362,58.8886195 25.7847042,59.4156421 C25.4152958,59.3319096 25.1690236,59.0856373 24.8981241,58.893545 C24.1051275,58.3221934 23.3269072,57.73114 22.5240596,57.1696392 C22.0512169,56.8494853 21.5389707,56.5835113 21.0415007,56.2978355 C21.0513516,56.2584319 21.0612025,56.2141029 21.0661279,56.1746994 C21.1449351,56.159923 21.2286676,56.1205195 21.2926984,56.1402213 C21.9231554,56.3323136 22.583165,56.3815681 23.2234728,56.5194805 C23.9524387,56.6623184 24.6961809,56.701722 25.4251467,56.8544108 C25.7699278,56.9332179 26.1393362,56.9381433 26.4890428,57.0268013 C26.5481481,57.0415777 26.602328,57.0760558 26.6909861,57.1203848 C26.6417316,57.3272535 26.6220298,57.5439731 26.5333718,57.7212891 L26.5333718,57.7212891 Z" id="Fill-4"></path>
                        <path d="M79.9104185,24.2725926 C79.329216,23.203771 78.7480135,22.1300241 78.1766619,21.0562771 C77.7826263,20.3223858 77.3935161,19.5884945 77.004406,18.8447523 C76.9699278,18.7856469 76.9502261,18.7314671 76.915748,18.6723617 C76.462607,17.8498124 76.0045406,17.0321886 75.5513997,16.2047138 C75.1967677,15.5496296 74.8519865,14.8846946 74.4973545,14.2296104 C73.9949591,13.3036267 73.4925637,12.387494 72.9852429,11.4713612 C72.8227032,11.1758345 72.6503127,10.8852333 72.4729966,10.5847811 C72.1331409,10.6094084 71.8080616,10.6192593 71.4977585,10.6635883 C71.0741703,10.7226936 70.6604329,10.8015007 70.2417701,10.8803078 C69.8674363,10.9541895 69.4684752,10.9640404 69.1039923,11.0428475 C68.4193555,11.2004618 67.7150168,11.225089 67.03038,11.3925541 C66.7693314,11.4565849 66.488581,11.4812121 66.2127561,11.5255411 C65.8187205,11.5846465 65.4197595,11.6339009 65.0257239,11.6930063 C63.853468,18.1896681 62.6861376,24.6469264 61.5188071,31.1091101 L62.1689658,31.1091101 C62.2132949,31.1091101 62.2576239,31.1091101 62.2970274,31.1041847 C62.3413564,31.1041847 62.3856854,31.1041847 62.4300144,31.0943338 C62.8782299,30.9514959 63.3461472,30.9317941 63.8042136,30.8431361 C64.1588456,30.7741799 64.5233285,30.7397018 64.8779606,30.6953728 C65.2572198,30.6461183 65.6266282,30.498355 66.000962,30.4835786 C66.7299278,30.454026 67.4194901,30.1979028 68.1533814,30.1929774 C68.281443,30.1929774 68.4193555,30.0846176 68.4883117,30.0550649 C68.7493603,29.5034151 68.7001058,28.9862434 68.7050313,28.4739971 C68.7050313,28.3459355 68.7001058,28.217874 68.7050313,28.0898124 C68.724733,27.7598076 68.8084656,27.676075 69.1236941,27.631746 C69.79848,27.5480135 70.473266,27.45443 71.1431265,27.3608466 C71.3302934,27.3362193 71.5174603,27.277114 71.7095527,27.2475613 C72.12329,27.1835305 72.5518038,27.1490524 72.9606157,27.0456181 C73.2659933,26.9766619 73.5516691,26.9865127 73.8422703,27.0308418 C73.9013757,27.1194998 73.9555556,27.188456 73.9900337,27.2623377 C74.2067532,27.7499567 74.4333237,28.2326503 74.6254161,28.7301203 C74.7091486,28.9468398 74.8224339,29.0453487 75.0391534,29.0453487 C75.1524387,29.0453487 75.2607985,29.0601251 75.3642328,29.0453487 C76.0340933,28.9419144 76.7039538,28.8335546 77.3738143,28.7202694 C77.4969505,28.7005676 77.6299375,28.6808658 77.7530736,28.661164 C78.1520346,28.6119096 78.5559211,28.572506 78.9499567,28.4986243 C79.4326503,28.4099663 79.9153439,28.3410101 80.3980375,28.262203 C80.8955075,28.1833959 81.4126792,28.1784704 81.9150746,27.9272727 C81.7722367,27.676075 81.6293987,27.4396537 81.5013372,27.1983069 C80.9693891,26.2230688 80.4374411,25.2478307 79.9104185,24.2725926 L79.9104185,24.2725926 Z M69.4290717,23.1052621 C69.310861,22.8294372 69.310861,22.5585378 69.3896681,22.3221164 C69.4635498,22.0906205 69.4783261,21.8689755 69.4783261,21.6325541 C69.4832516,21.3074747 69.4487734,20.9922463 69.5866859,20.6770178 C69.6359404,20.5735835 69.6063877,20.4258201 69.6063877,20.2977585 C69.6162386,20.0022318 69.6605676,19.7067051 69.6901203,19.4111785 C69.7640019,18.8250505 69.8329582,18.2192208 69.6408658,17.6330928 C69.6260895,17.5936893 69.621164,17.5444348 69.6310149,17.5099567 C69.6359404,17.4705532 69.6556421,17.4065224 69.6802694,17.3966715 C69.7344493,17.3818951 69.8083309,17.3818951 69.8575854,17.4114478 C69.9019144,17.4410005 69.9560943,17.5001058 69.9708706,17.5542857 C70.2220683,18.6378836 70.7293891,19.627898 71.1382011,20.6523906 C71.4041751,21.3025493 71.6602982,21.9576335 71.9558249,22.6964502 C71.0593939,22.849139 70.2466955,22.9772006 69.4290717,23.1052621 L69.4290717,23.1052621 Z" id="Fill-5"></path>
                        <path d="M147.320058,64.0061568 C147.300356,63.5825685 147.265878,63.1639057 147.211698,62.735392 C147.083636,61.8044829 146.857066,60.8982011 146.531987,60.0263973 C146.305416,59.4304185 146.059144,58.8393651 145.719288,58.2877152 C145.211967,57.4799423 144.591361,56.7854545 143.921501,56.1303704 C143.561943,55.7806638 143.187609,55.4703608 142.773872,55.2043867 C141.961174,54.6921405 141.104146,54.2833285 140.173237,54.0124291 C139.360539,53.7710823 138.557691,53.6479461 137.71544,53.6676479 C137.414988,53.6725734 137.114536,53.6824242 136.814084,53.6627225 C136.296912,53.6233189 135.794517,53.7513805 135.297047,53.8449639 C134.538528,53.9730255 133.814488,54.2537759 133.124925,54.5887061 C132.420587,54.9334873 131.765503,55.3669264 131.125195,55.8446946 C130.51444,56.3076864 130.031746,56.8741126 129.588456,57.4651659 C128.992477,58.2680135 128.52456,59.159519 128.214257,60.1298316 C128.08127,60.5583454 127.948283,60.9917845 127.894103,61.4252237 C127.825147,61.9916498 127.682309,62.5482251 127.716787,63.1343531 C127.741414,63.5185378 127.815296,63.897797 127.844848,64.2770563 C127.889177,64.9616931 128.032015,65.6266282 128.258586,66.266936 C128.603367,67.2273978 128.997403,68.1829341 129.509649,69.0695142 C129.795325,69.5620587 130.07115,70.074305 130.489812,70.5126696 C131.046388,70.3452044 131.602963,70.1925156 132.149687,70.0299759 C132.696412,69.8674363 133.248062,69.6950457 133.799711,69.5275806 C134.346436,69.3601154 134.898086,69.1926503 135.44481,69.0202597 C135.976758,68.8577201 136.54811,68.7838384 137.119461,68.4489081 C136.61214,68.1533814 136.218105,67.8283021 135.809293,67.5327754 C135.321674,67.1830688 134.996595,66.7250024 134.72077,66.222607 C134.326734,65.5281193 134.095238,64.7745262 134.16912,63.9519769 C134.174045,63.9174988 134.174045,63.8682443 134.16912,63.8288408 C134.129716,63.4298797 134.243001,63.0653968 134.425243,62.7156902 C134.592708,62.3955363 134.770024,62.0803078 134.962116,61.7700048 C135.050774,61.6271669 135.168985,61.4941799 135.297047,61.3858201 C135.769889,60.9720827 136.321539,60.7011833 136.927369,60.5484945 C137.198268,60.4795382 137.469168,60.3859548 137.740067,60.3958057 C138.070072,60.410582 138.405002,60.5090909 138.730082,60.5928235 C139.365464,60.7602886 139.892487,61.0902934 140.350553,61.5779125 C140.803694,62.0606061 141.094295,62.6171813 141.256835,63.2427128 C141.493256,64.1292929 141.458778,65.0109476 141.153401,65.8827513 C141.010563,66.3063396 140.882501,66.7299278 140.719962,67.2323232 C141.237133,67.2126215 141.626243,67.0205291 142.015354,66.8776912 C143.217162,66.444252 144.414045,65.9861857 145.615854,65.5478211 C146.108398,65.3606542 146.615719,65.1882636 147.113189,65.0010967 C147.344685,64.9222896 147.433343,64.749899 147.389014,64.5085522 C147.364387,64.3410871 147.324983,64.1736219 147.320058,64.0061568" id="Fill-6"></path>
                        <path d="M115.122424,33.5028764 C115.142126,33.4634728 115.156902,33.4240693 115.166753,33.3797403 C115.171679,33.3600385 115.156902,33.3452621 115.151977,33.3157095 C115.117499,33.310784 115.083021,33.2960077 115.048543,33.2960077 C114.728389,33.2960077 114.41316,33.3797403 114.102857,33.4142184 C113.575835,33.4683983 113.043886,33.4289947 112.511938,33.3206349 C111.324906,33.0645118 110.36937,32.4931602 109.729062,31.4489658 C109.443386,30.9761231 109.216816,30.4688023 109.172487,29.8974507 C109.113381,29.1389322 109.261145,28.4247427 109.635479,27.7450313 C110.009812,27.0653199 110.571313,26.5875517 111.236248,26.2427706 C111.945512,25.8782876 112.733583,25.9324675 113.501953,25.9669456 C113.58076,25.9718711 113.659567,26.0309764 113.7433,26.0556037 C115.18153,26.4841174 116.077961,27.4839827 116.644387,28.8335546 C116.802001,29.2177393 116.939913,29.6068494 117.112304,30.0649158 C117.210813,29.9220779 117.274844,29.8481962 117.319173,29.7546128 C117.462011,29.4935642 117.590072,29.2226647 117.73291,28.9566907 C118.06784,28.3607119 118.407696,27.7745839 118.742626,27.1786051 C119.151438,26.4496392 119.56025,25.7255988 119.964137,24.996633 C120.141453,24.6764791 120.289216,24.3415488 120.451756,24.0213949 C120.530563,23.8687061 120.525637,23.7258682 120.402501,23.6076575 C119.919808,23.1200385 119.466667,22.5930159 118.934719,22.1645022 C118.033362,21.4503127 117.048273,20.8543338 116.009004,20.3519384 C114.890928,19.8199904 113.733449,19.5293891 112.497162,19.5146128 C112.152381,19.5146128 111.812525,19.5195382 111.467744,19.5146128 C110.714151,19.5047619 109.990111,19.6525253 109.270996,19.8593939 C108.172621,20.1795479 107.187532,20.7361231 106.251698,21.376431 C105.38482,21.9773353 104.700183,22.760481 104.084502,23.6175084 C103.710168,24.144531 103.414642,24.7158826 103.138817,25.2921597 C102.631496,26.3412795 102.331044,27.4347282 102.340895,28.6119096 L102.340895,29.9614815 C102.340895,30.3702934 102.365522,30.764329 102.464031,31.1682155 C102.749707,32.3404714 103.227475,33.4240693 103.872708,34.4387109 C104.22734,35.0002116 104.700183,35.4681289 105.1681,35.9409716 C105.82811,36.620683 106.571852,37.1723329 107.423954,37.5959211 C107.803213,37.7880135 108.192323,37.9653295 108.561732,38.1623473 C109.167561,38.4923521 109.812795,38.7189226 110.467879,38.9060895 C110.827436,39.0095238 111.186994,39.1917653 111.620433,39.0440019 C112.753285,37.2659163 113.895988,35.4730544 115.038692,33.675267 C115.07317,33.6210871 115.097797,33.5619817 115.122424,33.5028764" id="Fill-7"></path>
                        <path d="M124.397037,41.4623954 C124.810774,41.1274651 125.155556,40.7038769 125.53974,40.3393939 C126.224377,39.6892352 126.918865,39.0489274 127.608427,38.413545 C127.63798,38.3839923 127.687234,38.3790669 127.761116,38.3495142 C127.933506,38.4430976 128.066494,38.6056373 128.204406,38.768177 C128.598442,39.2410197 128.997403,39.708937 129.391438,40.1867051 C129.539202,40.3640212 129.682039,40.5511881 129.829803,40.7334295 C129.938163,40.8565657 130.021895,41.0240308 130.253391,40.9994036 C130.814892,40.4970082 131.391169,39.9896873 131.947744,39.4626647 C132.450139,38.989822 132.918057,38.4825012 133.410601,38.0096585 C133.592843,37.8323425 133.809562,37.6845791 134.001655,37.517114 C134.208523,37.339798 134.430168,37.1723329 134.553304,36.9014334 C134.351361,36.6354594 134.178971,36.3645599 133.962251,36.133064 C133.070746,35.1873785 132.095507,34.3057239 131.248331,33.3058586 C130.519365,32.4389803 129.642636,31.7100144 128.908745,30.8431361 C128.08127,29.8629726 127.066628,29.0551996 126.25393,28.0454834 C125.904223,27.6120443 125.475709,27.2475613 125.081674,26.8584512 C124.98809,26.7697932 124.889582,26.6959115 124.795998,26.6220298 C124.411813,26.7894949 124.126138,27.0456181 123.860164,27.321443 C123.530159,27.6612987 123.195228,27.996229 122.855373,28.3262338 C122.569697,28.616835 122.313574,28.9468398 121.988494,29.1783357 C121.466397,29.5428187 121.072362,30.0156614 120.619221,30.4441751 C120.530563,30.5229822 120.461607,30.6362674 120.358172,30.7594036 C120.826089,31.2026936 121.2152,31.6804618 121.72252,32.0547956 C122.21999,32.4192785 122.628802,32.8921212 123.052391,33.3649639 C122.924329,33.5176527 122.815969,33.6506397 122.697759,33.763925 C122.106705,34.3599038 121.505801,34.9361809 120.875344,35.4779798 C120.033093,36.2118711 119.309052,37.0541222 118.45695,37.783088 C117.501414,38.6007119 116.68379,39.5710245 115.708552,40.3886484 C115.137201,40.871342 114.634805,41.4426936 114.107783,41.9746417 C114.019125,42.0632997 113.950168,42.1618086 113.881212,42.2406157 C113.91569,42.3194228 113.925541,42.3686772 113.955094,42.3933045 C114.797345,43.2749591 115.693776,44.1024339 116.476922,45.0481193 C116.831554,45.4717076 117.260067,45.8411159 117.654103,46.2351515 C117.89545,46.4764983 118.136797,46.7129197 118.368292,46.9444156 C118.732775,46.8853102 118.915017,46.6932179 119.102184,46.5159019 C119.969062,45.6933526 120.78176,44.8116979 121.692968,44.0236267 C122.633728,43.2207792 123.43165,42.2504666 124.397037,41.4623954" id="Fill-8"></path>
                        <path d="M57.1400866,27.0702453 C56.6623184,26.1393362 56.159923,25.218278 55.6920058,24.2824435 C55.2093122,23.3269072 54.7118422,22.3861472 54.2488504,21.3616546 C54.8399038,21.0809043 55.4211063,20.878961 55.9579798,20.6031361 C56.5096296,20.3223858 57.1351611,20.1943242 57.6129293,19.8002886 C57.4799423,19.3028187 55.2536412,14.845291 54.9039346,14.3822992 C54.7019913,14.4808081 54.4901972,14.579317 54.2833285,14.6827513 C52.5692737,15.5594805 50.8404425,16.4115825 49.1362386,17.3129389 C46.9985955,18.4408658 44.8116979,19.4801347 42.6494276,20.568658 C42.5016643,20.6425397 42.3637518,20.7361231 42.2258393,20.8198557 C42.255392,20.9380664 42.2701684,21.0316498 42.3046465,21.1006061 C43.1173449,22.7309283 43.9300433,24.3612506 44.7525926,25.9866474 C44.7969216,26.0753054 44.8855796,26.1393362 44.9594613,26.2082924 C46.0726118,25.6172391 47.1168062,24.9572294 48.2693603,24.3957287 C50.1853583,28.2030976 52.0471765,31.9759885 53.9582492,35.7538047 C54.554228,35.6454449 55.0073689,35.3006638 55.5097643,35.0790188 C56.0121597,34.8475228 56.5047042,34.5864743 56.9972487,34.3352766 C57.4996441,34.0840789 57.9921886,33.8328812 58.4896585,33.5767581 C58.982203,33.3304858 59.4993747,33.1383935 59.9771429,32.778836 C59.5437037,31.8035979 59.0413083,30.8825397 58.5832419,29.9417797 C58.1054738,28.9862434 57.6277056,28.0208562 57.1400866,27.0702453" id="Fill-9"></path>
                        <path d="M131.34684,51.9338913 C132.090582,51.4758249 132.834324,51.0177585 133.578066,50.5596922 C134.390765,50.0572968 135.208389,49.5549014 136.021087,49.0475806 C136.43975,48.786532 136.848562,48.520558 137.262299,48.2644348 C138.296643,47.624127 139.335911,46.99367 140.370255,46.3582876 C140.419509,46.328735 140.439211,46.2597787 140.48354,46.1908225 C140.404733,46.0824627 140.325926,45.9839538 140.261895,45.8805195 C139.725022,45.0087157 139.188148,44.136912 138.651275,43.2601828 C138.365599,42.7922655 138.079923,42.3194228 137.794247,41.8416546 C137.557826,41.4623954 137.331255,41.0782107 137.089909,40.7038769 C136.976623,40.5216354 136.814084,40.4871573 136.646619,40.5856662 C135.947205,41.0289562 135.242867,41.4722463 134.538528,41.9106109 C134.050909,42.2159885 133.56329,42.521366 133.075671,42.8218182 C132.420587,43.2257047 131.770428,43.6246657 131.115344,44.0334776 C130.376527,44.491544 129.63771,44.9643867 128.893968,45.4224531 C127.859625,46.0578355 126.820356,46.683367 125.786013,47.313824 C124.569428,48.0624916 123.357768,48.8160847 122.146109,49.5746032 C121.771775,49.8060991 121.407292,50.0622222 121.003405,50.3281962 C122.190438,52.273747 123.37747,54.1897451 124.603906,56.1303704 C125.456008,55.5984223 126.224377,55.1058778 126.997672,54.6182588 C127.376931,54.3818374 127.766041,54.1503415 128.145301,53.9188456 C129.209197,53.258836 130.278018,52.5939009 131.34684,51.9338913" id="Fill-10"></path>
                        <path d="M88.4265127,78.5854738 C88.4708418,77.7678499 88.2984512,76.9748533 88.1408369,76.1867821 C88.0620298,75.7582684 88.0374026,75.344531 88.0374026,74.9160173 C88.0324772,74.5318326 88.0127754,74.1427225 88.042328,73.7634632 C88.0669553,73.4088312 87.9585955,73.0837518 87.8847138,72.753747 C87.8108321,72.4237422 87.5005291,72.2858297 87.1853006,72.399115 C86.5548437,72.6306109 86.3873785,72.8177778 86.2396152,73.4827128 C86.1657335,73.7930159 86.1214045,74.1082443 86.082001,74.4234728 C85.9884175,75.0736316 85.8111015,75.7090139 85.7273689,76.3591727 C85.6485618,76.9699278 85.5007985,77.5659067 85.3875132,78.166811 C85.2988552,78.6445791 85.1904954,79.1174218 85.0821356,79.6099663 C85.1757191,79.639519 85.2545262,79.683848 85.3333333,79.6887734 C85.9194613,79.7380279 88.086657,79.6936989 88.5200962,79.6247427 C88.5545743,79.3538432 88.5742761,79.1272727 88.4757672,78.9007023 C88.4363636,78.8021934 88.4215873,78.6938336 88.4265127,78.5854738" id="Fill-11"></path>
                    </g>
                </g>
            </g>
        </g>
    </g>
</svg>