<?xml version="1.0" encoding="UTF-8" standalone="no"?>
<!-- Created with Inkscape (http://www.inkscape.org/) -->

<svg
   xmlns:dc="http://purl.org/dc/elements/1.1/"
   xmlns:cc="http://creativecommons.org/ns#"
   xmlns:rdf="http://www.w3.org/1999/02/22-rdf-syntax-ns#"
   xmlns:svg="http://www.w3.org/2000/svg"
   xmlns="http://www.w3.org/2000/svg"
   xmlns:sodipodi="http://sodipodi.sourceforge.net/DTD/sodipodi-0.dtd"
   xmlns:inkscape="http://www.inkscape.org/namespaces/inkscape"
   width="72.37043mm"
   height="54.868134mm"
   viewBox="0 0 256.43052 194.41453"
   id="svg3491"
   version="1.1"
   inkscape:version="0.91 r13725"
   sodipodi:docname="cassette and crossbones.svg">
  <defs
     id="defs3493" />
  <sodipodi:namedview
     id="base"
     pagecolor="#ffffff"
     bordercolor="#666666"
     borderopacity="1.0"
     inkscape:pageopacity="0.0"
     inkscape:pageshadow="2"
     inkscape:zoom="1.979899"
     inkscape:cx="175.32954"
     inkscape:cy="103.99155"
     inkscape:document-units="px"
     inkscape:current-layer="layer1"
     showgrid="false"
     width="296mm"
     fit-margin-top="1"
     fit-margin-left="1"
     fit-margin-right="1"
     fit-margin-bottom="1"
     inkscape:window-width="1366"
     inkscape:window-height="687"
     inkscape:window-x="0"
     inkscape:window-y="29"
     inkscape:window-maximized="1" />
  <metadata
     id="metadata3496">
    <rdf:RDF>
      <cc:Work
         rdf:about="">
        <dc:format>image/svg+xml</dc:format>
        <dc:type
           rdf:resource="http://purl.org/dc/dcmitype/StillImage" />
        <dc:title></dc:title>
      </cc:Work>
    </rdf:RDF>
  </metadata>
  <g
     inkscape:label="Layer 1"
     inkscape:groupmode="layer"
     id="layer1"
     transform="translate(3.6005852,-860.9089)">
    <path
       d="m 29.672696,1051.5392 c -1.79624,-0.5043 -3.203,-1.7112 -4.19992,-3.6034 l -0.51115,-0.9701 0.0918,-6.0562 c 0.0503,-3.3309 0.0879,-6.9647 0.0831,-8.075 l -0.009,-2.0187 -1.15503,-2.5693 c -2.13981,-4.76 -2.95866,-7.7975 -2.95411,-10.9578 0.005,-2.3022 0.34372,-3.8325 1.22595,-5.5115 1.81669,-3.4571 6.76229,-6.5654 10.48548,-6.5901 1.1507,-0.01 1.51615,0.075 2.52887,0.5739 2.02211,0.9955 3.71778,3.0498 4.64614,5.6287 0.21254,0.5906 0.7473,2.6016 1.18833,4.469 l 0.80183,3.3951 2.26933,-0.023 c 2.33164,-0.023 4.69079,-0.3416 22.27325,-3.0021 4.03753,-0.611 11.63537,-1.7544 16.88414,-2.541 l 9.5432,-1.4302 0.0482,-0.6311 c 0.0268,-0.3471 -0.0241,-0.7411 -0.11176,-0.8754 -0.19568,-0.2994 -2.61027,-0.7181 -9.11229,-1.5803 -2.72529,-0.3614 -6.23519,-0.8609 -7.79968,-1.1101 -1.56454,-0.2491 -6.51967,-0.9927 -11.0114,-1.6524 -4.49173,-0.6596 -9.69457,-1.4437 -11.56194,-1.7424 -3.51178,-0.5617 -6.2906,-0.9644 -12.11254,-1.7555 -1.86732,-0.2537 -4.59262,-0.6619 -6.05622,-0.9071 -5.8844,-0.986 -9.89324,-1.3927 -10.37795,-1.053 -0.3145,0.2205 -0.91182,1.1437 -2.11439,3.2681 -1.69519,2.9945 -2.98868,4.7483 -4.9342,6.6897 -2.70496,2.6993 -4.66905,3.5591 -8.0832002,3.5389 -3.2690399,-0.02 -5.8931259,-1.1363 -8.0367859,-3.4204 -2.27618999,-2.4254 -2.22795999,-4.0638 0.2635,-8.9583 1.22038,-2.39735 2.45784,-4.26319 4.584206,-6.91211 0.89604,-1.11623 1.90725,-2.48866 2.24723,-3.04988 l 0.61798,-1.02038 -0.59336,-3.2589 c -1.23574,-6.78734 -0.63687,-10.47312 2.1931201,-13.49707 1.87872,-2.00754 4.16754,-3.07384 7.37915,-3.43765 2.02661,-0.22955 3.40831,-0.0309 4.96894,0.71493 3.65795,1.74776 4.94978,4.58797 5.46992,12.02586 0.24,3.43142 0.41706,4.09275 1.2206,4.56087 0.41989,0.24455 4.65525,1.01548 14.95714,2.72243 7.90422,1.30966 19.20261,3.20118 25.10746,4.20338 23.9687,4.06807 37.938984,6.35122 47.257174,7.72352 2.7253,0.4014 6.6894,1.0248 8.80908,1.3854 5.26514,0.8956 7.57623,0.9119 11.92901,0.084 9.13578,-1.7368 61.22418,-13.08153 72.12458,-15.70855 1.51401,-0.36484 4.48632,-1.03705 6.60509,-1.49375 4.03031,-0.86864 5.58853,-1.43344 6.09732,-2.20996 0.16587,-0.25312 0.3683,-0.94845 0.44997,-1.54515 0.36819,-2.69243 1.79416,-6.70042 3.07904,-8.6545 2.73204,-4.15483 6.89439,-5.95144 11.66401,-5.03454 1.91619,0.36837 2.69008,0.71189 3.69932,1.64216 1.60623,1.48062 2.18123,3.25543 2.15511,6.65246 -0.0161,2.07501 -0.1193,2.85192 -0.79343,5.96446 -0.4436,2.04856 -0.78015,4.09721 -0.787,4.79136 -0.0145,1.49571 0.24112,2.07933 2.73825,6.24459 2.44676,4.08117 3.87118,6.96182 4.11691,8.32562 0.25139,1.3955 0.10651,3.8914 -0.268,4.6156 -0.89132,1.7237 -4.58261,3.197 -8.02806,3.2044 -3.18555,0.01 -5.52735,-0.8551 -7.99885,-2.9441 -1.48297,-1.2534 -2.10105,-1.9932 -3.8328,-4.587 -1.13908,-1.7062 -1.39198,-1.9752 -2.1533,-2.2907 l -0.86268,-0.3575 -1.97598,0.413 c -1.08679,0.2271 -3.17345,0.6073 -4.63704,0.8448 -1.4636,0.2375 -4.14763,0.7248 -5.96448,1.0828 -1.8169,0.358 -7.51526,1.392 -12.66308,2.2978 -17.79248,3.1305 -20.01348,3.5276 -22.29802,3.9865 -3.03873,0.6104 -3.76306,1.1043 -2.67001,1.8205 0.78471,0.5142 2.08227,0.8036 6.51614,1.4534 2.37633,0.3482 6.43789,0.9657 9.02564,1.3722 8.20153,1.2883 13.34346,2.0267 14.11286,2.0267 1.17997,0 1.71606,-0.415 3.14193,-2.4323 1.5352,-2.172 4.67617,-5.3852 6.36707,-6.5135 1.49903,-1.0002 2.64791,-1.332 4.6029,-1.3293 2.48343,0 4.08179,0.5713 6.3856,2.2686 1.32031,0.9728 2.26082,2.1678 2.83475,3.602 0.53941,1.3478 0.58913,4.8158 0.0802,5.5926 -0.17646,0.2692 -0.44001,0.8274 -0.58575,1.2405 -0.51035,1.4464 -2.58234,4.4297 -5.18208,7.4612 -1.66602,1.9427 -1.45251,1.2206 -1.87797,6.3521 -0.66979,8.0785 -2.27426,11.8745 -5.73995,13.5802 -1.66709,0.8206 -3.58863,1.2217 -5.82253,1.2157 -3.51273,-0.01 -5.30239,-0.8261 -6.88417,-3.1412 -1.43859,-2.1054 -1.72141,-3.2627 -2.25161,-9.2131 -0.0984,-1.1051 -0.27276,-1.9537 -0.4602,-2.2398 -0.42123,-0.6427 -2.29588,-1.1993 -7.49454,-2.225 -2.35396,-0.4644 -5.51863,-1.1271 -7.03275,-1.4728 -1.51402,-0.3456 -4.81747,-1.0363 -7.34088,-1.5348 -4.49955,-0.889 -10.03659,-2.0426 -18.62761,-3.8812 -2.37199,-0.5077 -5.38637,-1.1349 -6.69855,-1.3939 -1.31223,-0.2589 -3.65805,-0.7563 -5.21306,-1.1052 -1.55496,-0.349 -4.40411,-0.9541 -6.33149,-1.3449 -1.92737,-0.3907 -4.49537,-0.9292 -5.70665,-1.1968 -2.84584,-0.6285 -3.85641,-0.6062 -8.09893,0.1787 -4.30237,0.796 -26.31661,5.1807 -29.982054,5.9718 -4.49098,0.9691 -20.28163,4.2021 -33.12594,6.782 -3.02814,0.6083 -6.37281,1.3083 -7.43268,1.5556 -1.05987,0.2474 -2.54642,0.5438 -3.3034,0.6588 -0.75704,0.1151 -2.11974,0.4045 -3.02814,0.6432 -0.90845,0.2388 -2.59577,0.6103 -3.74962,0.8257 -2.32602,0.4341 -3.29303,0.8388 -3.82307,1.5997 -0.57618,0.8272 -0.76281,1.6067 -1.15171,4.8105 -0.20285,1.6716 -0.53293,3.6421 -0.73343,4.3788 -0.71593,2.6313 -2.00263,4.5493 -3.59452,5.3583 -0.83304,0.4234 -1.10627,0.4579 -3.92352,0.4956 -2.23434,0.03 -3.28452,-0.032 -4.00628,-0.2342 z m 22.26682,-65.95459 -10.46081,-0.099 -1.37641,-0.70963 c -5.21825,-2.69038 -7.22415,-5.93968 -7.79984,-12.635 l -0.12171,-1.4156 -1.52312,-0.83027 -1.52316,-0.83027 -0.13617,-8.71634 c -0.17539,-11.22656 0.008,-19.77772 0.43499,-20.2876 0.16501,-0.19692 0.87805,-0.58768 1.58461,-0.86829 l 1.28467,-0.51017 0.11817,-1.64926 c 0.0651,-0.90711 0.12702,-15.42274 0.13772,-32.257 l 0.0198,-30.60769 0.572,-1.14178 c 2.32795,-4.64684 6.55741,-8.03033 10.5114,-8.4089 0.81831,-0.0783 37.68495,-0.14766 81.925814,-0.15401 l 80.43787,-0.0116 1.8032,0.89288 c 2.33319,1.15533 3.31657,1.84206 4.82449,3.36902 1.35751,1.3747 2.51393,3.17456 3.10927,4.83941 0.34491,0.96432 0.40416,1.68291 0.53588,6.49815 0.0814,2.97765 0.16463,15.61322 0.18481,28.07901 0.0198,12.46579 0.0871,24.39938 0.14869,26.51908 l 0.11192,3.85398 1.10113,0.58455 c 0.60562,0.32152 1.22499,0.77098 1.37646,0.99872 0.23743,0.3572 0.28271,2.33887 0.32965,14.41456 0.038,9.81433 -0.005,14.11175 -0.14478,14.37266 -0.10956,0.20471 -0.76784,0.65858 -1.46295,1.00857 l -1.26369,0.63644 -0.0988,0.9681 c -0.0543,0.53246 -0.14789,1.50492 -0.20783,2.16105 -0.35449,3.87711 -1.83103,6.7458 -4.85799,9.43872 -1.91201,1.70092 -2.65781,1.94502 -7.15901,2.34274 -2.4405,0.21564 -132.060134,0.3472 -152.415854,0.15468 z m 28.38137,-3.37679 c 2.58956,-0.60949 4.37457,-2.55186 4.92741,-5.36155 0.53598,-2.72434 -1.02636,-5.80342 -3.58285,-7.06144 -0.7839,-0.38576 -1.17195,-0.44921 -2.74805,-0.44921 -2.1185,0 -2.83786,0.20564 -4.13906,1.18335 -3.43004,2.57729 -3.63129,7.34651 -0.43327,10.26928 1.62116,1.4817 3.65719,1.96536 5.97582,1.41957 z m 92.408354,-0.26557 c 1.22938,-0.63453 2.92313,-2.32638 3.49342,-3.48964 0.43038,-0.87784 0.51045,-1.27321 0.50847,-2.51016 0,-1.25611 -0.0843,-1.64211 -0.56981,-2.67239 -0.6715,-1.42511 -2.05251,-2.88113 -3.31122,-3.49111 -0.67477,-0.32701 -1.28798,-0.4473 -2.5673,-0.5035 -1.50973,-0.0664 -1.78682,-0.0255 -2.72326,0.40335 -0.66712,0.30545 -1.48699,0.9243 -2.27699,1.71875 -1.07775,1.08388 -1.28895,1.41261 -1.66394,2.58925 -0.39559,1.24126 -0.41191,1.44338 -0.20654,2.55784 0.54497,2.95747 2.19103,4.91689 4.74816,5.652 1.28092,0.36822 3.61427,0.23833 4.56901,-0.25439 z m -70.27213,-2.67206 c 1.6171,-0.58944 2.82437,-1.9115 3.43191,-3.75838 0.46458,-1.41207 0.33308,-4.20701 -0.25075,-5.3299 -0.5689,-1.09427 -2.03994,-2.52687 -3.0951,-3.01426 -0.72706,-0.33577 -1.1986,-0.40133 -2.887636,-0.40133 -1.859828,0 -2.096188,0.0407 -3.001688,0.51761 -2.71722,1.43093 -4.16198,4.51031 -3.45681,7.36787 0.51913,2.10343 1.94488,3.83825 3.79743,4.62045 1.42789,0.60292 3.805244,0.60204 5.462644,0 z m 48.36269,0.3451 c 1.95628,-0.50958 3.4582,-1.86025 4.58283,-4.12156 0.8485,-1.70596 0.8189,-2.78622 -0.12894,-4.70561 -0.85273,-1.72674 -2.38842,-3.36087 -3.49764,-3.72179 -0.40373,-0.13136 -1.57846,-0.28399 -2.61049,-0.33917 -1.76691,-0.0945 -1.93492,-0.0717 -2.8795,0.39047 -1.16783,0.57136 -2.73767,2.19251 -3.30298,3.41089 -0.31381,0.67627 -0.38194,1.17492 -0.37627,2.75286 0.006,1.66053 0.0688,2.05384 0.45447,2.84462 0.83571,1.7137 2.49675,3.00876 4.49376,3.5036 1.25255,0.3104 2.03121,0.30697 3.26476,-0.0142 z M 82.863136,937.85616 c 3.3459,-0.52172 8.50988,-4.31216 10.11885,-7.4274 3.15257,-6.10362 2.33158,-13.27869 -2.05594,-17.96899 -3.07984,-3.2924 -6.10599,-4.65476 -11.06,-4.97932 -2.32072,-0.15203 -3.67743,0.0818 -5.78897,0.9976 -4.15545,1.80231 -6.75288,4.19386 -8.49255,7.81945 -1.16632,2.43076 -1.50138,4.12363 -1.39653,7.0565 0.076,2.12563 0.16989,2.73398 0.64705,4.18981 0.70608,2.15429 1.76428,3.93929 3.30126,5.56866 2.06273,2.18654 5.85277,4.40766 8.07725,4.7336 1.5137,0.22176 5.25573,0.22745 6.64958,0.0103 z m 89.650994,0 c 3.25315,-0.46249 7.50493,-3.44185 9.7664,-6.84364 2.6759,-4.02513 3.18255,-9.5004 1.29901,-14.03828 -1.42142,-3.42436 -4.05921,-6.1093 -7.96394,-8.10619 -1.95885,-1.00177 -3.45338,-1.30005 -6.56582,-1.31039 -2.68034,-0.009 -3.90088,0.16869 -5.16125,0.75099 -0.40372,0.18653 -1.19185,0.55112 -1.75139,0.81018 -1.33733,0.61921 -3.53933,2.52322 -4.96412,4.29224 -2.17171,2.6964 -3.28649,5.79692 -3.28649,9.14054 0,4.57758 1.51085,8.24547 4.61065,11.19353 2.14779,2.04257 5.15601,3.76808 7.13482,4.09255 1.39402,0.22853 5.33023,0.23911 6.88213,0.0186 z m -29.01321,-11.45841 c 0.77298,-1.01337 0.86852,-2.10642 0.80713,-9.23421 -0.0498,-5.7582 -0.0944,-6.62345 -0.36899,-7.12475 -0.61616,-1.12511 0.17352,-1.08113 -19.41622,-1.08113 -9.84138,0 -18.20686,0.0664 -18.58993,0.14751 -0.51302,0.10865 -0.74906,0.27791 -0.89571,0.64233 -0.26794,0.6659 -0.41572,8.43077 -0.24642,12.94743 0.12861,3.42853 0.15575,3.62595 0.52827,3.83943 0.37954,0.2175 8.03792,0.33132 31.15688,0.46308 l 6.53921,0.0372 0.48578,-0.63697 z"
       id="path3145"
       style="fill:#000000"
       inkscape:connector-curvature="0" />
  </g>
</svg>
