<?xml version="1.0"?>
<svg width="449.02667" height="482.69333" xmlns="http://www.w3.org/2000/svg" xmlns:svg="http://www.w3.org/2000/svg" version="1.1">

 <g class="layer">
  <title>Layer 1</title>
  <path d="m130.2,425.03c-3.96,0 -7.2,-3.24 -7.2,-7.2l0,-34.93c0,-3.96 -3.24,-7.2 -7.2,-7.2l-108.27,0c-3.96,0 -7.2,3.24 -7.2,7.2l0,36.93c0,3.96 0,9 0,11.2c0,2.2 0,7.24 0,11.2l0,32.93c0,3.96 3.24,7.2 7.2,7.2l186.93,0c3.96,0 7.2,-3.24 7.2,-7.2l0,-42.93c0,-3.96 -3.24,-7.2 -7.2,-7.2l-64.27,0" fill="#ffffff" fill-rule="nonzero" id="path12"/>
  <path d="m130.2,425.03l0,-0.33c-1.89,0 -3.6,-0.77 -4.85,-2.02c-1.25,-1.25 -2.02,-2.96 -2.02,-4.85l0,-34.93c0,-4.15 -3.39,-7.53 -7.53,-7.53l-108.27,0c-4.15,0 -7.53,3.39 -7.53,7.53l0,0l0,36.93l0,0c0,3.96 0,9 0,11.2c0,2.2 0,7.24 0,11.2l0,32.93c0,4.15 3.39,7.53 7.53,7.53l186.93,0c4.15,0 7.53,-3.39 7.53,-7.53l0,-42.93c0,-4.15 -3.39,-7.53 -7.53,-7.53l-64.27,0l0,0.33l0,0.33l64.27,0c1.89,0 3.6,0.77 4.85,2.02c1.25,1.25 2.02,2.96 2.02,4.85l0,42.93c0,1.89 -0.77,3.6 -2.02,4.85c-1.25,1.25 -2.96,2.02 -4.85,2.02l-186.93,0c-1.89,0 -3.6,-0.77 -4.85,-2.02c-1.25,-1.25 -2.02,-2.96 -2.02,-4.85l0,-32.93c0,-3.96 0,-9 0,-11.2c0,-2.2 0,-7.24 0,-11.2l0,-36.93c0,-1.89 0.77,-3.6 2.02,-4.85c1.25,-1.25 2.96,-2.02 4.85,-2.02l108.27,0c1.89,0 3.6,0.77 4.85,2.02c1.25,1.25 2.02,2.96 2.02,4.85l0,34.93c0,4.15 3.39,7.53 7.53,7.53l0,-0.33" fill="#ee232b" fill-rule="nonzero" id="path14"/>
  <path d="m79.6,414.38l10.94,0l0,1.12l-4.81,0l0,12.68l-1.31,0l0,-12.68l-4.81,0l0,-1.12" fill="#1d3b60" fill-rule="nonzero" id="path386"/>
  <path d="m91.84,414.38l1.31,0l0,5.99l8.19,0l0,-5.99l1.31,0l0,13.8l-1.31,0l0,-6.69l-8.19,0l0,6.69l-1.31,0l0,-13.8" fill="#1d3b60" fill-rule="nonzero" id="path388"/>
  <path d="m105.45,414.38l9.53,0l0,1.12l-8.21,0l0,4.99l7.69,0l0,1.12l-7.69,0l0,5.45l8.31,0l0,1.12l-9.63,0l0,-13.8" fill="#1d3b60" fill-rule="nonzero" id="path390"/>
  <path d="m79.6,462.43l8.75,0l0,1.12l-7.44,0l0,4.99l6.61,0l0,1.12l-6.61,0l0,6.57l-1.31,0l0,-13.8" fill="#1d3b60" fill-rule="nonzero" id="path392"/>
  <path d="m95.76,475.39c3.63,0 5.18,-3.05 5.18,-6.07c0,-3.01 -1.55,-6.07 -5.18,-6.07c-3.65,0 -5.2,3.05 -5.2,6.07c0,3.01 1.55,6.07 5.2,6.07zm0,-13.26c4.33,0 6.49,3.4 6.49,7.19c0,3.79 -2.16,7.19 -6.49,7.19c-4.35,0 -6.51,-3.4 -6.51,-7.19c0,-3.79 2.16,-7.19 6.51,-7.19" fill="#1d3b60" fill-rule="nonzero" id="path394"/>
  <path d="m104.17,462.43l1.31,0l0,8.54c0,3.19 1.49,4.43 4.04,4.43c2.57,0 4.06,-1.24 4.06,-4.43l0,-8.54l1.31,0l0,8.83c0,2.84 -1.53,5.26 -5.37,5.26c-3.81,0 -5.35,-2.42 -5.35,-5.26l0,-8.83" fill="#1d3b60" fill-rule="nonzero" id="path396"/>
  <path d="m117.53,462.43l1.47,0l8.04,11.67l0.04,0l0,-11.67l1.31,0l0,13.8l-1.47,0l-8.04,-11.67l-0.04,0l0,11.67l-1.31,0l0,-13.8" fill="#1d3b60" fill-rule="nonzero" id="path398"/>
  <path d="m132.47,475.1l2.8,0c3.96,0 5.68,-1.64 5.68,-5.78c0,-4.14 -1.72,-5.78 -5.68,-5.78l-2.8,0l0,11.56zm-1.31,-12.68l4.77,0c4.18,0.1 6.34,2.34 6.34,6.9c0,4.56 -2.16,6.8 -6.34,6.9l-4.77,0l0,-13.8" fill="#1d3b60" fill-rule="nonzero" id="path400"/>
  <path d="m146.35,470.81l5.43,0l-2.67,-7.07l-2.76,7.07zm2.09,-8.39l1.47,0l5.41,13.8l-1.41,0l-1.68,-4.29l-6.28,0l-1.66,4.29l-1.41,0l5.57,-13.8" fill="#1d3b60" fill-rule="nonzero" id="path402"/>
  <path d="m153.77,462.43l10.94,0l0,1.12l-4.81,0l0,12.68l-1.31,0l0,-12.68l-4.81,0l0,-1.12" fill="#1d3b60" fill-rule="nonzero" id="path404"/>
  <path d="m166.11,462.43l1.31,0l0,13.8l-1.31,0l0,-13.8" fill="#1d3b60" fill-rule="nonzero" id="path406"/>
  <path d="m176.08,475.39c3.63,0 5.18,-3.05 5.18,-6.07c0,-3.01 -1.55,-6.07 -5.18,-6.07c-3.65,0 -5.2,3.05 -5.2,6.07c0,3.01 1.55,6.07 5.2,6.07zm0,-13.26c4.33,0 6.49,3.4 6.49,7.19c0,3.79 -2.17,7.19 -6.49,7.19c-4.35,0 -6.51,-3.4 -6.51,-7.19c0,-3.79 2.17,-7.19 6.51,-7.19" fill="#1d3b60" fill-rule="nonzero" id="path408"/>
  <path d="m184.61,462.43l1.47,0l8.04,11.67l0.04,0l0,-11.67l1.31,0l0,13.8l-1.47,0l-8.04,-11.67l-0.04,0l0,11.67l-1.31,0l0,-13.8" fill="#1d3b60" fill-rule="nonzero" id="path410"/>
  <path d="m79.6,432.29l7.61,0l0,18.36l10.93,0l0,6.33l-18.53,0l0,-24.69" fill="#1d3b60" fill-rule="nonzero" id="path412"/>
  <path d="m103.12,432.29l7.61,0l0,24.69l-7.61,0l0,-24.69" fill="#1d3b60" fill-rule="nonzero" id="path414"/>
  <path d="m116.39,432.29l7.78,0l7.19,13.21l0.07,0l0,-13.21l7.19,0l0,24.69l-7.4,0l-7.57,-13.49l-0.07,0l0,13.49l-7.19,0l0,-24.69" fill="#1d3b60" fill-rule="nonzero" id="path416"/>
  <path d="m166.74,447.43c0,6.88 -3.63,10.13 -11.24,10.13c-7.61,0 -11.27,-3.25 -11.27,-10.13l0,-15.15l7.61,0l0,13.45c0,2.49 -0.03,5.67 3.7,5.67c3.6,0 3.6,-3.18 3.6,-5.67l0,-13.45l7.61,0l0,15.15" fill="#1d3b60" fill-rule="nonzero" id="path418"/>
  <path d="m178.84,443.84l-8.13,-11.55l8.92,0l3.73,6.71l3.67,-6.71l8.44,0l-7.92,11.62l8.82,13.07l-9.16,0l-4.22,-7.37l-4.36,7.37l-8.71,0l8.92,-13.14" fill="#1d3b60" fill-rule="nonzero" id="path420"/>
  <path d="m19.2,463.81l0,-24.82l-12.44,0l0,37.24l37.25,0l0,-12.41l-24.82,0" fill="#4f8ad0" fill-rule="nonzero" id="path422"/>
  <path d="m68.83,414.14l-62.06,0l0,18.62l12.41,0l0,-6.15l37.24,0l0,37.2l-6.2,0l0,12.41l18.61,0l0,-62.08" fill="#1d3b60" fill-rule="nonzero" id="path424"/>
  <path d="m8.4,401.43l0,-18.09l3.87,0l0,18.09l-3.87,0" fill="#4f8ad0" fill-rule="nonzero" id="path426"/>
  <path d="m31.63,397.32c0,1.42 -0.5,2.5 -1.49,3.24c-1,0.74 -2.49,1.11 -4.47,1.11c-1.02,0 -1.88,-0.07 -2.6,-0.2c-0.72,-0.13 -1.39,-0.33 -2.01,-0.6l0,-3.12c0.71,0.33 1.51,0.61 2.39,0.83c0.89,0.22 1.67,0.33 2.34,0.33c1.38,0 2.07,-0.4 2.07,-1.19c0,-0.3 -0.09,-0.54 -0.27,-0.72c-0.18,-0.19 -0.5,-0.4 -0.95,-0.63c-0.45,-0.23 -1.05,-0.51 -1.8,-0.82c-1.07,-0.45 -1.86,-0.86 -2.37,-1.24c-0.5,-0.38 -0.87,-0.81 -1.1,-1.31c-0.23,-0.49 -0.34,-1.09 -0.34,-1.81c0,-1.23 0.48,-2.18 1.44,-2.85c0.96,-0.67 2.33,-1.01 4.09,-1.01c1.68,0 3.32,0.36 4.91,1.09l-1.15,2.72c-0.7,-0.3 -1.35,-0.54 -1.96,-0.73c-0.61,-0.19 -1.23,-0.28 -1.86,-0.28c-1.12,0 -1.69,0.3 -1.69,0.9c0,0.34 0.18,0.63 0.54,0.88c0.36,0.25 1.16,0.61 2.38,1.1c1.09,0.44 1.89,0.85 2.4,1.23c0.51,0.38 0.88,0.82 1.12,1.31c0.24,0.49 0.36,1.09 0.36,1.77" fill="#4f8ad0" fill-rule="nonzero" id="path428"/>
  <path d="m43.83,401.43l-0.51,-1.77l-0.2,0c-0.41,0.64 -0.99,1.14 -1.74,1.49c-0.75,0.35 -1.6,0.53 -2.56,0.53c-1.64,0 -2.88,-0.43 -3.71,-1.3c-0.83,-0.87 -1.25,-2.12 -1.25,-3.75l0,-9.02l3.81,0l0,8.08c0,1 0.18,1.75 0.54,2.25c0.36,0.5 0.93,0.75 1.71,0.75c1.07,0 1.84,-0.35 2.31,-1.06c0.47,-0.71 0.71,-1.87 0.71,-3.51l0,-6.51l3.81,0l0,13.83l-2.92,0" fill="#4f8ad0" fill-rule="nonzero" id="path430"/>
  <path d="m56.64,390.35c-0.94,0 -1.63,0.29 -2.06,0.86c-0.43,0.57 -0.66,1.52 -0.67,2.84l0,0.41c0,1.48 0.22,2.55 0.67,3.19c0.45,0.64 1.15,0.97 2.12,0.97c1.71,0 2.56,-1.39 2.56,-4.18c0,-1.36 -0.21,-2.38 -0.63,-3.06c-0.42,-0.68 -1.08,-1.02 -1.98,-1.02zm1.12,11.32c-1.64,0 -2.93,-0.59 -3.86,-1.77l-0.2,0c0.13,1.15 0.2,1.82 0.2,2l0,5.6l-3.81,0l0,-19.91l3.1,0l0.54,1.79l0.18,0c0.89,-1.37 2.21,-2.05 3.96,-2.05c1.65,0 2.94,0.63 3.87,1.89c0.93,1.26 1.4,3.01 1.4,5.26c0,1.48 -0.22,2.76 -0.66,3.85c-0.44,1.09 -1.06,1.92 -1.87,2.49c-0.81,0.57 -1.76,0.85 -2.85,0.85" fill="#4f8ad0" fill-rule="nonzero" id="path432"/>
  <path d="m72.16,390.35c-0.94,0 -1.63,0.29 -2.06,0.86c-0.43,0.57 -0.66,1.52 -0.67,2.84l0,0.41c0,1.48 0.22,2.55 0.67,3.19c0.45,0.64 1.15,0.97 2.12,0.97c1.71,0 2.56,-1.39 2.56,-4.18c0,-1.36 -0.21,-2.38 -0.63,-3.06c-0.42,-0.68 -1.08,-1.02 -1.98,-1.02zm1.13,11.32c-1.64,0 -2.93,-0.59 -3.86,-1.77l-0.2,0c0.13,1.15 0.2,1.82 0.2,2l0,5.6l-3.81,0l0,-19.91l3.1,0l0.54,1.79l0.18,0c0.89,-1.37 2.21,-2.05 3.96,-2.05c1.65,0 2.94,0.63 3.87,1.89c0.93,1.26 1.4,3.01 1.4,5.26c0,1.48 -0.22,2.76 -0.65,3.85c-0.44,1.09 -1.06,1.92 -1.87,2.49c-0.81,0.57 -1.76,0.85 -2.85,0.85" fill="#4f8ad0" fill-rule="nonzero" id="path434"/>
  <path d="m84.18,394.49c0,1.37 0.23,2.41 0.68,3.11c0.45,0.7 1.19,1.05 2.22,1.05c1.01,0 1.75,-0.35 2.19,-1.05c0.45,-0.7 0.67,-1.73 0.67,-3.11c0,-1.37 -0.23,-2.39 -0.67,-3.08c-0.45,-0.68 -1.19,-1.03 -2.21,-1.03c-1.02,0 -1.75,0.34 -2.2,1.02c-0.45,0.68 -0.67,1.71 -0.67,3.09zm9.66,0c0,2.25 -0.6,4.01 -1.8,5.28c-1.2,1.27 -2.87,1.9 -5.01,1.9c-1.34,0 -2.52,-0.29 -3.55,-0.87c-1.02,-0.58 -1.81,-1.42 -2.36,-2.5c-0.55,-1.09 -0.82,-2.36 -0.82,-3.81c0,-2.26 0.59,-4.01 1.79,-5.27c1.19,-1.25 2.86,-1.88 5.02,-1.88c1.34,0 2.52,0.29 3.55,0.87c1.03,0.58 1.81,1.41 2.36,2.49c0.55,1.08 0.83,2.35 0.83,3.8" fill="#4f8ad0" fill-rule="nonzero" id="path436"/>
  <path d="m104.12,387.34c0.52,0 0.95,0.04 1.29,0.11l-0.29,3.54c-0.31,-0.08 -0.68,-0.12 -1.12,-0.12c-1.22,0 -2.16,0.31 -2.84,0.93c-0.68,0.62 -1.02,1.48 -1.02,2.6l0,7.04l-3.81,0l0,-13.83l2.89,0l0.56,2.33l0.19,0c0.43,-0.77 1.02,-1.4 1.75,-1.87c0.74,-0.47 1.54,-0.71 2.41,-0.71" fill="#4f8ad0" fill-rule="nonzero" id="path438"/>
  <path d="m113.16,398.67c0.67,0 1.47,-0.14 2.4,-0.43l0,2.81c-0.95,0.42 -2.12,0.63 -3.5,0.63c-1.53,0 -2.63,-0.38 -3.33,-1.14c-0.7,-0.76 -1.04,-1.91 -1.04,-3.43l0,-6.67l-1.82,0l0,-1.59l2.1,-1.26l1.1,-2.92l2.44,0l0,2.94l3.91,0l0,2.83l-3.91,0l0,6.67c0,0.54 0.15,0.93 0.46,1.19c0.3,0.26 0.71,0.38 1.2,0.38" fill="#4f8ad0" fill-rule="nonzero" id="path440"/>
 </g>
</svg>
