<?xml version="1.0" encoding="UTF-8" standalone="no"?>
<!-- Created with Inkscape (http://www.inkscape.org/) -->

<svg
   version="1.1"
   id="svg2"
   width="449.02667"
   height="482.69333"
   viewBox="0 0 449.02667 482.69333"
   sodipodi:docname="LF_Tux_I Support Stickers_Print 2.eps"
   xmlns:inkscape="http://www.inkscape.org/namespaces/inkscape"
   xmlns:sodipodi="http://sodipodi.sourceforge.net/DTD/sodipodi-0.dtd"
   xmlns="http://www.w3.org/2000/svg"
   xmlns:svg="http://www.w3.org/2000/svg">
  <defs
     id="defs6" />
  <sodipodi:namedview
     id="namedview4"
     pagecolor="#ffffff"
     bordercolor="#000000"
     borderopacity="0.25"
     inkscape:showpageshadow="2"
     inkscape:pageopacity="0.0"
     inkscape:pagecheckerboard="0"
     inkscape:deskcolor="#d1d1d1" />
  <g
     id="g8"
     inkscape:groupmode="layer"
     inkscape:label="ink_ext_XXXXXX"
     transform="matrix(1.3333333,0,0,-1.3333333,0,482.69333)">
    <g
       id="g10"
       transform="scale(0.1)">
      <path
         d="m 976.5,432.5 c -29.699,0 -54,24.301 -54,54 v 262 c 0,29.699 -24.301,54 -54,54 h -812 c -29.6992,0 -54,-24.301 -54,-54 v -277 c 0,-29.699 0,-67.5 0,-84 0,-16.5 0,-54.301 0,-84 v -247 c 0,-29.6992 24.3008,-54 54,-54 h 1402 c 29.7,0 54,24.3008 54,54 v 322 c 0,29.699 -24.3,54 -54,54 h -482"
         style="fill:#ffffff;fill-opacity:1;fill-rule:nonzero;stroke:none"
         id="path12" />
      <path
         d="m 976.5,432.5 v 2.5 c -14.16,0 -27.023,5.789 -36.371,15.129 C 930.789,459.48 925,472.34 925,486.5 v 262 c -0.012,31.09 -25.406,56.488 -56.5,56.5 H 56.5 C 25.4102,804.988 0.0078125,779.59 0,748.5 v 0 -277 0 C 0,441.801 0,404 0,387.5 0,371 0,333.199 0,303.5 V 56.5 C 0.0078125,25.4102 25.4102,0.0117188 56.5,0 h 1402 c 31.09,0.0117188 56.49,25.4102 56.5,56.5 v 322 c -0.01,31.09 -25.41,56.488 -56.5,56.5 h -482 v -2.5 -2.5 h 482 c 14.16,0 27.02,-5.789 36.37,-15.129 9.34,-9.351 15.13,-22.211 15.13,-36.371 v -322 c 0,-14.1602 -5.79,-27.0195 -15.13,-36.3711 C 1485.52,10.7891 1472.66,5 1458.5,5 H 56.5 C 42.3398,5 29.4766,10.7891 20.1289,20.1289 10.7891,29.4805 5,42.3398 5,56.5 v 247 c 0,29.699 0,67.5 0,84 0,16.5 0,54.301 0,84 v 277 c 0,14.16 5.7891,27.02 15.1289,36.371 C 29.4766,794.211 42.3398,800 56.5,800 h 812 c 14.16,0 27.023,-5.789 36.371,-15.129 C 914.211,775.52 920,762.66 920,748.5 v -262 c 0.012,-31.09 25.406,-56.488 56.5,-56.5 v 2.5"
         style="fill:#ee232b;fill-opacity:1;fill-rule:nonzero;stroke:none"
         id="path14" />
      <path
         d="m 1524.94,2637.15 0.16,1.24 c -1.91,0.24 -4.51,0.56 -6.28,0.89 l -0.23,-1.23 1.13,0.55 c -2.61,5.27 -4.32,13.92 -6.09,23.04 -3.34,17.07 -7.65,39.4 -23.02,58.31 l -0.97,-0.79 1.23,-0.23 c 5.66,31.27 8.59,62.25 8.59,91.09 0,5.02 -0.09,9.98 -0.27,14.86 -4.18,115.21 -72.39,192.9 -117.32,244.12 -9.27,10.56 -18.01,20.52 -24.82,29.23 -4.41,5.63 -8.84,11.06 -13.24,16.45 -35.23,43.23 -65.41,79.9 -67.4,219.67 -1.25,90.61 -22.62,162.04 -61.62,210.89 -39,48.85 -95.67,74.96 -166.97,74.94 v 0 l -5.34,-0.05 h -0.01 v 0 c -71.49,-1.27 -123.759,-20.87 -159.411,-60.04 -38.926,-42.78 -57.543,-106.91 -57.539,-198.63 0,-19.71 0.859,-40.69 2.558,-63.01 l 1.246,0.09 -1.246,-0.06 c 0.676,-12.32 1,-23.94 1,-34.93 -0.066,-123.09 -40.449,-166.88 -83.586,-213.17 l 0.914,-0.86 -0.84,0.93 c -9.097,-8.27 -17.265,-12.29 -24.113,-12.27 -11.965,-0.09 -25.984,12.02 -38.387,28.71 -12.425,16.65 -23.355,37.66 -29.894,54.8 l -1.168,-0.44 1.211,0.29 c -1.059,4.32 -2.254,8.73 -3.52,13.07 l -1.199,-0.35 1.207,0.32 -2.683,10.03 -0.114,0.41 -0.84,0.64 -0.753,-1 1.191,0.38 c -4.141,12.97 -9.098,26.77 -14.559,41.81 -2.965,8.19 -5.711,15.83 -8.25,22.93 -11.097,30.95 -19.422,54.23 -29.465,69.94 -9.996,15.72 -22.082,23.9 -39.933,23.85 -6.508,0 -13.09,-1.47 -19.543,-4.35 -19.024,-8.42 -25.723,-24.88 -25.668,-43.86 0.008,-19.09 6.519,-40.99 13.699,-61.31 l 1.18,0.42 -0.606,1.09 c -2.89,-1.59 -5.449,-3.16 -7.617,-4.49 l -0.012,-0.01 0.016,0.01 c -1.312,-0.8 -2.469,-1.53 -3.383,-2.02 h 0.004 c -0.746,-0.39 -5.152,-2.46 -6.472,-3.11 l 0.55,-1.12 1.032,0.71 c -14.289,20.79 -34.172,39.59 -59.696,39.62 -5.617,0 -11.168,-0.95 -16.496,-2.82 -21.609,-7.57 -29.25,-22.56 -31.797,-30.82 -1.418,-4.56 -2.043,-9.07 -2.043,-13.47 0.028,-20.38 13.223,-38.31 22.336,-50.83 1.742,-2.39 3.371,-4.6 4.653,-6.55 h 0.004 c 3.968,-6 14.277,-24.23 24.218,-41.82 8.207,-14.52 17.203,-32.93 25.5,-47.13 l 1.078,0.63 -1.187,-0.39 c 2.25,-6.76 6.641,-18.52 12.973,-38.5 l 1.191,0.38 v 1.25 H 80.6367 c -9.3711,-0.01 -19.1094,-2.5 -26.6172,-7.41 -7.4961,-4.89 -12.7812,-12.35 -12.7695,-21.98 v -283.73 c 0.0156,-9.6 5.1523,-19.38 12.5703,-26.81 7.4336,-7.42 17.207,-12.56 26.8164,-12.57 H 506.633 v 1.25 l -0.981,0.77 c -10.879,-13.8 -14.632,-30.57 -14.632,-47.82 0.003,-21.06 5.574,-42.92 10.777,-61.38 l 0.004,-0.02 2.894,-9.16 1.196,0.38 -1.207,-0.33 c 1.078,-3.92 1.683,-6.37 1.675,-8.16 -0.011,-1.61 -0.406,-2.78 -1.543,-4.55 -1.14,-1.76 -3.039,-3.99 -5.808,-7.33 -5.231,-6.33 -11.863,-14.01 -17.301,-25.27 l 1.125,-0.54 -1.086,0.62 -0.5,-0.88 -0.016,-0.03 -0.015,-0.03 c -2.938,-5.98 -9.711,-19.66 -9.715,-36.86 -0.004,-10.45 2.512,-22.2 9.875,-34.23 9.195,-15.06 26.559,-32.64 69.406,-46.75 42.86,-14.12 111.282,-24.91 223.028,-26.63 4.98,-0.07 9.781,-0.09 14.406,-0.09 92.418,0 124.726,14.67 140.699,31.13 l -0.894,0.87 0.492,-1.14 0.215,0.09 0.257,0.11 4.836,5.49 c 1.184,1.34 3.5,4.22 6.039,8.72 l -1.089,0.61 -0.094,-1.24 c 25.426,-1.94 58.082,-3.65 94.224,-3.65 45.09,0 87.33,2.63 126.04,7.83 l -0.17,1.24 -1.24,-0.17 c 1.47,-10.72 3.33,-20.25 5.58,-28.53 5.9,-21.71 13.96,-33.26 21.47,-40.49 l 0.87,0.9 -1.14,-0.5 0.08,-0.18 0.11,-0.25 5.43,-4.81 c 4.52,-4.01 21.55,-16.75 53.67,-16.75 h 0.01 c 41.76,0.01 90.87,21.46 146.15,63.53 29.23,22.24 56.09,39.29 76.24,51.66 7.12,4.38 13.96,8.51 20.51,12.46 29.11,17.58 55.33,33.38 74.37,52.96 19.05,19.56 30.83,42.99 30.81,75.36 0,1.99 -0.04,4 -0.13,6.05 -1.38,32.15 -10.12,51.66 -22.57,63.55 -12.44,11.9 -28.41,16.06 -43.89,18 l -0.16,-1.24 -0.15,-1.24 c 15.28,-1.92 30.62,-5.98 42.48,-17.32 11.85,-11.33 20.41,-30.08 21.79,-61.86 0.09,-2.01 0.13,-3.99 0.13,-5.94 -0.01,-31.75 -11.41,-54.37 -30.1,-73.62 -18.7,-19.24 -44.76,-34.99 -73.88,-52.56 -6.54,-3.95 -13.39,-8.08 -20.52,-12.47 -20.18,-12.39 -47.12,-29.48 -76.44,-51.8 -55.04,-41.91 -103.76,-63.03 -144.64,-63.02 h -0.01 c -31.44,0.01 -47.82,12.42 -52.01,16.12 l -5.23,4.63 -0.83,-0.93 1.14,0.51 -0.08,0.17 -0.1,0.22 -0.17,0.17 c -7.18,6.92 -14.97,17.96 -20.8,39.35 -2.22,8.14 -4.05,17.58 -5.51,28.21 l -0.17,1.23 -1.24,-0.16 c -38.58,-5.19 -80.71,-7.81 -125.7,-7.81 -36.064,0 -68.662,1.7 -94.037,3.64 l -0.793,0.06 -0.39,-0.69 c -2.442,-4.33 -4.657,-7.07 -5.739,-8.3 l -4.648,-5.28 0.937,-0.82 -0.492,1.14 -0.215,-0.09 -0.23,-0.1 -0.172,-0.18 c -15.16,-15.67 -46.66,-30.37 -138.906,-30.37 -4.617,0 -9.406,0.02 -14.367,0.09 -111.602,1.71 -179.817,12.51 -222.285,26.51 -42.481,14.02 -59.137,31.12 -68.055,45.68 -7.11,11.62 -9.504,22.87 -9.508,32.92 0,16.55 6.535,29.83 9.453,35.75 l -1.117,0.56 1.086,-0.62 0.496,0.87 0.02,0.04 0.019,0.04 c 5.285,10.94 11.719,18.4 16.977,24.75 2.757,3.33 4.679,5.58 5.976,7.56 1.297,1.97 1.961,3.81 1.949,5.92 -0.007,2.33 -0.695,4.88 -1.765,8.82 l -0.004,0.02 -2.899,9.16 -1.195,-0.37 1.203,0.34 c -5.187,18.4 -10.683,40.08 -10.679,60.7 0.003,16.91 3.671,33.05 14.093,46.27 l 1.598,2.03 H 80.6367 c -8.6914,-0.02 -17.9844,4.76 -25.0469,11.84 -7.0742,7.06 -11.8554,16.35 -11.8398,25.04 v 283.73 c 0.0117,8.67 4.6445,15.28 11.6406,19.89 6.9883,4.58 16.3203,7 25.2461,7 H 489.918 l -0.516,1.63 c -6.343,20.01 -10.761,31.85 -12.98,38.53 l -0.043,0.12 -0.066,0.11 c -8.227,14.08 -17.219,32.49 -25.477,47.1 -9.961,17.61 -20.223,35.78 -24.316,41.97 h 0.003 c -1.335,2.02 -2.988,4.26 -4.722,6.64 -9.145,12.5 -21.883,30.1 -21.856,49.36 0,4.16 0.59,8.41 1.934,12.73 2.434,7.78 9.48,21.9 30.234,29.2 5.063,1.78 10.332,2.68 15.668,2.68 24.168,0.03 43.524,-17.99 57.633,-38.54 l 0.613,-0.89 0.969,0.48 c 1.297,0.64 5.641,2.68 6.531,3.14 h 0.008 c 1.059,0.57 2.227,1.32 3.512,2.1 h 0.004 c 2.168,1.33 4.687,2.87 7.515,4.43 l 0.93,0.51 -0.351,1 c -7.161,20.23 -13.567,41.96 -13.559,60.48 0.055,18.49 6.187,33.52 24.187,41.58 6.165,2.75 12.395,4.13 18.524,4.13 17.051,-0.05 27.984,-7.41 37.824,-22.69 9.797,-15.3 18.133,-38.5 29.223,-69.45 2.539,-7.1 5.285,-14.74 8.254,-22.93 5.457,-15.04 10.402,-28.81 14.523,-41.72 l 0.121,-0.38 0.473,-0.36 2.574,-9.61 h 0.004 l 0.004,-0.02 c 1.254,-4.31 2.441,-8.69 3.492,-12.96 l 0.016,-0.08 0.031,-0.07 c 6.633,-17.37 17.625,-38.51 30.23,-55.4 12.629,-16.85 26.75,-29.63 40.387,-29.72 7.844,0.02 16.453,4.46 25.793,12.91 l 0.039,0.04 0.035,0.04 c 43.2,46.22 84.325,91.26 84.258,214.88 0,11.04 -0.324,22.71 -1.004,35.06 v 0.02 0.01 c -1.699,22.27 -2.554,43.18 -2.554,62.82 0,91.42 18.562,154.84 56.89,196.95 35.09,38.53 86.512,57.94 157.6,59.22 h -0.01 l 5.33,0.05 h -0.01 c 70.7,-0.02 126.47,-25.77 165.01,-74 38.54,-48.24 59.84,-119.11 61.08,-209.36 1.85,-140.01 32.61,-178 67.96,-221.23 4.41,-5.38 8.83,-10.8 13.21,-16.41 6.88,-8.79 15.64,-18.77 24.91,-29.33 44.95,-51.22 112.56,-128.35 116.7,-242.56 0.18,-4.85 0.27,-9.78 0.27,-14.77 0,-28.68 -2.92,-59.52 -8.55,-90.64 l -0.1,-0.57 0.36,-0.44 c 14.9,-18.32 19.18,-40.13 22.51,-57.21 1.78,-9.14 3.45,-17.86 6.29,-23.66 l 0.28,-0.56 0.62,-0.12 c 1.88,-0.35 4.5,-0.67 6.42,-0.91 l 0.15,1.24"
         style="fill:#ee232b;fill-opacity:1;fill-rule:nonzero;stroke:none"
         id="path16" />
      <path
         d="m 3300.97,2637.15 0.15,1.24 c -1.91,0.24 -4.51,0.56 -6.27,0.89 l -0.23,-1.23 1.12,0.55 c -2.6,5.27 -4.31,13.92 -6.08,23.04 -3.34,17.07 -7.65,39.4 -23.02,58.31 l -0.97,-0.79 1.23,-0.23 c 5.66,31.26 8.58,62.23 8.59,91.05 0,5.04 -0.09,10 -0.27,14.9 -4.18,115.21 -72.39,192.9 -117.32,244.12 -9.27,10.56 -18.01,20.52 -24.82,29.23 -4.41,5.63 -8.84,11.06 -13.24,16.45 -35.23,43.23 -65.42,79.89 -67.41,219.67 -1.24,90.61 -22.61,162.04 -61.62,210.89 -39,48.85 -95.66,74.96 -166.96,74.94 v 0 l -5.34,-0.05 h -0.01 v 0 c -71.49,-1.27 -123.76,-20.87 -159.41,-60.04 -38.93,-42.78 -57.54,-106.91 -57.54,-198.63 0,-19.71 0.86,-40.69 2.56,-63.01 l 1.24,0.09 -1.24,-0.06 c 0.66,-12.14 0.98,-23.6 0.98,-34.45 -0.06,-124.23 -41.69,-167.84 -85.95,-215.31 -13.32,-14.27 -27.23,-25.37 -40.16,-45.54 l 1.05,-0.68 v 1.25 h -620.86 c -9.51,0 -17.54,-4.38 -23.12,-11.08 -5.58,-6.71 -8.77,-15.71 -8.77,-25.1 v -286.93 c 0,-9.4 3.18,-19.16 8.73,-26.65 5.54,-7.49 13.56,-12.74 23.16,-12.74 h 422.66 v 1.25 l -1,0.75 c -10.24,-13.58 -13.81,-29.86 -13.81,-46.59 0.01,-21 5.6,-42.78 10.8,-61.27 l 0.01,-0.02 2.9,-9.15 1.19,0.38 -1.21,-0.33 c 1.08,-3.92 1.69,-6.37 1.68,-8.16 -0.02,-1.62 -0.41,-2.78 -1.55,-4.55 -1.14,-1.76 -3.03,-4 -5.8,-7.33 -5.24,-6.33 -11.87,-14.01 -17.31,-25.27 l 1.13,-0.54 -1.09,0.62 -0.49,-0.88 -0.02,-0.03 -0.02,-0.03 c -2.94,-5.98 -9.71,-19.66 -9.71,-36.86 0,-10.45 2.51,-22.2 9.87,-34.23 9.2,-15.06 26.56,-32.64 69.41,-46.75 42.86,-14.12 111.28,-24.91 223.03,-26.63 4.98,-0.07 9.78,-0.09 14.4,-0.09 92.42,0 124.73,14.67 140.7,31.13 l -0.89,0.87 0.49,-1.14 0.22,0.09 0.25,0.11 4.84,5.49 c 1.18,1.34 3.5,4.22 6.04,8.73 l -1.09,0.61 -0.1,-1.25 c 25.43,-1.94 58.09,-3.65 94.24,-3.65 45.09,0 87.33,2.63 126.02,7.83 l -0.16,1.24 -1.24,-0.17 c 1.47,-10.72 3.32,-20.25 5.58,-28.52 5.89,-21.71 13.96,-33.27 21.47,-40.5 l 0.87,0.9 -1.17,-0.45 0.07,-0.18 0.11,-0.28 5.47,-4.83 c 4.52,-4.01 21.54,-16.75 53.67,-16.75 h 0.01 c 41.76,0.01 90.87,21.46 146.15,63.53 29.23,22.24 56.08,39.29 76.23,51.66 7.13,4.38 13.97,8.51 20.51,12.46 29.11,17.58 55.34,33.38 74.38,52.96 19.04,19.56 30.83,42.99 30.81,75.36 0,1.99 -0.04,4 -0.13,6.05 -1.38,32.15 -10.12,51.66 -22.57,63.55 -12.45,11.9 -28.41,16.06 -43.89,18 l -0.16,-1.24 -0.16,-1.24 c 15.29,-1.92 30.63,-5.98 42.48,-17.32 11.86,-11.33 20.42,-30.08 21.8,-61.86 0.09,-2.01 0.13,-3.99 0.13,-5.94 -0.02,-31.75 -11.41,-54.37 -30.1,-73.62 -18.7,-19.24 -44.76,-34.99 -73.88,-52.56 -6.54,-3.95 -13.39,-8.08 -20.52,-12.47 -20.19,-12.39 -47.12,-29.48 -76.44,-51.8 -55.04,-41.91 -103.76,-63.03 -144.64,-63.02 h -0.01 c -31.45,0.01 -47.82,12.42 -52.01,16.12 l -5.25,4.63 -0.82,-0.93 1.16,0.45 -0.07,0.18 -0.1,0.25 -0.2,0.19 c -7.17,6.93 -14.97,17.97 -20.79,39.35 -2.22,8.14 -4.05,17.58 -5.51,28.21 l -0.17,1.23 -1.24,-0.16 c -38.57,-5.19 -80.7,-7.81 -125.69,-7.81 -36.08,0 -68.67,1.71 -94.05,3.65 l -0.79,0.06 -0.39,-0.7 c -2.44,-4.33 -4.66,-7.07 -5.74,-8.3 l -4.65,-5.28 0.94,-0.82 -0.49,1.14 -0.22,-0.09 -0.23,-0.1 -0.17,-0.18 c -15.16,-15.67 -46.66,-30.37 -138.91,-30.37 -4.62,0 -9.4,0.02 -14.36,0.09 -111.61,1.71 -179.82,12.51 -222.29,26.51 -42.48,14.02 -59.13,31.12 -68.05,45.68 -7.11,11.62 -9.51,22.87 -9.51,32.92 0,16.55 6.53,29.83 9.45,35.75 l -1.12,0.56 1.09,-0.62 0.5,0.87 0.02,0.03 0.02,0.05 c 5.28,10.94 11.71,18.4 16.97,24.75 2.76,3.33 4.68,5.58 5.98,7.56 1.3,1.97 1.96,3.81 1.95,5.92 -0.01,2.33 -0.7,4.88 -1.77,8.82 v 0.02 l -2.9,9.16 -1.19,-0.38 1.2,0.34 c -5.2,18.43 -10.71,40.03 -10.71,60.59 0.01,16.39 3.49,32.07 13.31,45.09 l 1.51,2 h -425.17 c -8.64,0 -15.93,4.7 -21.15,11.73 -5.21,7.02 -8.25,16.33 -8.24,25.16 v 286.93 c 0,8.82 3.01,17.29 8.19,23.5 5.19,6.21 12.48,10.18 21.2,10.18 h 621.54 l 0.37,0.57 c 12.7,19.83 26.39,30.75 39.89,45.19 44.29,47.37 86.69,92.24 86.62,217.02 0,10.9 -0.32,22.41 -0.99,34.58 v 0.02 0.01 c -1.7,22.27 -2.55,43.18 -2.55,62.82 0,91.42 18.56,154.84 56.89,196.95 35.09,38.53 86.51,57.94 157.6,59.22 h -0.01 l 5.33,0.05 h -0.01 c 70.7,-0.02 126.47,-25.77 165.01,-74 38.54,-48.24 59.84,-119.11 61.07,-209.36 1.86,-140.02 32.62,-178.01 67.97,-221.23 4.41,-5.38 8.82,-10.8 13.21,-16.41 6.88,-8.79 15.64,-18.77 24.91,-29.33 44.94,-51.22 112.56,-128.35 116.7,-242.56 0.18,-4.86 0.27,-9.8 0.27,-14.81 0,-28.66 -2.91,-59.48 -8.55,-90.6 l -0.11,-0.57 0.37,-0.44 c 14.9,-18.32 19.18,-40.13 22.5,-57.21 1.79,-9.14 3.46,-17.86 6.3,-23.66 l 0.28,-0.56 0.62,-0.12 c 1.88,-0.35 4.5,-0.67 6.41,-0.91 l 0.16,1.24"
         style="fill:#ee232b;fill-opacity:1;fill-rule:nonzero;stroke:none"
         id="path18" />
      <path
         d="m 716.078,3007.22 c 1.656,-0.18 3.344,-0.19 5.031,-0.2 -1.687,0.01 -3.375,0.02 -5.031,0.2"
         style="fill:#404144;fill-opacity:1;fill-rule:nonzero;stroke:none"
         id="path20" />
      <path
         d="m 860.266,3265.96 c 0.004,-1.75 0.007,-3.5 -0.004,-5.23 0.011,1.73 0.008,3.48 0.004,5.23"
         style="fill:#404144;fill-opacity:1;fill-rule:nonzero;stroke:none"
         id="path22" />
      <path
         d="m 709.43,3008.38 c 2.062,-0.5 4.156,-0.85 6.273,-1.09 -2.117,0.24 -4.211,0.59 -6.273,1.09"
         style="fill:#404144;fill-opacity:1;fill-rule:nonzero;stroke:none"
         id="path24" />
      <path
         d="m 684.852,3020.46 c 7.414,-5.52 15.39,-9.69 23.855,-11.86 -8.465,2.17 -16.441,6.34 -23.855,11.86"
         style="fill:#404144;fill-opacity:1;fill-rule:nonzero;stroke:none"
         id="path26" />
      <path
         d="m 727.805,3007.43 c -1.637,-0.2 -3.282,-0.43 -4.887,-0.48 1.605,0.05 3.25,0.28 4.887,0.48"
         style="fill:#404144;fill-opacity:1;fill-rule:nonzero;stroke:none"
         id="path28" />
      <path
         d="m 684.672,3020.61 c -3.746,2.81 -7.356,5.95 -10.809,9.34 3.453,-3.39 7.063,-6.53 10.809,-9.34"
         style="fill:#404144;fill-opacity:1;fill-rule:nonzero;stroke:none"
         id="path30" />
      <path
         d="m 619.512,3126.53 -0.02,0.01 -0.019,0.06 0.019,-0.06 0.02,-0.01"
         style="fill:#404144;fill-opacity:1;fill-rule:nonzero;stroke:none"
         id="path32" />
      <path
         d="m 737.129,3009.38 c 1.332,0.42 2.691,1.03 4.039,1.57 -1.348,-0.54 -2.707,-1.15 -4.039,-1.57"
         style="fill:#404144;fill-opacity:1;fill-rule:nonzero;stroke:none"
         id="path34" />
      <path
         d="m 660.973,3044.51 c 3.804,-4.84 7.847,-9.5 12.14,-13.79 -4.293,4.29 -8.336,8.95 -12.14,13.79"
         style="fill:#404144;fill-opacity:1;fill-rule:nonzero;stroke:none"
         id="path36" />
      <path
         d="m 623.277,3112.3 0.008,-0.03 -0.008,0.03 z"
         style="fill:#404144;fill-opacity:1;fill-rule:nonzero;stroke:none"
         id="path38" />
      <path
         d="m 729.938,3007.65 c 2.152,0.36 4.339,0.91 6.539,1.58 -2.2,-0.67 -4.387,-1.22 -6.539,-1.58"
         style="fill:#404144;fill-opacity:1;fill-rule:nonzero;stroke:none"
         id="path40" />
      <path
         d="m 624.879,3108.3 c 0.488,-1.19 1.129,-2.72 1.836,-4.38 -0.707,1.66 -1.348,3.19 -1.836,4.38"
         style="fill:#404144;fill-opacity:1;fill-rule:nonzero;stroke:none"
         id="path42" />
      <path
         d="m 836.59,3126.04 c 0.43,1.01 0.851,2.02 1.269,3.05 -0.418,-1.03 -0.843,-2.04 -1.269,-3.05"
         style="fill:#404144;fill-opacity:1;fill-rule:nonzero;stroke:none"
         id="path44" />
      <path
         d="m 560.449,2912.16 c -1.234,2.32 -2.445,4.64 -3.648,6.95 1.207,-2.31 2.414,-4.63 3.648,-6.95"
         style="fill:#404144;fill-opacity:1;fill-rule:nonzero;stroke:none"
         id="path46" />
      <path
         d="m 650.602,3058.94 c 2.05,-3.13 4.238,-6.24 6.496,-9.32 -2.258,3.08 -4.446,6.19 -6.496,9.32"
         style="fill:#404144;fill-opacity:1;fill-rule:nonzero;stroke:none"
         id="path48" />
      <path
         d="m 1491.44,2625.42 0.54,-1.19 -0.54,1.19"
         style="fill:#404144;fill-opacity:1;fill-rule:nonzero;stroke:none"
         id="path50" />
      <path
         d="m 566.504,2901.11 c -1.02,1.82 -2.024,3.65 -3.024,5.48 1,-1.83 2,-3.66 3.024,-5.48"
         style="fill:#404144;fill-opacity:1;fill-rule:nonzero;stroke:none"
         id="path52" />
      <path
         d="m 554.652,2923.25 c -1.711,3.35 -3.39,6.69 -5.031,10.02 1.645,-3.33 3.317,-6.67 5.031,-10.02"
         style="fill:#404144;fill-opacity:1;fill-rule:nonzero;stroke:none"
         id="path54" />
      <path
         d="m 634.004,3088.13 c 0.992,-2 2.066,-4.09 3.184,-6.23 -1.122,2.14 -2.192,4.23 -3.184,6.23"
         style="fill:#404144;fill-opacity:1;fill-rule:nonzero;stroke:none"
         id="path56" />
      <path
         d="m 643.598,3070.3 c 2.113,-3.62 4.363,-7.3 6.769,-10.99 -2.406,3.69 -4.656,7.37 -6.769,10.99"
         style="fill:#404144;fill-opacity:1;fill-rule:nonzero;stroke:none"
         id="path58" />
      <path
         d="m 499.262,3136.3 0.187,0.15 -0.004,-0.05 0.082,0.05 c 1.817,14.32 19.641,20.88 27.356,24.93 -7.551,-3.96 -25.621,-10.39 -28.086,-24.09 l 0.437,-1 0.028,0.01"
         style="fill:#404144;fill-opacity:1;fill-rule:nonzero;stroke:none"
         id="path60" />
      <path
         d="m 628.281,3100.33 c 0.75,-1.69 1.578,-3.51 2.489,-5.46 -0.911,1.95 -1.739,3.77 -2.489,5.46"
         style="fill:#404144;fill-opacity:1;fill-rule:nonzero;stroke:none"
         id="path62" />
      <path
         d="m 817.805,3090.02 1.558,2.51 -1.558,-2.51"
         style="fill:#404144;fill-opacity:1;fill-rule:nonzero;stroke:none"
         id="path64" />
      <path
         d="m 801.207,3066.59 1.773,2.28 -1.773,-2.28"
         style="fill:#404144;fill-opacity:1;fill-rule:nonzero;stroke:none"
         id="path66" />
      <path
         d="m 1185.66,2420.2 v 0 -0.01 z"
         style="fill:#404144;fill-opacity:1;fill-rule:nonzero;stroke:none"
         id="path68" />
      <path
         d="m 795.918,3060 1.621,1.99 -1.621,-1.99"
         style="fill:#404144;fill-opacity:1;fill-rule:nonzero;stroke:none"
         id="path70" />
      <path
         d="m 832.59,3116.99 1.187,2.62 -1.187,-2.62"
         style="fill:#404144;fill-opacity:1;fill-rule:nonzero;stroke:none"
         id="path72" />
      <path
         d="m 806.723,3073.84 1.386,1.87 -1.386,-1.87"
         style="fill:#404144;fill-opacity:1;fill-rule:nonzero;stroke:none"
         id="path74" />
      <path
         d="m 822.598,3097.94 1.449,2.5 -1.449,-2.5"
         style="fill:#404144;fill-opacity:1;fill-rule:nonzero;stroke:none"
         id="path76" />
      <path
         d="m 828.098,3107.89 0.347,0.65 -0.347,-0.65"
         style="fill:#404144;fill-opacity:1;fill-rule:nonzero;stroke:none"
         id="path78" />
      <path
         d="m 813.008,3082.68 1.058,1.6 -1.058,-1.6"
         style="fill:#404144;fill-opacity:1;fill-rule:nonzero;stroke:none"
         id="path80" />
      <path
         d="m 789.82,3052.77 0.922,1.06 -0.922,-1.06"
         style="fill:#404144;fill-opacity:1;fill-rule:nonzero;stroke:none"
         id="path82" />
      <path
         d="m 1489.32,2630.39 0.27,-0.78 -0.27,0.78"
         style="fill:#404144;fill-opacity:1;fill-rule:nonzero;stroke:none"
         id="path84" />
      <path
         d="m 918.324,2413.29 v 0.01 h 0.012 -0.008 l -0.004,-0.01"
         style="fill:#404144;fill-opacity:1;fill-rule:nonzero;stroke:none"
         id="path86" />
      <path
         d="m 626.137,2677 c 1.191,0.8 2.211,1.67 3.156,2.57 -0.945,-0.9 -1.965,-1.77 -3.156,-2.57 -12.035,-8.02 -27.801,-10.08 -43.481,-13.28 -4.496,-0.92 -8.984,-1.93 -13.375,-3.2 4.391,1.27 8.879,2.28 13.379,3.2 15.676,3.2 31.442,5.26 43.477,13.28"
         style="fill:#404144;fill-opacity:1;fill-rule:nonzero;stroke:none"
         id="path88" />
      <path
         d="m 632.152,2682.9 c -0.675,-0.98 -1.449,-1.91 -2.316,-2.8 0.867,0.89 1.644,1.82 2.316,2.8"
         style="fill:#404144;fill-opacity:1;fill-rule:nonzero;stroke:none"
         id="path90" />
      <path
         d="m 659.234,2736.95 v -0.04 l -0.007,-0.01 0.007,0.01 v 0.04"
         style="fill:#404144;fill-opacity:1;fill-rule:nonzero;stroke:none"
         id="path92" />
      <path
         d="m 783.379,3045.44 1.945,2.19 -1.945,-2.19"
         style="fill:#404144;fill-opacity:1;fill-rule:nonzero;stroke:none"
         id="path94" />
      <path
         d="m 744.496,3012.23 c 1.559,0.72 3.145,1.66 4.723,2.54 -1.578,-0.88 -3.164,-1.82 -4.723,-2.54"
         style="fill:#404144;fill-opacity:1;fill-rule:nonzero;stroke:none"
         id="path96" />
      <path
         d="m 752.023,3016.27 c 2.332,1.43 4.692,3.08 7.067,4.87 -2.375,-1.79 -4.735,-3.44 -7.067,-4.87"
         style="fill:#404144;fill-opacity:1;fill-rule:nonzero;stroke:none"
         id="path98" />
      <path
         d="m 759.703,3021.57 c 1.899,1.45 3.824,3.16 5.75,4.86 -1.926,-1.7 -3.851,-3.41 -5.75,-4.86"
         style="fill:#404144;fill-opacity:1;fill-rule:nonzero;stroke:none"
         id="path100" />
      <path
         d="m 450.625,3137.9 c -10.484,15.85 -37.738,44.76 -8.746,54.94 1.785,0.63 3.566,0.95 5.336,1.03 -1.852,-0.06 -3.711,-0.37 -5.578,-1.03 -28.992,-10.18 -1.617,-39.09 8.867,-54.94 8.226,-12.44 32.641,-57.29 52.234,-90.65 0,0 17.508,-54.21 46.391,-112.99 -28.856,58.79 -46.328,112.99 -46.328,112.99 -19.598,33.36 -43.949,78.21 -52.176,90.65"
         style="fill:#404144;fill-opacity:1;fill-rule:nonzero;stroke:none"
         id="path102" />
      <path
         d="m 777.684,3039.15 2.136,2.35 -2.136,-2.35"
         style="fill:#404144;fill-opacity:1;fill-rule:nonzero;stroke:none"
         id="path104" />
      <path
         d="m 770.105,3030.96 c 1.333,1.43 2.665,2.86 3.993,4.3 -1.328,-1.44 -2.66,-2.87 -3.993,-4.3"
         style="fill:#404144;fill-opacity:1;fill-rule:nonzero;stroke:none"
         id="path106" />
      <path
         d="m 1462.63,2739.67 -0.05,-0.35 0.05,0.35"
         style="fill:#404144;fill-opacity:1;fill-rule:nonzero;stroke:none"
         id="path108" />
      <path
         d="m 1193.26,2365.11 c -0.56,2.07 -1.1,4.37 -1.64,6.76 0.54,-2.39 1.08,-4.68 1.64,-6.76"
         style="fill:#404144;fill-opacity:1;fill-rule:nonzero;stroke:none"
         id="path110" />
      <path
         d="m 635.797,2690.9 c 0.312,1.1 0.594,2.21 0.828,3.35 -0.234,-1.14 -0.512,-2.25 -0.828,-3.35"
         style="fill:#404144;fill-opacity:1;fill-rule:nonzero;stroke:none"
         id="path112" />
      <path
         d="m 1191.19,2373.86 c -0.5,2.36 -0.98,4.86 -1.44,7.54 0.46,-2.69 0.94,-5.17 1.44,-7.54"
         style="fill:#404144;fill-opacity:1;fill-rule:nonzero;stroke:none"
         id="path114" />
      <path
         d="m 1189.34,2383.99 c -0.32,1.97 -0.62,4.05 -0.91,6.19 0.29,-2.15 0.59,-4.21 0.91,-6.19"
         style="fill:#404144;fill-opacity:1;fill-rule:nonzero;stroke:none"
         id="path116" />
      <path
         d="m 840.621,3136.25 0.902,2.41 -0.902,-2.41"
         style="fill:#404144;fill-opacity:1;fill-rule:nonzero;stroke:none"
         id="path118" />
      <path
         d="m 634.309,2686.73 c 0.476,1.07 0.875,2.18 1.23,3.32 -0.355,-1.14 -0.75,-2.25 -1.23,-3.32"
         style="fill:#404144;fill-opacity:1;fill-rule:nonzero;stroke:none"
         id="path120" />
      <path
         d="m 636.809,2695.23 0.457,2.66 -0.457,-2.66"
         style="fill:#404144;fill-opacity:1;fill-rule:nonzero;stroke:none"
         id="path122" />
      <path
         d="m 643.383,2723.81 0.125,0.22 -0.125,-0.22"
         style="fill:#404144;fill-opacity:1;fill-rule:nonzero;stroke:none"
         id="path124" />
      <path
         d="m 640.176,2715.84 0.004,0.02 -0.004,-0.02"
         style="fill:#404144;fill-opacity:1;fill-rule:nonzero;stroke:none"
         id="path126" />
      <path
         d="m 646.008,2727.64 0.078,0.09 -0.078,-0.09"
         style="fill:#404144;fill-opacity:1;fill-rule:nonzero;stroke:none"
         id="path128" />
      <path
         d="m 1017.39,2407.89 -0.7,0.01 0.7,-0.01"
         style="fill:#404144;fill-opacity:1;fill-rule:nonzero;stroke:none"
         id="path130" />
      <path
         d="m 955.898,2410.3 c -0.949,0.06 -1.875,0.13 -2.808,0.19 0.933,-0.06 1.855,-0.13 2.808,-0.19"
         style="fill:#404144;fill-opacity:1;fill-rule:nonzero;stroke:none"
         id="path132" />
      <path
         d="m 632.512,2683.46 c 0.609,0.94 1.152,1.91 1.621,2.92 -0.469,-1.01 -1.012,-1.98 -1.621,-2.92"
         style="fill:#404144;fill-opacity:1;fill-rule:nonzero;stroke:none"
         id="path134" />
      <path
         d="m 943.289,2411.18 c -1.039,0.08 -2.09,0.15 -3.105,0.23 1.019,-0.08 2.062,-0.15 3.105,-0.23"
         style="fill:#404144;fill-opacity:1;fill-rule:nonzero;stroke:none"
         id="path136" />
      <path
         d="m 969.258,2409.51 -0.914,0.05 0.914,-0.05"
         style="fill:#404144;fill-opacity:1;fill-rule:nonzero;stroke:none"
         id="path138" />
      <path
         d="m 1187.9,2394.18 c -0.34,2.79 -0.65,5.71 -0.95,8.78 0.3,-3.07 0.62,-5.99 0.95,-8.78"
         style="fill:#404144;fill-opacity:1;fill-rule:nonzero;stroke:none"
         id="path140" />
      <path
         d="m 556.488,2655.73 c 4.106,1.97 8.399,3.51 12.793,4.79 -4.394,-1.28 -8.687,-2.82 -12.793,-4.79"
         style="fill:#404144;fill-opacity:1;fill-rule:nonzero;stroke:none"
         id="path142" />
      <path
         d="m 1186.5,2408.21 c -0.17,2.04 -0.32,4.16 -0.47,6.32 0.15,-2.17 0.3,-4.28 0.47,-6.32"
         style="fill:#404144;fill-opacity:1;fill-rule:nonzero;stroke:none"
         id="path144" />
      <path
         d="m 579.238,2879.53 c -0.746,1.2 -1.492,2.41 -2.23,3.63 0.738,-1.22 1.48,-2.43 2.23,-3.63"
         style="fill:#404144;fill-opacity:1;fill-rule:nonzero;stroke:none"
         id="path146" />
      <path
         d="m 606.238,2841.2 -0.261,0.31 0.261,-0.31"
         style="fill:#404144;fill-opacity:1;fill-rule:nonzero;stroke:none"
         id="path148" />
      <path
         d="m 1466.26,2769.43 -0.1,-0.96 0.1,0.96"
         style="fill:#404144;fill-opacity:1;fill-rule:nonzero;stroke:none"
         id="path150" />
      <path
         d="m 599.527,2849.8 -1.07,1.4 1.07,-1.4"
         style="fill:#404144;fill-opacity:1;fill-rule:nonzero;stroke:none"
         id="path152" />
      <path
         d="m 1468,2797.62 -0.05,-1.09 0.05,1.09"
         style="fill:#404144;fill-opacity:1;fill-rule:nonzero;stroke:none"
         id="path154" />
      <path
         d="m 572.762,2890.22 c -0.867,1.47 -1.723,2.95 -2.578,4.43 0.855,-1.48 1.711,-2.96 2.578,-4.43"
         style="fill:#404144;fill-opacity:1;fill-rule:nonzero;stroke:none"
         id="path156" />
      <path
         d="m 930.875,2412.17 -2.039,0.17 2.039,-0.17"
         style="fill:#404144;fill-opacity:1;fill-rule:nonzero;stroke:none"
         id="path158" />
      <path
         d="m 860.109,3277.76 c -0.039,1.69 -0.062,3.37 -0.117,5.08 0.055,-1.71 0.078,-3.39 0.117,-5.08"
         style="fill:#404144;fill-opacity:1;fill-rule:nonzero;stroke:none"
         id="path160" />
      <path
         d="m 585.895,2869.15 c -0.645,0.98 -1.29,1.95 -1.926,2.94 0.64,-0.99 1.281,-1.96 1.926,-2.94"
         style="fill:#404144;fill-opacity:1;fill-rule:nonzero;stroke:none"
         id="path162" />
      <path
         d="m 844.867,3148.6 0.696,2.32 -0.696,-2.32"
         style="fill:#404144;fill-opacity:1;fill-rule:nonzero;stroke:none"
         id="path164" />
      <path
         d="m 592.676,2859.21 -1.547,2.19 1.547,-2.19"
         style="fill:#404144;fill-opacity:1;fill-rule:nonzero;stroke:none"
         id="path166" />
      <path
         d="m 853.906,3185.62 0.082,0.42 -0.082,-0.42"
         style="fill:#404144;fill-opacity:1;fill-rule:nonzero;stroke:none"
         id="path168" />
      <path
         d="m 850.82,3170.7 c 0.27,1.17 0.547,2.33 0.805,3.52 -0.258,-1.19 -0.535,-2.35 -0.805,-3.52"
         style="fill:#404144;fill-opacity:1;fill-rule:nonzero;stroke:none"
         id="path170" />
      <path
         d="m 855.969,3198.48 c 0.183,1.29 0.344,2.61 0.519,3.91 -0.175,-1.3 -0.336,-2.62 -0.519,-3.91"
         style="fill:#404144;fill-opacity:1;fill-rule:nonzero;stroke:none"
         id="path172" />
      <path
         d="m 847.949,3159.19 c 0.321,1.17 0.625,2.35 0.934,3.54 -0.309,-1.19 -0.613,-2.37 -0.934,-3.54"
         style="fill:#404144;fill-opacity:1;fill-rule:nonzero;stroke:none"
         id="path174" />
      <path
         d="m 653.574,2734.05 0.461,0.28 -0.461,-0.28"
         style="fill:#404144;fill-opacity:1;fill-rule:nonzero;stroke:none"
         id="path176" />
      <path
         d="m 859.969,3245.11 c 0.039,1.15 0.051,2.35 0.086,3.52 -0.035,-1.17 -0.047,-2.37 -0.086,-3.52"
         style="fill:#404144;fill-opacity:1;fill-rule:nonzero;stroke:none"
         id="path178" />
      <path
         d="m 858.984,3227 c 0.082,1.15 0.184,2.27 0.258,3.43 -0.074,-1.16 -0.176,-2.28 -0.258,-3.43"
         style="fill:#404144;fill-opacity:1;fill-rule:nonzero;stroke:none"
         id="path180" />
      <path
         d="m 857.625,3211.85 c 0.16,1.47 0.316,2.95 0.461,4.45 -0.145,-1.5 -0.301,-2.98 -0.461,-4.45"
         style="fill:#404144;fill-opacity:1;fill-rule:nonzero;stroke:none"
         id="path182" />
      <path
         d="m 304.867,2825.19 h 3.453 v 33.33 h 12.653 v 2.95 h -28.758 v -2.95 h 12.652 v -33.33"
         style="fill:#1d3b60;fill-opacity:1;fill-rule:nonzero;stroke:none"
         id="path184" />
      <path
         d="M 349.383,2845.72 H 327.84 v 15.75 h -3.457 v -36.28 h 3.457 v 17.58 h 21.543 v -17.58 h 3.453 v 36.28 h -3.453 v -15.75"
         style="fill:#1d3b60;fill-opacity:1;fill-rule:nonzero;stroke:none"
         id="path186" />
      <path
         d="m 363.617,2842.47 h 20.223 v 2.94 h -20.223 v 13.11 h 21.594 v 2.95 H 360.16 v -36.28 h 25.305 v 2.95 h -21.848 v 14.33"
         style="fill:#1d3b60;fill-opacity:1;fill-rule:nonzero;stroke:none"
         id="path188" />
      <path
         d="m 292.215,2698.88 h 3.453 v 17.27 h 17.379 v 2.95 h -17.379 v 13.11 h 19.562 v 2.95 h -23.015 v -36.28"
         style="fill:#1d3b60;fill-opacity:1;fill-rule:nonzero;stroke:none"
         id="path190" />
      <path
         d="m 334.695,2701.06 c -9.601,0 -13.668,8.03 -13.668,15.96 0,7.92 4.067,15.95 13.668,15.95 9.555,0 13.618,-8.03 13.618,-15.95 0,-7.93 -4.063,-15.96 -13.618,-15.96 z m 0,34.86 c -11.433,0 -17.125,-8.95 -17.125,-18.9 0,-9.97 5.692,-18.91 17.125,-18.91 11.383,0 17.075,8.94 17.075,18.91 0,9.95 -5.692,18.9 -17.075,18.9"
         style="fill:#1d3b60;fill-opacity:1;fill-rule:nonzero;stroke:none"
         id="path192" />
      <path
         d="m 381.551,2712.7 c 0,-8.39 -3.91,-11.64 -10.668,-11.64 -6.707,0 -10.621,3.25 -10.621,11.64 v 22.46 h -3.453 v -23.23 c 0,-7.47 4.062,-13.82 14.074,-13.82 10.109,0 14.125,6.35 14.125,13.82 v 23.23 h -3.457 v -22.46"
         style="fill:#1d3b60;fill-opacity:1;fill-rule:nonzero;stroke:none"
         id="path194" />
      <path
         d="m 417.023,2704.46 h -0.097 l -21.141,30.7 h -3.859 v -36.28 h 3.453 v 30.69 h 0.101 l 21.137,-30.69 h 3.863 v 36.28 h -3.457 v -30.7"
         style="fill:#1d3b60;fill-opacity:1;fill-rule:nonzero;stroke:none"
         id="path196" />
      <path
         d="m 438.578,2701.82 h -7.371 v 30.39 h 7.371 c 10.414,0 14.938,-4.32 14.938,-15.19 0,-10.88 -4.524,-15.2 -14.938,-15.2 z m 1.727,33.34 h -12.551 v -36.28 h 12.551 c 10.976,0.25 16.668,6.14 16.668,18.14 0,11.99 -5.692,17.88 -16.668,18.14"
         style="fill:#1d3b60;fill-opacity:1;fill-rule:nonzero;stroke:none"
         id="path198" />
      <path
         d="m 467.699,2713.1 7.266,18.6 7.012,-18.6 z m 5.489,22.06 -14.637,-36.28 h 3.711 l 4.371,11.28 h 16.512 l 4.421,-11.28 h 3.711 l -14.23,36.28 h -3.859"
         style="fill:#1d3b60;fill-opacity:1;fill-rule:nonzero;stroke:none"
         id="path200" />
      <path
         d="m 503.324,2698.88 v 33.33 h 12.653 v 2.95 h -28.762 v -2.95 h 12.652 v -33.33 h 3.457"
         style="fill:#1d3b60;fill-opacity:1;fill-rule:nonzero;stroke:none"
         id="path202" />
      <path
         d="m 519.641,2698.88 h 3.453 v 36.28 h -3.453 v -36.28"
         style="fill:#1d3b60;fill-opacity:1;fill-rule:nonzero;stroke:none"
         id="path204" />
      <path
         d="m 545.859,2732.97 c 9.551,0 13.618,-8.03 13.618,-15.95 0,-7.93 -4.067,-15.96 -13.618,-15.96 -9.605,0 -13.668,8.03 -13.668,15.96 0,7.92 4.063,15.95 13.668,15.95 z m 0,-34.86 c 11.383,0 17.075,8.94 17.075,18.91 0,9.95 -5.692,18.9 -17.075,18.9 -11.433,0 -17.125,-8.95 -17.125,-18.9 0,-9.97 5.692,-18.91 17.125,-18.91"
         style="fill:#1d3b60;fill-opacity:1;fill-rule:nonzero;stroke:none"
         id="path206" />
      <path
         d="m 593.273,2704.46 -21.136,30.7 h -3.864 v -36.28 h 3.457 v 30.69 h 0.102 l 21.137,-30.69 h 3.863 v 36.28 h -3.457 v -30.7 h -0.102"
         style="fill:#1d3b60;fill-opacity:1;fill-rule:nonzero;stroke:none"
         id="path208" />
      <path
         d="m 340.945,2766.11 h -28.73 v 48.28 h -20 v -64.92 h 48.73 v 16.64"
         style="fill:#1d3b60;fill-opacity:1;fill-rule:nonzero;stroke:none"
         id="path210" />
      <path
         d="m 374.031,2814.39 h -20 v -64.92 h 20 v 64.92"
         style="fill:#1d3b60;fill-opacity:1;fill-rule:nonzero;stroke:none"
         id="path212" />
      <path
         d="m 407.852,2784.93 h 0.179 l 19.91,-35.46 h 19.457 v 64.92 h -18.91 v -34.73 h -0.183 l -18.91,34.73 h -20.454 v -64.92 h 18.911 v 35.46"
         style="fill:#1d3b60;fill-opacity:1;fill-rule:nonzero;stroke:none"
         id="path214" />
      <path
         d="m 462.121,2814.39 v -39.82 c 0,-18.1 9.637,-26.64 29.637,-26.64 20.004,0 29.547,8.54 29.547,26.64 v 39.82 h -20 v -35.37 c 0,-6.55 0,-14.91 -9.457,-14.91 -9.817,0 -9.727,8.36 -9.727,14.91 v 35.37 h -20"
         style="fill:#1d3b60;fill-opacity:1;fill-rule:nonzero;stroke:none"
         id="path216" />
      <path
         d="m 552.574,2749.47 11.457,19.37 11.09,-19.37 h 24.094 l -23.184,34.37 20.821,30.55 h -22.184 l -9.637,-17.64 -9.82,17.64 h -23.453 l 21.363,-30.37 -23.457,-34.55 h 22.91"
         style="fill:#1d3b60;fill-opacity:1;fill-rule:nonzero;stroke:none"
         id="path218" />
      <path
         d="m 133.398,2796.78 h -32.695 v -97.9 h 97.942 v 32.63 h -65.247 v 65.27"
         style="fill:#4f8ad0;fill-opacity:1;fill-rule:nonzero;stroke:none"
         id="path220" />
      <path
         d="m 100.727,2813.13 h 32.625 v 16.18 h 97.91 v -97.8 h -16.293 v -32.63 h 48.918 v 163.21 h -163.16 v -48.96"
         style="fill:#1d3b60;fill-opacity:1;fill-rule:nonzero;stroke:none"
         id="path222" />
      <path
         d="m 561.25,3098 c -17.5,18.75 -16.449,33.75 -16.449,33.75 15.637,-34.17 55.617,-58.12 55.617,-58.12 -11.668,-0.62 -21.668,5.62 -39.168,24.37 m 305.418,87.23 c 22.5,-156.09 -107.242,-183.2 -107.242,-183.2 95.254,53.2 107.242,183.2 107.242,183.2 m -432.086,-7.65 c 2.184,12.11 16.668,11.25 16.668,11.25 -18.332,-10 0.418,-41.67 0.418,-41.67 0,0 -19.266,18.3 -17.086,30.42 m 638.668,373.97 c 0,0 -123.996,-24.29 -168.805,-79.59 0,0 29.008,101.18 168.805,79.59 m 111.54,-1080.48 c 0.32,20.75 0.96,39.91 1.86,57.67 l 0.04,0.68 c -54.31,-33.24 -103.46,-45.88 -149.19,-46.99 v -0.5 c 0,0 -208.18,26.4 -252.957,268.52 0,0 -19.457,109.74 61.637,240.55 48.855,78.8 69.836,131.33 78.328,166.52 -9.625,10.3 -17.789,21.93 -22.809,35.07 -4.207,5.7 -7.773,11.8 -10.265,18.45 -1.067,2.84 -1.782,5.57 -2.235,8.23 -0.312,2.05 -0.515,4.02 -0.551,5.85 l -0.019,0.26 0.012,-0.02 c -0.149,20.28 16.828,34.98 33.664,46.75 -9.942,0.87 -20.582,5.52 -28.563,18.76 -20.082,33.31 -10.062,123.45 41.617,118.28 51.684,-5.17 44.004,-99.15 44.004,-99.15 12.414,6.13 22.317,9.57 22.317,9.57 8.71,0.69 15.48,0.66 21.71,-0.24 l -0.01,0.01 c 0,0 -7.05,99.29 67.02,99.29 74.08,0 62.12,-138.77 39.67,-155.52 l -0.01,-0.02 c 12.06,-8.57 18.32,-16.94 20.37,-25.05 0.48,-1.93 0.69,-3.84 0.72,-5.74 2.23,-1.09 3.36,-2.82 3.36,-6.92 0.01,-8.71 -4.57,-19.61 -11.5,-30.88 -0.49,-31.57 10.1,-91.3 82.69,-203.38 51.37,-79.3 63.77,-144.22 64.14,-187.6 9.27,2.81 18.84,4.05 28.44,3.94 22.48,50 -18.57,166.76 -18.57,166.76 45,-49.7 45.51,-150.84 45.17,-170.44 18.99,-5.01 36.94,-14.76 51.3,-27.72 35.32,-31.87 20.71,-52.93 20.71,-52.93 l -0.02,-0.01 c 12.88,-0.35 25.5,-3.77 38.39,-12.59 l 1.83,-1.44 c 2.15,10.18 3.97,20.27 5.49,30.23 l 0.05,0.36 c 1.48,9.76 2.66,19.37 3.53,28.79 l 0.1,0.96 c 0.84,9.25 1.41,18.31 1.69,27.1 l 0.05,1.09 c 0.27,9.01 0.27,17.75 -0.04,26.12 -4.59,126.6 -94.17,202.4 -135.52,255.22 -41.34,52.84 -84.98,87.29 -87.28,254.97 -2.3,167.67 -73.5,257.25 -202.13,254.96 -128.628,-2.3 -200.737,-65.93 -183.757,-288.7 0.329,-5.94 0.551,-11.69 0.719,-17.35 0.055,-1.71 0.078,-3.39 0.117,-5.08 0.09,-4 0.145,-7.94 0.157,-11.8 0.004,-1.75 0.007,-3.5 -0.004,-5.23 -0.024,-4.11 -0.098,-8.14 -0.207,-12.1 -0.032,-1.17 -0.047,-2.37 -0.086,-3.52 -0.172,-5.02 -0.418,-9.91 -0.727,-14.68 -0.074,-1.16 -0.176,-2.28 -0.258,-3.43 -0.265,-3.63 -0.558,-7.2 -0.898,-10.7 -0.145,-1.5 -0.301,-2.98 -0.461,-4.45 -0.348,-3.21 -0.727,-6.36 -1.141,-9.46 -0.171,-1.3 -0.336,-2.62 -0.515,-3.91 -0.61,-4.24 -1.258,-8.41 -1.981,-12.44 l -0.082,-0.42 c -0.707,-3.9 -1.472,-7.68 -2.281,-11.4 -0.258,-1.19 -0.535,-2.35 -0.805,-3.52 -0.621,-2.7 -1.265,-5.36 -1.937,-7.97 -0.309,-1.19 -0.617,-2.37 -0.934,-3.54 -0.765,-2.81 -1.562,-5.57 -2.386,-8.27 l -0.696,-2.32 c -1.066,-3.4 -2.183,-6.71 -3.344,-9.94 l -0.902,-2.41 c -0.898,-2.43 -1.816,-4.82 -2.762,-7.16 -0.418,-1.02 -0.839,-2.04 -1.269,-3.05 -0.914,-2.19 -1.852,-4.33 -2.813,-6.43 l -1.187,-2.62 c -1.348,-2.88 -2.723,-5.7 -4.145,-8.45 l -0.347,-0.65 c -1.325,-2.53 -2.676,-5.01 -4.051,-7.45 l -1.449,-2.5 c -1.067,-1.83 -2.145,-3.64 -3.235,-5.41 l -1.558,-2.51 c -1.231,-1.94 -2.477,-3.86 -3.739,-5.74 l -1.058,-1.6 c -1.61,-2.36 -3.246,-4.68 -4.899,-6.97 l -1.386,-1.87 c -1.239,-1.67 -2.485,-3.34 -3.743,-4.97 l -1.773,-2.28 c -1.215,-1.55 -2.437,-3.08 -3.668,-4.6 l -1.621,-1.99 c -1.715,-2.08 -3.438,-4.14 -5.176,-6.17 l -0.918,-1.06 c -1.496,-1.73 -2.996,-3.45 -4.5,-5.14 l -1.945,-2.19 c -1.184,-1.32 -2.367,-2.64 -3.559,-3.94 l -2.136,-2.35 c -1.192,-1.3 -2.387,-2.6 -3.586,-3.89 -1.328,-1.44 -2.66,-2.87 -3.993,-4.3 -0.855,-0.92 -1.71,-1.85 -2.57,-2.76 l -2.082,-1.77 c -1.926,-1.7 -3.851,-3.41 -5.75,-4.86 l -0.613,-0.43 c -2.375,-1.79 -4.735,-3.44 -7.067,-4.87 -0.945,-0.58 -1.867,-0.98 -2.804,-1.5 -1.578,-0.88 -3.164,-1.82 -4.723,-2.54 -1.121,-0.51 -2.215,-0.85 -3.328,-1.28 -1.348,-0.54 -2.707,-1.15 -4.039,-1.57 l -0.652,-0.15 c -2.2,-0.67 -4.387,-1.22 -6.539,-1.58 l -2.133,-0.22 c -1.637,-0.2 -3.282,-0.43 -4.887,-0.48 l -1.809,0.07 c -1.687,0.01 -3.375,0.02 -5.031,0.2 l -0.375,0.07 c -2.117,0.24 -4.211,0.59 -6.273,1.09 l -0.723,0.22 c -8.465,2.17 -16.441,6.34 -23.855,11.86 l -0.18,0.15 c -3.746,2.81 -7.356,5.95 -10.809,9.34 l -0.75,0.77 c -4.293,4.29 -8.336,8.95 -12.14,13.79 -1.325,1.69 -2.614,3.38 -3.875,5.11 -2.258,3.08 -4.446,6.19 -6.496,9.32 l -0.231,0.37 c -2.41,3.69 -4.66,7.37 -6.773,10.99 -2.325,3.99 -4.461,7.88 -6.41,11.6 -1.118,2.14 -2.192,4.23 -3.184,6.23 -1.184,2.39 -2.238,4.61 -3.234,6.74 -0.911,1.95 -1.739,3.77 -2.489,5.46 -0.57,1.29 -1.09,2.48 -1.566,3.59 -0.711,1.66 -1.348,3.19 -1.836,4.38 -1.024,2.52 -1.551,3.95 -1.551,3.95 l -0.035,-0.02 -0.008,0.04 -0.008,0.03 c -7.484,9.14 -65.566,37.04 -80.312,28.08 -14.766,-8.97 -5.57,-26.77 19.504,-55.29 25.07,-28.51 41.191,-19.62 41.191,-19.62 -13.07,-11.86 -33.305,0.79 -36.969,4.4 -1.171,1.16 -7.253,6.52 -14.293,13.99 -14.597,-3.02 -31.418,-1.01 -42.312,15.98 -18.246,28.45 -12,35.48 -10.824,36.46 l -0.028,-0.01 -0.437,1 c -3.332,7.51 -26.563,57.67 -51.582,56.58 -1.77,-0.08 -3.551,-0.4 -5.336,-1.03 -28.992,-10.18 -1.738,-39.09 8.746,-54.94 8.227,-12.44 32.578,-57.29 52.172,-90.65 0,0 17.476,-54.2 46.332,-112.99 l 0.492,-0.99 c 1.641,-3.33 3.32,-6.67 5.031,-10.02 0.703,-1.38 1.434,-2.75 2.149,-4.14 1.203,-2.31 2.414,-4.63 3.648,-6.95 0.996,-1.86 2.016,-3.71 3.031,-5.57 1,-1.83 2.004,-3.66 3.024,-5.48 1.211,-2.16 2.441,-4.31 3.68,-6.46 0.855,-1.48 1.711,-2.96 2.578,-4.43 1.398,-2.37 2.812,-4.72 4.246,-7.06 0.738,-1.22 1.48,-2.43 2.23,-3.63 1.563,-2.51 3.133,-4.98 4.731,-7.44 0.636,-0.99 1.281,-1.96 1.926,-2.94 1.726,-2.61 3.468,-5.2 5.234,-7.75 l 1.547,-2.19 c 1.906,-2.71 3.828,-5.39 5.781,-8.01 l 1.07,-1.4 c 2.129,-2.83 4.274,-5.6 6.45,-8.3 l 0.261,-0.3 c 16.7,-20.6 34.828,-37.06 53.934,-45.81 66.898,25.62 84.246,149.24 84.246,149.24 15.5,-109.15 -85.184,-187.72 -85.184,-187.72 l -0.097,0.57 c -0.145,-6.78 -0.114,-13.63 0.097,-20.53 v -0.04 c 7.227,2.97 17.071,4.97 30.645,5.56 75.223,3.25 84.41,-74.08 172.269,-189.5 54.7,-71.86 59.981,-116.33 56.176,-139.67 h 0.012 c 3.305,-0.32 6.82,-0.64 10.5,-0.96 l 2.039,-0.17 c 2.996,-0.26 6.09,-0.51 9.309,-0.76 1.015,-0.08 2.066,-0.15 3.105,-0.23 3.172,-0.24 6.438,-0.47 9.801,-0.69 0.93,-0.06 1.859,-0.13 2.808,-0.19 4.032,-0.26 8.172,-0.5 12.446,-0.74 l 0.914,-0.05 c 14.601,-0.78 30.547,-1.37 47.422,-1.61 l 0.71,-0.01 c 51.21,-0.71 110.95,1.87 168.27,12.31 v 0 c -0.81,14.32 -1.17,31.07 -0.87,50.87"
         style="fill:#191a1a;fill-opacity:1;fill-rule:nonzero;stroke:none"
         id="path224" />
      <path
         d="m 905.668,3345.13 c 2.984,17.65 39.934,33.31 47.93,-1.14 5.933,-25.58 3.828,-40.83 1.851,-48.13 7.797,5.61 16.313,10.38 23.914,14.14 0,0 7.68,93.98 -44.004,99.15 -51.679,5.17 -61.699,-84.97 -41.617,-118.28 7.981,-13.24 18.621,-17.89 28.567,-18.76 3.976,2.78 7.921,5.39 11.66,7.87 -28.578,6.76 -31.989,47.75 -28.301,65.15"
         style="fill:#ffffff;fill-opacity:1;fill-rule:nonzero;stroke:none"
         id="path226" />
      <path
         d="m 744.422,2944.63 c 0,0 -17.352,-123.62 -84.25,-149.24 -2.274,-0.87 -4.598,-1.64 -6.988,-2.28 l 5.953,-35.63 0.097,-0.57 c 0,0 100.684,78.57 85.188,187.72"
         style="fill:#ffffff;fill-opacity:1;fill-rule:nonzero;stroke:none"
         id="path228" />
      <path
         d="m 1064.56,3360.05 c 5.17,7.75 33.6,23.26 43.93,-13.78 10.31,-36.95 -11.87,-63.48 -11.98,-63.6 6.25,-3.56 12.96,-7.34 20.6,-11.53 4.92,-2.7 9.2,-5.38 12.95,-8.05 l 0.01,0.01 c 22.45,16.76 34.41,155.53 -39.67,155.53 -74.07,0 -67.02,-99.28 -67.02,-99.28 l 0.01,-0.02 c 11.14,-1.61 20.57,-6.14 35.72,-14.88 -10.04,30.73 0.84,48.68 5.45,55.6"
         style="fill:#ffffff;fill-opacity:1;fill-rule:nonzero;stroke:none"
         id="path230" />
      <path
         d="m 1066.32,3350.23 c 0,0 19.96,26.04 37.77,-3.44 0,0 -18.19,9.92 -37.77,3.44 z m 42.17,-3.96 c -10.33,37.04 -38.76,21.53 -43.93,13.78 -4.61,-6.92 -15.49,-24.87 -5.45,-55.6 9.51,-5.49 21.41,-12.66 37.4,-21.78 0.11,0.12 22.29,26.65 11.98,63.6"
         style="fill:#070807;fill-opacity:1;fill-rule:nonzero;stroke:none"
         id="path232" />
      <path
         d="m 901.699,3192.59 c 5.02,-13.14 13.184,-24.77 22.809,-35.07 0.918,3.8 1.683,7.39 2.328,10.79 -9.543,6.94 -18.273,15.01 -25.137,24.28"
         style="fill:#191a1a;fill-opacity:1;fill-rule:nonzero;stroke:none"
         id="path234" />
      <path
         d="m 924.508,3157.52 v 0 c -9.625,10.3 -17.789,21.93 -22.809,35.07 6.864,-9.27 15.594,-17.34 25.137,-24.28 -0.645,-3.4 -1.41,-6.99 -2.328,-10.79"
         style="fill:#131414;fill-opacity:1;fill-rule:nonzero;stroke:none"
         id="path236" />
      <path
         d="m 1143.01,3194.5 c 6.93,11.27 11.51,22.17 11.5,30.88 0,4.1 -1.13,5.83 -3.36,6.92 0.11,-6.57 -2.35,-12.94 -6.5,-19.09 -0.71,-4.74 -1.51,-10.85 -1.64,-18.71"
         style="fill:#191a1a;fill-opacity:1;fill-rule:nonzero;stroke:none"
         id="path238" />
      <path
         d="m 1143.01,3194.5 c 0.13,7.86 0.93,13.97 1.64,18.71 v 0 0 0 0 c 4.06,6 6.49,12.22 6.5,18.63 0,0.15 0,0.3 0,0.46 2.23,-1.09 3.36,-2.82 3.36,-6.92 0.01,-8.71 -4.57,-19.61 -11.5,-30.88"
         style="fill:#131414;fill-opacity:1;fill-rule:nonzero;stroke:none"
         id="path240" />
      <path
         d="m 989.445,3108.65 c 26.695,-17.1 65.465,3.45 101.645,29.29 16.05,11.47 38.48,34.71 51.92,56.56 0.13,7.86 0.93,13.97 1.64,18.71 -12.14,-17.96 -38.61,-33.94 -56.83,-46.96 -36.18,-25.84 -70.41,-42.27 -99.382,-29.29 -16,6.11 -40.625,16.09 -61.602,31.35 -0.645,-3.4 -1.41,-6.99 -2.328,-10.79 20.441,-21.86 47.445,-37.66 64.937,-48.87"
         style="fill:#ffffff;fill-opacity:1;fill-rule:nonzero;stroke:none"
         id="path242" />
      <path
         d="m 1011.99,3102.38 c -8.14,0 -15.732,1.91 -22.545,6.27 -17.492,11.21 -44.496,27.01 -64.937,48.87 0.918,3.8 1.683,7.39 2.328,10.79 20.977,-15.26 45.602,-25.24 61.602,-31.35 6.968,-3.12 14.232,-4.54 21.762,-4.54 23.78,0 50.14,14.2 77.62,33.83 18.22,13.02 44.69,29 56.83,46.96 -0.71,-4.74 -1.51,-10.85 -1.64,-18.71 v 0 0 c -13.44,-21.85 -35.87,-45.09 -51.92,-56.56 -26.95,-19.25 -55.34,-35.56 -79.1,-35.56"
         style="fill:#d4d5d4;fill-opacity:1;fill-rule:nonzero;stroke:none"
         id="path244" />
      <path
         d="m 911.352,3345.99 c 0,0 19.961,26.05 37.777,-3.44 0,0 -18.199,9.91 -37.777,3.44 z m 42.246,-2 c -7.996,34.45 -44.946,18.79 -47.93,1.14 -3.688,-17.4 -0.277,-58.39 28.301,-65.15 5.519,3.68 10.554,7.08 14.312,10.31 2.274,1.94 4.692,3.79 7.168,5.57 1.977,7.3 4.082,22.55 -1.851,48.13"
         style="fill:#070807;fill-opacity:1;fill-rule:nonzero;stroke:none"
         id="path246" />
      <path
         d="m 1396.18,2776.06 c -14.36,12.96 -32.31,22.71 -51.31,27.72 0.35,19.6 -0.16,120.74 -45.16,170.44 0,0 41.05,-116.76 18.57,-166.76 -9.6,0.11 -19.17,-1.13 -28.44,-3.94 -0.37,43.38 -12.77,108.3 -64.14,187.6 -72.59,112.08 -83.18,171.81 -82.69,203.38 -13.44,-21.85 -35.87,-45.09 -51.92,-56.56 -36.18,-25.84 -74.95,-46.39 -101.645,-29.29 -17.492,11.21 -44.496,27.01 -64.937,48.87 -8.492,-35.19 -29.473,-87.72 -78.332,-166.52 -81.09,-130.81 -61.633,-240.55 -61.633,-240.55 44.777,-242.12 252.957,-268.52 252.957,-268.52 v 0.5 c 45.73,1.11 94.88,13.75 149.19,46.99 10.99,213.22 61.71,219.25 87.3,211.04 -4.88,21.81 -3.56,41.63 -3.56,41.63 60.29,46.51 156.76,-24.12 138.05,-59.16 2.81,0.2 5.61,0.26 8.39,0.19 l 0.02,0.01 c 0,0 14.61,21.06 -20.71,52.93"
         style="fill:#ffffff;fill-opacity:1;fill-rule:nonzero;stroke:none"
         id="path248" />
      <path
         d="m 1270.43,2782.09 c 0,0 -1.32,-19.82 3.56,-41.63 4.96,-1.58 8.98,-3.7 11.58,-4.95 24.98,-12.06 30.15,-35.32 68.05,-24.98 19.75,5.39 37.63,11.2 54.86,12.4 18.71,35.04 -77.76,105.67 -138.05,59.16"
         style="fill:#191a1a;fill-opacity:1;fill-rule:nonzero;stroke:none"
         id="path250" />
      <path
         d="m 911.352,3345.99 c 19.578,6.47 37.777,-3.44 37.777,-3.44 -17.816,29.49 -37.777,3.44 -37.777,3.44"
         style="fill:#ffffff;fill-opacity:1;fill-rule:nonzero;stroke:none"
         id="path252" />
      <path
         d="m 1066.32,3350.23 c 19.58,6.48 37.77,-3.44 37.77,-3.44 -17.81,29.48 -37.77,3.44 -37.77,3.44"
         style="fill:#ffffff;fill-opacity:1;fill-rule:nonzero;stroke:none"
         id="path254" />
      <path
         d="m 909.746,3209 1.973,2.6 c 0.5,-0.37 49.621,-37.3 95.161,-32.98 46.13,4.45 105.66,30.59 123.3,46.05 l 2.15,-2.46 c 12.21,8.42 18.43,14.72 18.1,15.83 v 0 c -2.05,8.11 -8.31,16.48 -20.37,25.05 -3.75,2.67 -8.03,5.35 -12.95,8.05 -7.64,4.19 -14.35,7.97 -20.6,11.53 -15.99,9.12 -27.89,16.29 -37.4,21.78 -15.15,8.74 -24.58,13.27 -35.72,14.88 -6.23,0.9 -13,0.93 -21.71,0.24 0,0 -9.903,-3.44 -22.317,-9.57 -7.601,-3.76 -16.117,-8.53 -23.914,-14.14 -2.476,-1.78 -4.894,-3.63 -7.168,-5.57 -3.758,-3.23 -8.793,-6.63 -14.312,-10.31 -3.739,-2.48 -7.684,-5.09 -11.66,-7.87 -16.84,-11.77 -33.817,-26.47 -33.668,-46.75 0.089,-0.1 7.996,-7.4 21.105,-16.36"
         style="fill:#f9cb2c;fill-opacity:1;fill-rule:nonzero;stroke:none"
         id="path256" />
      <path
         d="m 926.836,3168.31 c 20.977,-15.26 45.602,-25.24 61.602,-31.35 28.972,-12.98 63.202,3.45 99.382,29.29 18.22,13.02 44.69,29 56.83,46.96 4.15,6.15 6.61,12.52 6.5,19.09 -0.03,1.9 -0.24,3.81 -0.72,5.74 v 0 c 0.33,-1.11 -5.89,-7.41 -18.1,-15.83 l 2.18,-2.49 c -18.06,-15.84 -77.93,-42.92 -127,-47.65 -2.8,-0.27 -5.62,-0.41 -8.416,-0.41 -45.278,0 -89.399,33.2 -91.36,34.7 l 2.012,2.64 c -13.109,8.96 -21.016,16.26 -21.105,16.36 l -0.016,0.02 0.027,-0.26 c 0.032,-1.83 0.235,-3.8 0.547,-5.85 0.453,-2.66 1.168,-5.39 2.235,-8.23 2.492,-6.65 6.058,-12.75 10.265,-18.45 6.864,-9.27 15.594,-17.34 25.137,-24.28"
         style="fill:#e4a321;fill-opacity:1;fill-rule:nonzero;stroke:none"
         id="path258" />
      <path
         d="m 702.32,2721.61 c 47.137,-17.59 57.93,-57.89 57.93,-57.89 0,0 -74.488,78.84 -101.234,11 0,0 -3.832,64.49 43.304,46.89 z m 159.828,-168.64 c -87.859,115.42 -97.046,192.75 -172.269,189.49 -13.574,-0.58 -23.418,-2.58 -30.645,-5.55 h -0.004 c -1.921,-0.8 -3.628,-1.66 -5.195,-2.58 l -0.461,-0.28 c -3.109,-1.88 -5.566,-4.01 -7.488,-6.32 l -0.078,-0.09 c -0.953,-1.16 -1.781,-2.37 -2.5,-3.61 l -0.125,-0.22 c -1.438,-2.52 -2.457,-5.2 -3.203,-7.95 l -0.004,-0.02 c -1.582,-5.86 -2.016,-12.06 -2.91,-17.95 l -0.457,-2.66 -0.184,-0.98 c -0.234,-1.14 -0.516,-2.25 -0.828,-3.35 l -0.258,-0.85 c -0.355,-1.14 -0.754,-2.25 -1.23,-3.32 l -0.176,-0.35 c -0.469,-1.01 -1.012,-1.98 -1.621,-2.92 l -0.36,-0.56 c -0.672,-0.98 -1.449,-1.91 -2.316,-2.8 l -0.543,-0.53 c -0.945,-0.9 -1.965,-1.77 -3.156,-2.57 -12.035,-8.02 -27.801,-10.08 -43.477,-13.28 0,0 -47.824,-26.34 -21.312,-72.26 26.511,-45.92 24.668,-46.26 15.418,-118.12 -9.25,-71.87 341.558,-60.04 341.558,-60.04 v -0.01 0.01 c 3.805,23.34 -1.476,67.81 -56.176,139.67"
         style="fill:#f9cb2c;fill-opacity:1;fill-rule:nonzero;stroke:none"
         id="path260" />
      <path
         d="m 576.766,2473.34 c 9.25,71.86 11.093,72.2 -15.418,118.12 -26.512,45.92 21.312,72.26 21.312,72.26 -4.5,-0.92 -8.988,-1.93 -13.379,-3.2 -4.394,-1.28 -8.687,-2.82 -12.793,-4.79 -8.211,-3.94 -15.672,-9.6 -21.652,-18.35 -22.398,-32.73 -10.34,-63.74 0,-101.64 10.336,-37.9 -12.922,-43.06 -24.981,-68.04 -8.277,-17.15 -54.394,-95.89 264.434,-100.78 130.926,-2.01 132.203,24.25 136.094,25.84 0,0 5.637,6.39 7.941,20.53 v 0.01 c 0,0 -350.808,-11.83 -341.558,60.04"
         style="fill:#e4a321;fill-opacity:1;fill-rule:nonzero;stroke:none"
         id="path262" />
      <path
         d="m 1262.67,2704.02 c 40.32,7.71 54.49,-32.38 54.49,-32.38 0,0 -62.39,46.26 -97.43,-83.26 0,0 2.63,107.93 42.94,115.64 z m 57.89,-303.46 c 80.29,60.35 246.46,130.72 184.77,210.2 -4.03,1.66 -7.62,4.22 -10.45,8.47 -1.07,1.6 -2.03,3.27 -2.9,5 l -0.54,1.19 c -0.65,1.38 -1.29,2.76 -1.85,4.19 l -0.27,0.78 c -9.43,25.2 -5.98,59.05 -32.23,78.7 l -1.83,1.44 c -12.89,8.82 -25.51,12.24 -38.39,12.59 -2.78,0.07 -5.58,0.01 -8.39,-0.19 -17.23,-1.2 -35.11,-7.01 -54.86,-12.4 -37.9,-10.34 -43.07,12.92 -68.05,24.98 -2.6,1.25 -6.62,3.37 -11.58,4.95 -25.59,8.21 -76.31,2.18 -87.3,-211.04 l -0.04,-0.68 c -0.9,-17.76 -1.54,-36.92 -1.86,-57.67 -0.3,-19.8 0.06,-36.55 0.87,-50.87 v -0.01 c 0.11,-1.96 0.24,-3.79 0.37,-5.66 0.15,-2.16 0.3,-4.28 0.47,-6.32 0.15,-1.77 0.29,-3.56 0.45,-5.25 0.3,-3.07 0.61,-5.99 0.95,-8.78 0.17,-1.38 0.35,-2.69 0.53,-4 0.29,-2.14 0.59,-4.22 0.91,-6.19 l 0.41,-2.59 c 0.46,-2.68 0.94,-5.18 1.44,-7.54 l 0.43,-1.99 c 0.54,-2.39 1.08,-4.69 1.64,-6.76 13.71,-4.76 60.39,-14.85 127.3,35.45"
         style="fill:#f9cb2c;fill-opacity:1;fill-rule:nonzero;stroke:none"
         id="path264" />
      <path
         d="m 1505.33,2610.76 c 61.69,-79.48 -104.48,-149.85 -184.77,-210.2 -66.91,-50.3 -113.59,-40.21 -127.3,-35.45 7.2,-26.44 16.45,-27.87 17.37,-30.13 0,0 44.79,-39.62 160.21,48.24 28.87,21.97 55.36,39.03 78.8,53.42 70.27,43.16 113.14,62.44 110.7,118.85 -2.68,61.85 -34.55,46.82 -55.01,55.27"
         style="fill:#e4a321;fill-opacity:1;fill-rule:nonzero;stroke:none"
         id="path266" />
      <path
         d="m 1073.25,3551.55 c -139.797,21.59 -168.805,-79.59 -168.805,-79.59 44.809,55.3 168.805,79.59 168.805,79.59"
         style="fill:#404144;fill-opacity:1;fill-rule:nonzero;stroke:none"
         id="path268" />
      <path
         d="m 1317.16,2671.64 c 0,0 -14.17,40.09 -54.49,32.38 -40.31,-7.71 -42.94,-115.64 -42.94,-115.64 35.04,129.52 97.43,83.26 97.43,83.26"
         style="fill:#f7d985;fill-opacity:1;fill-rule:nonzero;stroke:none"
         id="path270" />
      <path
         d="m 760.25,2663.72 c 0,0 -10.793,40.3 -57.93,57.89 -47.136,17.6 -43.304,-46.89 -43.304,-46.89 26.746,67.84 101.234,-11 101.234,-11"
         style="fill:#f7d985;fill-opacity:1;fill-rule:nonzero;stroke:none"
         id="path272" />
      <path
         d="m 1006.88,3178.62 c -45.54,-4.32 -94.661,32.61 -95.161,32.98 l -1.973,-2.6 -2.012,-2.64 c 1.961,-1.5 46.082,-34.7 91.36,-34.7 2.796,0 5.616,0.14 8.416,0.41 49.07,4.73 108.94,31.81 127,47.65 l -2.18,2.49 -2.15,2.46 c -17.64,-15.46 -77.17,-41.6 -123.3,-46.05"
         style="fill:#191a1a;fill-opacity:1;fill-rule:nonzero;stroke:none"
         id="path274" />
      <path
         d="m 619.633,3126.09 3.476,-13.03 c -1.011,4.21 -2.168,8.55 -3.476,13.03"
         style="fill:#191a1a;fill-opacity:1;fill-rule:nonzero;stroke:none"
         id="path276" />
      <path
         d="m 499.527,3136.45 -0.082,-0.05 c -0.855,-6.98 2.11,-15.8 11.922,-27.09 11.793,-13.56 23.649,-17.45 33.731,-17.24 -12.93,15.49 -24.707,35.56 -12.93,48.63 11.328,12.57 31.27,10.16 49.258,4.1 -0.895,3.18 -2,6.52 -3.508,10.13 -3.945,9.43 -8.676,14.64 -13.703,17.12 0,0 10.945,4.23 22.668,-21.57 1.387,-3.05 2.433,-6.02 3.262,-8.9 16.328,-6.67 29.238,-14.96 29.347,-15.04 l -0.019,0.06 c -4.399,14.95 -10.293,31.39 -16.899,49.58 -27.168,74.79 -34.554,103.66 -55.109,94.5 -20.289,-9.04 7.433,-71.96 16.715,-98.72 -13.422,6.6 -28.953,-6.19 -37.297,-10.58 -7.715,-4.05 -25.539,-10.61 -27.356,-24.93"
         style="fill:#191a1a;fill-opacity:1;fill-rule:nonzero;stroke:none"
         id="path278" />
      <path
         d="m 590.145,3141.58 c -0.829,2.88 -1.875,5.85 -3.262,8.9 -11.723,25.8 -22.668,21.57 -22.668,21.57 5.027,-2.48 9.758,-7.69 13.703,-17.12 1.508,-3.61 2.613,-6.95 3.508,-10.13 -17.988,6.06 -37.93,8.47 -49.258,-4.1 -11.777,-13.07 0,-33.14 12.93,-48.63 -10.082,-0.21 -21.938,3.68 -33.731,17.24 -9.812,11.29 -12.777,20.11 -11.922,27.09 l 0.004,0.05 -0.187,-0.15 c -1.176,-0.98 -7.422,-8.01 10.824,-36.46 10.894,-16.99 27.711,-19 42.312,-15.98 7.04,-7.47 13.122,-12.83 14.293,-13.99 3.664,-3.61 23.899,-16.26 36.969,-4.4 0,0 -16.121,-8.89 -41.191,19.62 -25.074,28.52 -34.27,46.32 -19.504,55.29 14.746,8.96 72.832,-18.94 80.312,-28.08 v 0 l 0.051,-0.05 -0.219,0.81 -3.476,13.03 -0.121,0.44 -0.02,0.01 c -0.109,0.08 -13.019,8.37 -29.347,15.04"
         style="fill:#ffffff;fill-opacity:1;fill-rule:nonzero;stroke:none"
         id="path280" />
      <path
         d="m 451.25,3188.83 c 0,0 -14.484,0.86 -16.668,-11.25 -2.18,-12.12 17.086,-30.42 17.086,-30.42 0,0 -18.75,31.67 -0.418,41.67"
         style="fill:#404144;fill-opacity:1;fill-rule:nonzero;stroke:none"
         id="path282" />
      <path
         d="m 544.801,3131.75 c 0,0 -1.051,-15 16.449,-33.75 17.5,-18.75 27.5,-24.99 39.168,-24.37 0,0 -39.98,23.95 -55.617,58.12"
         style="fill:#404144;fill-opacity:1;fill-rule:nonzero;stroke:none"
         id="path284" />
      <path
         d="m 759.422,3002.03 c 0,0 129.746,27.11 107.246,183.2 0,0 -11.988,-130 -107.246,-183.2"
         style="fill:#404144;fill-opacity:1;fill-rule:nonzero;stroke:none"
         id="path286" />
      <path
         d="m 2557.76,3013.25 c 70.05,64.48 79.38,152.82 79.38,152.82 18.11,-61.68 -29.91,-157.28 -68.87,-177.46 -27.48,-14.24 -81.2,-73.36 -81.2,-73.36 0,0 13.09,44.98 70.69,98 m 291.52,538.3 c 0,0 -124,-24.29 -168.81,-79.59 0,0 29.01,101.18 168.81,79.59 m -211.11,-998.58 c 15.51,1.72 60.3,-6.89 57.15,39.62 -0.34,5 -1.79,9.93 -4.13,14.85 -10.51,22.1 -39.54,43.77 -72.04,68.52 -7.29,5.56 -14.76,11.28 -22.22,17.18 -20.76,16.42 -41.54,34.32 -58.67,54.59 -56.85,67.29 -15.51,136 -15.51,136 -10.33,-94.75 36.18,-120.59 36.18,-120.59 -15.5,56.85 34.45,187.77 82.69,260.22 40.02,60.11 43.34,131.78 43.32,154.52 -2.82,4.68 -5.25,9.58 -7.21,14.72 -4.21,5.69 -7.77,11.79 -10.27,18.44 -1.06,2.84 -1.78,5.58 -2.23,8.23 -0.32,2.05 -0.52,4.02 -0.55,5.85 l -0.03,0.26 0.02,-0.02 c -0.15,20.28 16.83,34.98 33.66,46.75 -9.94,0.87 -20.58,5.52 -28.56,18.76 -20.08,33.31 -10.06,123.45 41.62,118.28 51.68,-5.17 44,-99.15 44,-99.15 12.42,6.13 22.32,9.57 22.32,9.57 8.71,0.69 15.48,0.66 21.7,-0.24 v 0.01 c 0,0 -7.05,99.29 67.02,99.29 74.08,0 62.12,-138.77 39.67,-155.52 l -0.02,-0.02 c 12.06,-8.57 18.33,-16.94 20.37,-25.05 0.49,-1.93 0.69,-3.84 0.73,-5.74 2.23,-1.08 3.36,-2.82 3.36,-6.92 0.01,-7.86 -3.69,-17.5 -9.5,-27.58 -1.36,-31.08 7.24,-92.09 84.07,-210.71 49,-75.64 63.16,-138.43 65.05,-182.37 7.92,1.98 16.02,2.83 24.15,2.74 22.48,50 -18.57,166.76 -18.57,166.76 45,-49.7 45.51,-150.84 45.16,-170.44 19,-5.01 36.95,-14.76 51.31,-27.72 35.32,-31.87 20.71,-52.93 20.71,-52.93 l -0.02,-0.01 c 12.87,-0.35 25.5,-3.77 38.38,-12.59 l 1.83,-1.44 c 8.66,40.95 12.11,80.68 10.88,114.66 -4.59,126.59 -94.18,202.39 -135.52,255.21 -41.34,52.84 -84.99,87.29 -87.28,254.97 -2.3,167.67 -73.51,257.25 -202.13,254.96 -128.63,-2.3 -200.74,-65.93 -183.76,-288.7 11.49,-209.02 -75.8,-241.9 -133.22,-319.99 -28.17,-38.32 -70.13,-135.24 -66.82,-243.29 7.23,2.97 17.07,4.97 30.64,5.56 75.23,3.25 84.42,-74.08 172.27,-189.5"
         style="fill:#191a1a;fill-opacity:1;fill-rule:nonzero;stroke:none"
         id="path288" />
      <path
         d="m 2960.82,2471.07 c 0.24,15.55 0.66,30.21 1.23,44.06 -131.89,-78.66 -239.78,-39.08 -293.62,-7.36 26.29,-45.91 28.85,-76.49 25.92,-94.47 55.27,-5.31 165.22,-11.7 267.33,6.9 -0.8,14.32 -1.16,31.07 -0.86,50.87"
         style="fill:#191a1a;fill-opacity:1;fill-rule:nonzero;stroke:none"
         id="path290" />
      <path
         d="m 2876.87,2757.27 c -5.09,58.17 -65.52,76.99 -65.52,76.99 100.72,11.69 65.52,-76.99 65.52,-76.99 z m -12.72,99.5 c -17.89,8.73 -35.7,10.52 -53.45,5.38 -17.75,-5.13 -35.39,-17.13 -52.93,-35.97 3.83,25.71 2.33,47.09 -4.52,64.12 -6.84,17.04 -19.13,29.88 -36.87,38.53 -19.5,9.51 -39.04,11.19 -58.64,5.05 -19.6,-6.13 -33.83,-18.29 -42.69,-36.47 -6.08,-12.46 -9.31,-28.94 -9.69,-49.45 -0.38,-20.5 2.12,-44.03 7.49,-70.6 0.92,-4.07 2.18,-10.04 3.79,-17.91 2.77,-13.7 5.22,-26.72 7.4,-39.19 7.47,-5.91 14.93,-11.63 22.22,-17.19 32.5,-24.75 61.53,-46.42 72.05,-68.52 21.01,12.35 45.26,25.41 72.93,39.22 l 17.31,8.7 c 24.24,12.14 44.32,24.66 60.24,37.58 15.92,12.93 26.85,25.47 32.78,37.64 8.86,18.18 9.68,36.88 2.45,56.1 -7.23,19.22 -20.52,33.55 -39.87,42.98"
         style="fill:#e82523;fill-opacity:1;fill-rule:nonzero;stroke:none"
         id="path292" />
      <path
         d="m 2681.7,3345.13 c 2.98,17.66 39.93,33.31 47.93,-1.14 5.93,-25.58 3.82,-40.83 1.85,-48.12 7.8,5.61 16.31,10.38 23.91,14.13 0,0 7.68,93.98 -44,99.15 -51.68,5.17 -61.7,-84.97 -41.62,-118.28 7.98,-13.24 18.62,-17.89 28.56,-18.76 3.98,2.78 7.93,5.39 11.66,7.87 -28.57,6.76 -31.98,47.75 -28.29,65.15"
         style="fill:#ffffff;fill-opacity:1;fill-rule:nonzero;stroke:none"
         id="path294" />
      <path
         d="m 2840.59,3360.05 c 5.17,7.75 33.59,23.26 43.93,-13.78 10.31,-36.96 -11.88,-63.48 -11.98,-63.6 6.25,-3.56 12.96,-7.34 20.59,-11.53 4.93,-2.7 9.2,-5.38 12.95,-8.05 l 0.02,0.02 c 22.45,16.75 34.41,155.52 -39.67,155.52 -74.07,0 -67.02,-99.28 -67.02,-99.28 v -0.02 c 11.15,-1.61 20.57,-6.15 35.73,-14.88 -10.04,30.73 0.84,48.68 5.45,55.6"
         style="fill:#ffffff;fill-opacity:1;fill-rule:nonzero;stroke:none"
         id="path296" />
      <path
         d="m 2842.35,3350.23 c 0,0 19.96,26.04 37.77,-3.44 0,0 -18.2,9.92 -37.77,3.44 z m 42.17,-3.96 c -10.34,37.04 -38.76,21.53 -43.93,13.78 -4.61,-6.92 -15.49,-24.87 -5.45,-55.6 9.51,-5.49 21.41,-12.66 37.4,-21.78 0.1,0.12 22.29,26.64 11.98,63.6"
         style="fill:#070807;fill-opacity:1;fill-rule:nonzero;stroke:none"
         id="path298" />
      <path
         d="m 2923.24,3217.38 c -0.67,-4.61 -1.82,-10.94 -2.2,-19.58 5.81,10.08 9.51,19.72 9.5,27.58 0,4.1 -1.13,5.84 -3.36,6.92 0.08,-5.1 -1.36,-10.09 -3.96,-14.93 l 0.02,0.01"
         style="fill:#191a1a;fill-opacity:1;fill-rule:nonzero;stroke:none"
         id="path300" />
      <path
         d="m 2921.04,3197.8 c 0.38,8.64 1.53,14.97 2.2,19.58 v 0 0 0 0 l -0.02,-0.01 c 2.52,4.69 3.95,9.52 3.96,14.45 0,0.16 0,0.32 0,0.48 2.23,-1.08 3.36,-2.82 3.36,-6.92 0.01,-7.86 -3.69,-17.5 -9.5,-27.58"
         style="fill:#131414;fill-opacity:1;fill-rule:nonzero;stroke:none"
         id="path302" />
      <path
         d="m 2677.73,3192.6 c 1.96,-5.14 4.39,-10.04 7.21,-14.72 -0.01,2.77 -0.05,4.9 -0.09,6.1 -2.57,2.73 -4.91,5.63 -7.12,8.62"
         style="fill:#191a1a;fill-opacity:1;fill-rule:nonzero;stroke:none"
         id="path304" />
      <path
         d="m 2684.94,3177.88 c -2.82,4.68 -5.25,9.58 -7.21,14.72 2.21,-2.99 4.55,-5.89 7.12,-8.62 v 0 0 0 0 c 0.04,-1.2 0.08,-3.33 0.09,-6.1"
         style="fill:#131414;fill-opacity:1;fill-rule:nonzero;stroke:none"
         id="path306" />
      <path
         d="m 2765.47,3108.65 c 26.7,-17.1 65.47,3.45 101.64,29.29 16.87,12.04 40.82,37.09 53.93,59.86 0.38,8.64 1.53,14.97 2.2,19.58 l -0.02,-0.01 c -10.56,-19.66 -39.75,-37.11 -59.37,-51.12 -36.18,-25.84 -70.41,-42.27 -99.38,-29.29 -20.94,8 -56.68,22.58 -79.62,47.02 0.04,-1.2 0.08,-3.33 0.09,-6.1 19.73,-32.8 58.02,-54.8 80.53,-69.23"
         style="fill:#ffffff;fill-opacity:1;fill-rule:nonzero;stroke:none"
         id="path308" />
      <path
         d="m 2788.02,3102.38 c -8.14,0 -15.74,1.91 -22.55,6.27 -22.51,14.43 -60.8,36.43 -80.53,69.23 v 0 0 c -0.01,2.77 -0.05,4.9 -0.09,6.1 22.94,-24.44 58.68,-39.02 79.62,-47.02 6.96,-3.12 14.23,-4.54 21.76,-4.54 23.78,0 50.14,14.2 77.62,33.83 19.62,14.01 48.81,31.46 59.37,51.12 l 0.02,0.01 c -0.67,-4.61 -1.82,-10.94 -2.2,-19.58 v 0 0 c -13.11,-22.77 -37.06,-47.82 -53.93,-59.86 -26.95,-19.25 -55.33,-35.56 -79.09,-35.56"
         style="fill:#d4d5d4;fill-opacity:1;fill-rule:nonzero;stroke:none"
         id="path310" />
      <path
         d="m 2687.38,3345.99 c 0,0 19.96,26.05 37.78,-3.44 0,0 -18.2,9.91 -37.78,3.44 z m 42.25,-2 c -8,34.45 -44.95,18.8 -47.93,1.14 -3.69,-17.4 -0.28,-58.39 28.29,-65.15 5.52,3.68 10.56,7.08 14.32,10.31 2.27,1.94 4.69,3.79 7.17,5.58 1.97,7.29 4.08,22.54 -1.85,48.12"
         style="fill:#070807;fill-opacity:1;fill-rule:nonzero;stroke:none"
         id="path312" />
      <path
         d="m 2901.57,2757.69 c -5.93,-12.17 -16.86,-24.71 -32.78,-37.64 -15.92,-12.92 -36,-25.44 -60.24,-37.58 l -17.31,-8.7 c -27.67,-13.81 -51.92,-26.87 -72.93,-39.22 -10.52,22.1 -39.55,43.77 -72.05,68.52 -7.29,5.56 -14.75,11.28 -22.22,17.19 -2.18,12.47 -4.63,25.49 -7.4,39.19 -1.61,7.87 -2.87,13.84 -3.79,17.91 -5.37,26.57 -7.87,50.1 -7.49,70.6 0.38,20.51 3.61,36.99 9.69,49.45 8.86,18.18 23.09,30.34 42.69,36.47 19.6,6.14 39.14,4.46 58.64,-5.05 17.74,-8.65 30.03,-21.49 36.87,-38.53 6.85,-17.03 8.35,-38.41 4.52,-64.12 17.54,18.84 35.18,30.84 52.93,35.97 17.75,5.14 35.56,3.35 53.45,-5.38 19.35,-9.43 32.64,-23.76 39.87,-42.98 7.23,-19.22 6.41,-37.92 -2.45,-56.1 z m 270.64,18.37 c -14.36,12.96 -32.31,22.71 -51.31,27.72 0.35,19.6 -0.16,120.74 -45.16,170.44 0,0 41.05,-116.76 18.57,-166.76 -8.13,0.09 -16.23,-0.76 -24.15,-2.74 -1.89,43.94 -16.05,106.73 -65.05,182.37 -76.83,118.62 -85.43,179.63 -84.07,210.71 -13.11,-22.77 -37.06,-47.82 -53.93,-59.86 -36.17,-25.84 -74.94,-46.39 -101.63,-29.29 -22.52,14.42 -60.81,36.43 -80.54,69.23 0.02,-22.74 -3.3,-94.41 -43.32,-154.52 -48.24,-72.45 -98.19,-203.37 -82.69,-260.22 0,0 -46.51,25.84 -36.18,120.59 0,0 -41.34,-68.71 15.51,-136 17.13,-20.27 37.91,-38.17 58.67,-54.59 7.46,-5.9 14.93,-11.62 22.22,-17.18 32.5,-24.75 61.53,-46.42 72.04,-68.52 2.34,-4.92 3.79,-9.85 4.13,-14.85 3.15,-46.51 -41.64,-37.9 -57.15,-39.62 12.57,-16.51 22.43,-31.51 30.26,-45.2 53.84,-31.72 161.73,-71.3 293.62,7.36 0.2,4.63 0.4,9.16 0.63,13.61 10.91,213.92 61.72,219.94 87.34,211.72 -4.88,21.81 -3.57,41.63 -3.57,41.63 60.3,46.51 156.77,-24.12 138.06,-59.16 2.81,0.2 5.6,0.26 8.39,0.19 l 0.02,0.01 c 0,0 14.61,21.06 -20.71,52.93"
         style="fill:#ffffff;fill-opacity:1;fill-rule:nonzero;stroke:none"
         id="path314" />
      <path
         d="m 3046.45,2782.09 c 0,0 -1.31,-19.82 3.57,-41.63 4.95,-1.58 8.98,-3.7 11.58,-4.95 24.98,-12.06 30.15,-35.32 68.04,-24.98 19.76,5.39 37.64,11.2 54.87,12.4 18.71,35.04 -77.76,105.67 -138.06,59.16"
         style="fill:#191a1a;fill-opacity:1;fill-rule:nonzero;stroke:none"
         id="path316" />
      <path
         d="m 2687.38,3345.99 c 19.58,6.47 37.78,-3.44 37.78,-3.44 -17.82,29.49 -37.78,3.44 -37.78,3.44"
         style="fill:#ffffff;fill-opacity:1;fill-rule:nonzero;stroke:none"
         id="path318" />
      <path
         d="m 2842.35,3350.23 c 19.57,6.48 37.77,-3.44 37.77,-3.44 -17.81,29.48 -37.77,3.44 -37.77,3.44"
         style="fill:#ffffff;fill-opacity:1;fill-rule:nonzero;stroke:none"
         id="path320" />
      <path
         d="m 2685.78,3209 1.97,2.6 c 0.5,-0.38 49.63,-37.39 95.16,-32.98 46.12,4.44 105.66,30.59 123.3,46.05 l 2.15,-2.46 c 12.21,8.43 18.42,14.72 18.09,15.83 -2.04,8.11 -8.31,16.48 -20.37,25.05 -3.75,2.67 -8.02,5.35 -12.95,8.05 -7.63,4.19 -14.34,7.97 -20.59,11.53 -15.99,9.12 -27.89,16.29 -37.4,21.78 -15.16,8.73 -24.58,13.27 -35.73,14.88 -6.22,0.9 -12.99,0.93 -21.7,0.24 0,0 -9.9,-3.44 -22.32,-9.57 -7.6,-3.75 -16.11,-8.52 -23.91,-14.13 -2.48,-1.79 -4.9,-3.64 -7.17,-5.58 -3.76,-3.23 -8.8,-6.63 -14.32,-10.31 -3.73,-2.48 -7.68,-5.09 -11.66,-7.87 -16.83,-11.77 -33.81,-26.47 -33.66,-46.75 0.09,-0.1 8,-7.4 21.11,-16.36"
         style="fill:#f9cb2c;fill-opacity:1;fill-rule:nonzero;stroke:none"
         id="path322" />
      <path
         d="m 2764.47,3136.96 c 28.97,-12.98 63.2,3.45 99.38,29.29 19.62,14.01 48.81,31.46 59.37,51.12 2.6,4.84 4.04,9.83 3.96,14.93 -0.04,1.9 -0.24,3.81 -0.73,5.74 0.33,-1.11 -5.88,-7.4 -18.09,-15.83 l 2.19,-2.49 c -18.07,-15.84 -77.94,-42.93 -127.01,-47.65 -2.81,-0.27 -5.62,-0.41 -8.42,-0.41 -45.27,0 -89.39,33.2 -91.35,34.7 l 2.01,2.64 c -13.11,8.96 -21.02,16.26 -21.11,16.36 l -0.02,0.02 0.03,-0.26 c 0.03,-1.83 0.23,-3.8 0.55,-5.85 0.45,-2.65 1.17,-5.39 2.23,-8.23 2.49,-6.65 6.06,-12.75 10.27,-18.44 2.21,-2.99 4.55,-5.89 7.12,-8.62 22.94,-24.44 58.68,-39.02 79.62,-47.02"
         style="fill:#e4a321;fill-opacity:1;fill-rule:nonzero;stroke:none"
         id="path324" />
      <path
         d="m 2478.35,2721.62 c 47.13,-17.6 57.93,-57.9 57.93,-57.9 0,0 -74.49,78.84 -101.23,11 0,0 -3.84,64.49 43.3,46.9 z m 190.08,-213.85 c -7.83,13.69 -17.69,28.69 -30.26,45.2 -87.85,115.42 -97.04,192.75 -172.27,189.49 -13.57,-0.58 -23.41,-2.58 -30.64,-5.55 -32.19,-13.23 -11.99,-45.84 -33.1,-59.91 -12.03,-8.02 -27.8,-10.08 -43.47,-13.28 0,0 -47.83,-26.34 -21.31,-72.26 26.51,-45.92 24.67,-46.26 15.41,-118.12 -9.25,-71.87 341.56,-60.04 341.56,-60.04 v 0 0 c 2.93,17.98 0.37,48.56 -25.92,94.47"
         style="fill:#f9cb2c;fill-opacity:1;fill-rule:nonzero;stroke:none"
         id="path326" />
      <path
         d="m 2352.79,2473.34 c 9.26,71.86 11.1,72.2 -15.41,118.12 -26.52,45.92 21.31,72.26 21.31,72.26 -17.99,-3.67 -35.86,-8.85 -47.83,-26.34 -22.39,-32.73 -10.33,-63.74 0,-101.64 10.34,-37.9 -12.92,-43.06 -24.98,-68.04 -8.27,-17.15 -54.39,-95.89 264.44,-100.78 130.92,-2.01 132.2,24.25 136.09,25.84 0,0 5.64,6.39 7.94,20.54 v 0 c 0,0 -350.81,-11.83 -341.56,60.04"
         style="fill:#e4a321;fill-opacity:1;fill-rule:nonzero;stroke:none"
         id="path328" />
      <path
         d="m 3038.7,2704.02 c 40.32,7.71 54.49,-32.38 54.49,-32.38 0,0 -62.39,46.26 -97.43,-83.26 0,0 2.63,107.93 42.94,115.64 z m 57.89,-303.46 c 80.29,60.35 246.46,130.72 184.77,210.2 -4.03,1.66 -7.62,4.22 -10.45,8.47 -16.88,25.31 -7.41,67.12 -37.8,89.86 l -1.83,1.44 c -12.88,8.82 -25.51,12.24 -38.38,12.59 -2.79,0.07 -5.58,0.01 -8.39,-0.19 -17.23,-1.2 -35.11,-7.01 -54.87,-12.4 -37.89,-10.34 -43.06,12.92 -68.04,24.98 -2.6,1.25 -6.63,3.37 -11.58,4.95 -25.62,8.22 -76.43,2.2 -87.34,-211.72 -0.23,-4.45 -0.43,-8.98 -0.63,-13.61 -0.57,-13.85 -0.99,-28.51 -1.23,-44.06 -0.3,-19.8 0.06,-36.55 0.86,-50.87 1.43,-25.34 4.3,-42.91 7.61,-55.09 13.71,-4.76 60.39,-14.85 127.3,35.45"
         style="fill:#f9cb2c;fill-opacity:1;fill-rule:nonzero;stroke:none"
         id="path330" />
      <path
         d="m 3281.36,2610.76 c 61.69,-79.48 -104.48,-149.85 -184.77,-210.2 -66.91,-50.3 -113.59,-40.21 -127.3,-35.45 7.2,-26.44 16.45,-27.87 17.37,-30.13 0,0 44.79,-39.62 160.21,48.24 28.87,21.97 55.36,39.03 78.8,53.42 70.26,43.16 113.14,62.44 110.7,118.85 -2.68,61.85 -34.55,46.82 -55.01,55.27"
         style="fill:#e4a321;fill-opacity:1;fill-rule:nonzero;stroke:none"
         id="path332" />
      <path
         d="m 2849.28,3551.55 c -139.8,21.59 -168.81,-79.59 -168.81,-79.59 44.81,55.3 168.81,79.59 168.81,79.59"
         style="fill:#404144;fill-opacity:1;fill-rule:nonzero;stroke:none"
         id="path334" />
      <path
         d="m 2568.27,2988.61 c 38.96,20.18 86.98,115.78 68.87,177.46 0,0 -9.33,-88.34 -79.38,-152.82 -57.6,-53.02 -70.69,-98 -70.69,-98 0,0 53.72,59.12 81.2,73.36"
         style="fill:#404144;fill-opacity:1;fill-rule:nonzero;stroke:none"
         id="path336" />
      <path
         d="m 3093.19,2671.64 c 0,0 -14.17,40.09 -54.49,32.38 -40.31,-7.71 -42.94,-115.64 -42.94,-115.64 35.04,129.52 97.43,83.26 97.43,83.26"
         style="fill:#f7d985;fill-opacity:1;fill-rule:nonzero;stroke:none"
         id="path338" />
      <path
         d="m 2536.28,2663.72 c 0,0 -10.8,40.3 -57.93,57.9 -47.14,17.59 -43.3,-46.9 -43.3,-46.9 26.74,67.84 101.23,-11 101.23,-11"
         style="fill:#f7d985;fill-opacity:1;fill-rule:nonzero;stroke:none"
         id="path340" />
      <path
         d="m 2782.91,3178.62 c -45.53,-4.41 -94.66,32.6 -95.16,32.98 l -1.97,-2.6 -2.01,-2.64 c 1.96,-1.5 46.08,-34.7 91.35,-34.7 2.8,0 5.61,0.14 8.42,0.41 49.07,4.72 108.94,31.81 127.01,47.65 l -2.19,2.49 -2.15,2.46 c -17.64,-15.46 -77.18,-41.61 -123.3,-46.05"
         style="fill:#191a1a;fill-opacity:1;fill-rule:nonzero;stroke:none"
         id="path342" />
      <path
         d="m 2811.35,2834.26 c 0,0 60.43,-18.82 65.52,-76.99 0,0 35.2,88.68 -65.52,76.99"
         style="fill:#db636a;fill-opacity:1;fill-rule:nonzero;stroke:none"
         id="path344" />
      <path
         d="m 2090.89,2825.19 h 3.46 v 33.33 H 2107 v 2.95 h -28.76 v -2.95 h 12.65 v -33.33"
         style="fill:#1d3b60;fill-opacity:1;fill-rule:nonzero;stroke:none"
         id="path346" />
      <path
         d="m 2135.41,2845.72 h -21.54 v 15.75 h -3.46 v -36.28 h 3.46 v 17.58 h 21.54 v -17.58 h 3.46 v 36.28 h -3.46 v -15.75"
         style="fill:#1d3b60;fill-opacity:1;fill-rule:nonzero;stroke:none"
         id="path348" />
      <path
         d="m 2149.64,2842.47 h 20.23 v 2.94 h -20.23 v 13.11 h 21.6 v 2.95 h -25.05 v -36.28 h 25.3 v 2.95 h -21.85 v 14.33"
         style="fill:#1d3b60;fill-opacity:1;fill-rule:nonzero;stroke:none"
         id="path350" />
      <path
         d="m 2078.24,2698.88 h 3.46 v 17.27 h 17.37 v 2.95 h -17.37 v 13.11 h 19.56 v 2.95 h -23.02 v -36.28"
         style="fill:#1d3b60;fill-opacity:1;fill-rule:nonzero;stroke:none"
         id="path352" />
      <path
         d="m 2120.72,2701.06 c -9.6,0 -13.66,8.03 -13.66,15.96 0,7.92 4.06,15.95 13.66,15.95 9.56,0 13.62,-8.03 13.62,-15.95 0,-7.93 -4.06,-15.96 -13.62,-15.96 z m 0,34.86 c -11.43,0 -17.12,-8.95 -17.12,-18.9 0,-9.97 5.69,-18.91 17.12,-18.91 11.39,0 17.08,8.94 17.08,18.91 0,9.95 -5.69,18.9 -17.08,18.9"
         style="fill:#1d3b60;fill-opacity:1;fill-rule:nonzero;stroke:none"
         id="path354" />
      <path
         d="m 2167.58,2712.7 c 0,-8.39 -3.91,-11.64 -10.67,-11.64 -6.71,0 -10.62,3.25 -10.62,11.64 v 22.46 h -3.45 v -23.23 c 0,-7.47 4.06,-13.82 14.07,-13.82 10.11,0 14.13,6.35 14.13,13.82 v 23.23 h -3.46 v -22.46"
         style="fill:#1d3b60;fill-opacity:1;fill-rule:nonzero;stroke:none"
         id="path356" />
      <path
         d="m 2203.05,2704.46 h -0.1 l -21.14,30.7 h -3.86 v -36.28 h 3.46 v 30.69 h 0.1 l 21.14,-30.69 h 3.86 v 36.28 h -3.46 v -30.7"
         style="fill:#1d3b60;fill-opacity:1;fill-rule:nonzero;stroke:none"
         id="path358" />
      <path
         d="m 2224.6,2701.82 h -7.36 v 30.39 h 7.36 c 10.42,0 14.94,-4.32 14.94,-15.19 0,-10.88 -4.52,-15.2 -14.94,-15.2 z m 1.73,33.34 h -12.55 v -36.28 h 12.55 c 10.98,0.25 16.67,6.14 16.67,18.14 0,11.99 -5.69,17.88 -16.67,18.14"
         style="fill:#1d3b60;fill-opacity:1;fill-rule:nonzero;stroke:none"
         id="path360" />
      <path
         d="m 2253.73,2713.1 7.26,18.6 7.01,-18.6 z m 5.48,22.06 -14.63,-36.28 h 3.71 l 4.37,11.28 h 16.51 l 4.43,-11.28 h 3.7 l -14.22,36.28 h -3.87"
         style="fill:#1d3b60;fill-opacity:1;fill-rule:nonzero;stroke:none"
         id="path362" />
      <path
         d="m 2289.35,2698.88 v 33.33 H 2302 v 2.95 h -28.76 v -2.95 h 12.66 v -33.33 h 3.45"
         style="fill:#1d3b60;fill-opacity:1;fill-rule:nonzero;stroke:none"
         id="path364" />
      <path
         d="m 2305.67,2698.88 h 3.45 v 36.28 h -3.45 v -36.28"
         style="fill:#1d3b60;fill-opacity:1;fill-rule:nonzero;stroke:none"
         id="path366" />
      <path
         d="m 2331.89,2732.97 c 9.55,0 13.61,-8.03 13.61,-15.95 0,-7.93 -4.06,-15.96 -13.61,-15.96 -9.61,0 -13.67,8.03 -13.67,15.96 0,7.92 4.06,15.95 13.67,15.95 z m 0,-34.86 c 11.38,0 17.07,8.94 17.07,18.91 0,9.95 -5.69,18.9 -17.07,18.9 -11.44,0 -17.13,-8.95 -17.13,-18.9 0,-9.97 5.69,-18.91 17.13,-18.91"
         style="fill:#1d3b60;fill-opacity:1;fill-rule:nonzero;stroke:none"
         id="path368" />
      <path
         d="m 2379.3,2704.46 -21.14,30.7 h -3.86 v -36.28 h 3.46 v 30.69 h 0.1 l 21.14,-30.69 h 3.86 v 36.28 h -3.46 v -30.7 h -0.1"
         style="fill:#1d3b60;fill-opacity:1;fill-rule:nonzero;stroke:none"
         id="path370" />
      <path
         d="m 2126.97,2766.11 h -28.73 v 48.28 h -20 v -64.92 h 48.73 v 16.64"
         style="fill:#1d3b60;fill-opacity:1;fill-rule:nonzero;stroke:none"
         id="path372" />
      <path
         d="m 2160.06,2814.39 h -20 v -64.92 h 20 v 64.92"
         style="fill:#1d3b60;fill-opacity:1;fill-rule:nonzero;stroke:none"
         id="path374" />
      <path
         d="m 2193.88,2784.93 h 0.18 l 19.91,-35.46 h 19.46 v 64.92 h -18.91 v -34.73 h -0.19 l -18.91,34.73 h -20.45 v -64.92 h 18.91 v 35.46"
         style="fill:#1d3b60;fill-opacity:1;fill-rule:nonzero;stroke:none"
         id="path376" />
      <path
         d="m 2277.79,2747.93 c 20,0 29.54,8.54 29.54,26.64 v 39.82 h -20 v -35.37 c 0,-6.55 0,-14.91 -9.45,-14.91 -9.82,0 -9.73,8.36 -9.73,14.91 v 35.37 h -20 v -39.82 c 0,-18.1 9.64,-26.64 29.64,-26.64"
         style="fill:#1d3b60;fill-opacity:1;fill-rule:nonzero;stroke:none"
         id="path378" />
      <path
         d="m 2338.6,2749.47 11.46,19.37 11.09,-19.37 h 24.09 l -23.18,34.37 20.82,30.55 h -22.18 l -9.64,-17.64 -9.82,17.64 h -23.46 l 21.37,-30.37 -23.46,-34.55 h 22.91"
         style="fill:#1d3b60;fill-opacity:1;fill-rule:nonzero;stroke:none"
         id="path380" />
      <path
         d="m 1919.43,2796.78 h -32.7 v -97.9 h 97.94 v 32.63 h -65.24 v 65.27"
         style="fill:#4f8ad0;fill-opacity:1;fill-rule:nonzero;stroke:none"
         id="path382" />
      <path
         d="m 1886.75,2813.13 h 32.63 v 16.18 h 97.91 v -97.8 H 2001 v -32.63 h 48.92 v 163.21 h -163.17 v -48.96"
         style="fill:#1d3b60;fill-opacity:1;fill-rule:nonzero;stroke:none"
         id="path384" />
      <path
         d="m 597.027,512.359 h 82.043 v -8.41 h -36.093 v -95.09 h -9.856 v 95.09 h -36.094 v 8.41"
         style="fill:#1d3b60;fill-opacity:1;fill-rule:nonzero;stroke:none"
         id="path386" />
      <path
         d="m 688.797,512.359 h 9.855 v -44.937 h 61.461 v 44.937 h 9.856 v -103.5 h -9.856 v 50.153 h -61.461 v -50.153 h -9.855 v 103.5"
         style="fill:#1d3b60;fill-opacity:1;fill-rule:nonzero;stroke:none"
         id="path388" />
      <path
         d="m 790.859,512.359 h 71.465 v -8.41 h -61.605 v -37.398 h 57.691 v -8.41 H 800.719 V 417.27 h 62.332 v -8.411 h -72.192 v 103.5"
         style="fill:#1d3b60;fill-opacity:1;fill-rule:nonzero;stroke:none"
         id="path390" />
      <path
         d="m 597.027,152.012 h 65.664 v -8.41 h -55.808 v -37.403 h 49.574 V 97.8008 H 606.883 V 48.5117 h -9.856 V 152.012"
         style="fill:#1d3b60;fill-opacity:1;fill-rule:nonzero;stroke:none"
         id="path392" />
      <path
         d="m 718.219,54.7422 c 27.25,0 38.847,22.9101 38.847,45.5198 0,22.609 -11.597,45.519 -38.847,45.519 -27.399,0 -38.996,-22.91 -38.996,-45.519 0,-22.6097 11.597,-45.5198 38.996,-45.5198 z m 0,99.4378 c 32.469,0 48.703,-25.508 48.703,-53.918 0,-28.4104 -16.234,-53.9222 -48.703,-53.9222 -32.617,0 -48.852,25.5118 -48.852,53.9222 0,28.41 16.235,53.918 48.852,53.918"
         style="fill:#1d3b60;fill-opacity:1;fill-rule:nonzero;stroke:none"
         id="path394" />
      <path
         d="m 781.293,152.012 h 9.855 V 87.9414 c 0,-23.9219 11.161,-33.1992 30.297,-33.1992 19.282,0 30.438,9.2773 30.438,33.1992 v 64.0706 h 9.859 V 85.7617 c 0,-21.3008 -11.449,-39.4219 -40.297,-39.4219 -28.554,0 -40.152,18.1211 -40.152,39.4219 v 66.2503"
         style="fill:#1d3b60;fill-opacity:1;fill-rule:nonzero;stroke:none"
         id="path396" />
      <path
         d="m 881.473,152.012 h 11.015 l 60.301,-87.5511 h 0.289 v 87.5511 h 9.856 V 48.5117 H 951.918 L 891.617,136.07 h -0.289 V 48.5117 h -9.855 V 152.012"
         style="fill:#1d3b60;fill-opacity:1;fill-rule:nonzero;stroke:none"
         id="path398" />
      <path
         d="m 993.539,56.9219 h 21.021 c 29.71,0 42.61,12.3203 42.61,43.3401 0,31.019 -12.9,43.34 -42.61,43.34 h -21.021 z m -9.855,95.0901 h 35.796 c 31.32,-0.731 47.55,-17.543 47.55,-51.75 0,-34.2112 -16.23,-51.0198 -47.55,-51.7503 H 983.684 V 152.012"
         style="fill:#1d3b60;fill-opacity:1;fill-rule:nonzero;stroke:none"
         id="path400" />
      <path
         d="m 1097.63,89.1016 h 40.74 l -20.01,53.0464 z m 15.66,62.9104 h 11.01 l 40.59,-103.5003 h -10.58 l -12.61,32.1797 h -47.11 l -12.47,-32.1797 h -10.58 l 41.75,103.5003"
         style="fill:#1d3b60;fill-opacity:1;fill-rule:nonzero;stroke:none"
         id="path402" />
      <path
         d="m 1153.31,152.012 h 82.05 v -8.41 h -36.1 V 48.5117 h -9.86 v 95.0903 h -36.09 v 8.41"
         style="fill:#1d3b60;fill-opacity:1;fill-rule:nonzero;stroke:none"
         id="path404" />
      <path
         d="m 1245.8,152.012 h 9.86 V 48.5117 h -9.86 V 152.012"
         style="fill:#1d3b60;fill-opacity:1;fill-rule:nonzero;stroke:none"
         id="path406" />
      <path
         d="m 1320.6,54.7422 c 27.25,0 38.85,22.9101 38.85,45.5198 0,22.609 -11.6,45.519 -38.85,45.519 -27.39,0 -38.99,-22.91 -38.99,-45.519 0,-22.6097 11.6,-45.5198 38.99,-45.5198 z m 0,99.4378 c 32.47,0 48.71,-25.508 48.71,-53.918 0,-28.4104 -16.24,-53.9222 -48.71,-53.9222 -32.61,0 -48.85,25.5118 -48.85,53.9222 0,28.41 16.24,53.918 48.85,53.918"
         style="fill:#1d3b60;fill-opacity:1;fill-rule:nonzero;stroke:none"
         id="path408" />
      <path
         d="m 1384.55,152.012 h 11.01 l 60.31,-87.5511 h 0.28 v 87.5511 h 9.86 V 48.5117 H 1455 l -60.31,87.5583 h -0.28 V 48.5117 h -9.86 V 152.012"
         style="fill:#1d3b60;fill-opacity:1;fill-rule:nonzero;stroke:none"
         id="path410" />
      <path
         d="m 597.027,378.039 h 57.059 V 240.32 h 81.957 V 192.859 H 597.027 v 185.18"
         style="fill:#1d3b60;fill-opacity:1;fill-rule:nonzero;stroke:none"
         id="path412" />
      <path
         d="m 773.375,378.039 h 57.059 v -185.18 h -57.059 v 185.18"
         style="fill:#1d3b60;fill-opacity:1;fill-rule:nonzero;stroke:none"
         id="path414" />
      <path
         d="m 872.961,378.039 h 58.352 l 53.949,-99.078 h 0.519 v 99.078 h 53.939 V 192.859 H 984.223 L 927.426,294 h -0.524 V 192.859 h -53.941 v 185.18"
         style="fill:#1d3b60;fill-opacity:1;fill-rule:nonzero;stroke:none"
         id="path416" />
      <path
         d="m 1250.56,264.441 c 0,-51.609 -27.23,-75.992 -84.29,-75.992 -57.06,0 -84.55,24.383 -84.55,75.992 v 113.598 h 57.06 V 277.148 c 0,-18.679 -0.26,-42.539 27.75,-42.539 26.97,0 26.97,23.86 26.97,42.539 v 100.891 h 57.06 V 264.441"
         style="fill:#1d3b60;fill-opacity:1;fill-rule:nonzero;stroke:none"
         id="path418" />
      <path
         d="m 1341.32,291.41 -60.95,86.629 h 66.91 l 28.01,-50.32 27.49,50.32 h 63.29 l -59.39,-87.148 66.13,-98.032 h -68.73 l -31.64,55.243 -32.68,-55.243 h -65.36 l 66.92,98.551"
         style="fill:#1d3b60;fill-opacity:1;fill-rule:nonzero;stroke:none"
         id="path420" />
      <path
         d="m 143.973,141.621 v 186.18 H 50.7031 V 48.5117 H 330.102 V 141.621 H 143.973"
         style="fill:#4f8ad0;fill-opacity:1;fill-rule:nonzero;stroke:none"
         id="path422" />
      <path
         d="M 516.223,514.121 H 50.7656 V 374.449 h 93.0784 v 46.16 H 423.152 V 141.621 H 376.664 V 48.5117 H 516.223 V 514.121"
         style="fill:#1d3b60;fill-opacity:1;fill-rule:nonzero;stroke:none"
         id="path424" />
      <path
         d="m 63,609.512 v 135.64 H 92.0508 V 609.512 H 63"
         style="fill:#4f8ad0;fill-opacity:1;fill-rule:nonzero;stroke:none"
         id="path426" />
      <path
         d="m 237.234,640.309 c 0,-10.637 -3.726,-18.739 -11.187,-24.297 -7.473,-5.571 -18.637,-8.352 -33.508,-8.352 -7.617,0 -14.109,0.5 -19.48,1.531 -5.371,1.008 -10.403,2.508 -15.09,4.5 v 23.368 c 5.312,-2.469 11.289,-4.539 17.937,-6.207 6.66,-1.672 12.512,-2.512 17.571,-2.512 10.371,0 15.554,2.969 15.554,8.91 0,2.23 -0.679,4.039 -2.058,5.422 -1.375,1.398 -3.75,2.969 -7.118,4.738 -3.378,1.762 -7.875,3.809 -13.5,6.172 -8.054,3.34 -13.972,6.43 -17.75,9.277 -3.781,2.84 -6.535,6.102 -8.246,9.793 -1.714,3.668 -2.578,8.2 -2.578,13.578 0,9.219 3.606,16.352 10.824,21.391 7.215,5.039 17.442,7.559 30.68,7.559 12.617,0 24.895,-2.719 36.828,-8.16 l -8.625,-20.411 c -5.242,2.223 -10.144,4.039 -14.707,5.473 -4.558,1.418 -9.218,2.129 -13.965,2.129 -8.425,0 -12.644,-2.262 -12.644,-6.77 0,-2.543 1.355,-4.73 4.07,-6.589 2.727,-1.852 8.672,-4.614 17.856,-8.25 8.179,-3.282 14.175,-6.352 17.988,-9.192 3.816,-2.84 6.617,-6.121 8.434,-9.828 1.808,-3.711 2.714,-8.141 2.714,-13.273"
         style="fill:#4f8ad0;fill-opacity:1;fill-rule:nonzero;stroke:none"
         id="path428" />
      <path
         d="m 328.762,609.512 -3.84,13.269 h -1.492 c -3.071,-4.832 -7.407,-8.551 -13.032,-11.179 -5.625,-2.633 -12.031,-3.942 -19.207,-3.942 -12.304,0 -21.582,3.262 -27.832,9.781 -6.25,6.528 -9.367,15.911 -9.367,28.161 v 67.628 h 28.574 v -60.578 c 0,-7.48 1.348,-13.101 4.036,-16.843 2.683,-3.739 6.961,-5.61 12.832,-5.61 8,0 13.781,2.641 17.336,7.93 3.562,5.293 5.339,14.062 5.339,26.301 v 48.8 h 28.582 V 609.512 h -21.929"
         style="fill:#4f8ad0;fill-opacity:1;fill-rule:nonzero;stroke:none"
         id="path430" />
      <path
         d="m 424.785,692.539 c -7.058,0 -12.219,-2.148 -15.461,-6.449 -3.25,-4.289 -4.937,-11.391 -5.054,-21.289 v -3.059 c 0,-11.133 1.668,-19.113 5.007,-23.933 3.34,-4.829 8.633,-7.239 15.879,-7.239 12.813,0 19.207,10.45 19.207,31.36 0,10.199 -1.57,17.851 -4.722,22.961 -3.157,5.097 -8.11,7.648 -14.856,7.648 z m 8.438,-84.879 c -12.317,0 -21.961,4.41 -28.953,13.262 h -1.504 c 0.996,-8.66 1.504,-13.66 1.504,-15.031 v -42.02 H 375.684 V 713.23 h 23.242 l 4.023,-13.449 h 1.321 c 6.675,10.258 16.582,15.399 29.695,15.399 12.375,0 22.051,-4.731 29.055,-14.188 6.992,-9.472 10.488,-22.613 10.488,-39.433 0,-11.079 -1.645,-20.688 -4.914,-28.86 -3.281,-8.16 -7.949,-14.379 -14.016,-18.64 -6.055,-4.27 -13.18,-6.399 -21.355,-6.399"
         style="fill:#4f8ad0;fill-opacity:1;fill-rule:nonzero;stroke:none"
         id="path432" />
      <path
         d="m 541.23,692.539 c -7.058,0 -12.214,-2.148 -15.457,-6.449 -3.253,-4.289 -4.945,-11.391 -5.058,-21.289 v -3.059 c 0,-11.133 1.668,-19.113 5.008,-23.933 3.34,-4.829 8.632,-7.239 15.879,-7.239 12.812,0 19.211,10.45 19.211,31.36 0,10.199 -1.575,17.851 -4.727,22.961 -3.156,5.097 -8.106,7.648 -14.856,7.648 z m 8.438,-84.879 c -12.313,0 -21.965,4.41 -28.953,13.262 h -1.504 c 0.992,-8.66 1.504,-13.66 1.504,-15.031 v -42.02 H 492.129 V 713.23 h 23.242 l 4.024,-13.449 h 1.32 c 6.68,10.258 16.582,15.399 29.695,15.399 12.371,0 22.051,-4.731 29.055,-14.188 6.988,-9.472 10.484,-22.613 10.484,-39.433 0,-11.079 -1.636,-20.688 -4.91,-28.86 -3.281,-8.16 -7.949,-14.379 -14.016,-18.64 -6.05,-4.27 -13.179,-6.399 -21.355,-6.399"
         style="fill:#4f8ad0;fill-opacity:1;fill-rule:nonzero;stroke:none"
         id="path434" />
      <path
         d="m 631.348,661.559 c 0,-10.27 1.699,-18.039 5.105,-23.289 3.402,-5.258 8.945,-7.891 16.633,-7.891 7.617,0 13.098,2.621 16.445,7.84 3.34,5.23 5.012,13 5.012,23.34 0,10.261 -1.691,17.961 -5.063,23.101 -3.367,5.129 -8.906,7.699 -16.582,7.699 -7.625,0 -13.125,-2.558 -16.492,-7.648 -3.379,-5.109 -5.058,-12.832 -5.058,-23.152 z m 72.429,0 c 0,-16.887 -4.5,-30.098 -13.496,-39.618 -8.992,-9.519 -21.519,-14.281 -37.578,-14.281 -10.055,0 -18.926,2.172 -26.609,6.539 -7.676,4.352 -13.582,10.621 -17.703,18.781 -4.121,8.168 -6.184,17.692 -6.184,28.579 0,16.941 4.465,30.113 13.398,39.523 8.926,9.398 21.485,14.098 37.668,14.098 10.055,0 18.922,-2.168 26.61,-6.489 7.683,-4.339 13.586,-10.55 17.707,-18.652 4.129,-8.109 6.187,-17.598 6.187,-28.48"
         style="fill:#4f8ad0;fill-opacity:1;fill-rule:nonzero;stroke:none"
         id="path436" />
      <path
         d="m 780.867,715.18 c 3.879,0 7.094,-0.282 9.66,-0.84 l -2.16,-26.531 c -2.312,0.621 -5.113,0.929 -8.426,0.929 -9.121,0 -16.23,-2.316 -21.32,-6.957 -5.098,-4.64 -7.637,-11.133 -7.637,-19.48 V 609.512 H 722.402 V 713.23 h 21.653 l 4.207,-17.441 h 1.406 c 3.254,5.813 7.637,10.5 13.164,14.051 5.535,3.558 11.543,5.34 18.035,5.34"
         style="fill:#4f8ad0;fill-opacity:1;fill-rule:nonzero;stroke:none"
         id="path438" />
      <path
         d="m 848.684,630.199 c 5,0 10.996,1.082 17.996,3.25 v -21.058 c -7.129,-3.161 -15.867,-4.731 -26.242,-4.731 -11.434,0 -19.754,2.86 -24.969,8.578 -5.215,5.723 -7.821,14.301 -7.821,25.742 v 50.012 h -13.683 v 11.957 l 15.742,9.473 8.242,21.887 h 18.274 V 713.23 h 29.336 V 691.992 H 836.223 V 641.98 c 0,-4.019 1.14,-6.992 3.425,-8.898 2.278,-1.922 5.293,-2.883 9.036,-2.883"
         style="fill:#4f8ad0;fill-opacity:1;fill-rule:nonzero;stroke:none"
         id="path440" />
      <path
         d="m 1893.57,2899.81 v 59.6 h 12.77 v -59.6 h -12.77"
         style="fill:#4f8ad0;fill-opacity:1;fill-rule:nonzero;stroke:none"
         id="path442" />
      <path
         d="m 1970.14,2913.34 c 0,-4.67 -1.64,-8.23 -4.92,-10.68 -3.28,-2.44 -8.19,-3.66 -14.72,-3.66 -3.35,0 -6.2,0.22 -8.56,0.67 -2.36,0.45 -4.57,1.1 -6.63,1.97 v 10.28 c 2.33,-1.09 4.96,-2 7.88,-2.73 2.93,-0.74 5.5,-1.1 7.72,-1.1 4.56,0 6.84,1.3 6.84,3.91 0,0.98 -0.31,1.77 -0.91,2.38 -0.61,0.62 -1.65,1.31 -3.13,2.08 -1.48,0.78 -3.46,1.68 -5.93,2.72 -3.54,1.46 -6.14,2.82 -7.8,4.07 -1.66,1.25 -2.87,2.68 -3.62,4.3 -0.76,1.62 -1.14,3.61 -1.14,5.97 0,4.05 1.59,7.19 4.76,9.4 3.17,2.22 7.66,3.33 13.48,3.33 5.55,0 10.94,-1.2 16.18,-3.59 l -3.78,-8.97 c -2.31,0.98 -4.46,1.77 -6.47,2.4 -2,0.63 -4.05,0.94 -6.13,0.94 -3.71,0 -5.56,-0.99 -5.56,-2.98 0,-1.11 0.6,-2.07 1.79,-2.89 1.2,-0.82 3.81,-2.03 7.84,-3.63 3.6,-1.44 6.23,-2.78 7.91,-4.03 1.68,-1.25 2.91,-2.7 3.71,-4.32 0.79,-1.64 1.19,-3.58 1.19,-5.84"
         style="fill:#4f8ad0;fill-opacity:1;fill-rule:nonzero;stroke:none"
         id="path444" />
      <path
         d="m 2010.36,2899.81 -1.69,5.83 h -0.66 c -1.34,-2.12 -3.25,-3.76 -5.72,-4.91 -2.47,-1.16 -5.29,-1.73 -8.44,-1.73 -5.41,0 -9.49,1.43 -12.23,4.29 -2.75,2.87 -4.12,7 -4.12,12.38 v 29.72 h 12.56 v -26.62 c 0,-3.29 0.59,-5.76 1.77,-7.4 1.18,-1.65 3.06,-2.47 5.64,-2.47 3.51,0 6.05,1.16 7.62,3.49 1.56,2.32 2.34,6.17 2.34,11.56 v 21.44 h 12.56 v -45.58 h -9.63"
         style="fill:#4f8ad0;fill-opacity:1;fill-rule:nonzero;stroke:none"
         id="path446" />
      <path
         d="m 2052.55,2936.3 c -3.1,0 -5.37,-0.95 -6.79,-2.84 -1.43,-1.89 -2.17,-5.01 -2.22,-9.35 v -1.35 c 0,-4.89 0.73,-8.4 2.2,-10.51 1.47,-2.12 3.79,-3.19 6.98,-3.19 5.63,0 8.44,4.6 8.44,13.78 0,4.49 -0.69,7.85 -2.08,10.09 -1.39,2.25 -3.56,3.37 -6.53,3.37 z m 3.71,-37.3 c -5.41,0 -9.65,1.94 -12.72,5.82 h -0.66 c 0.43,-3.8 0.66,-6 0.66,-6.6 v -18.47 h -12.56 v 65.64 h 10.21 l 1.77,-5.91 h 0.58 c 2.93,4.51 7.28,6.77 13.05,6.77 5.43,0 9.69,-2.09 12.76,-6.24 3.08,-4.16 4.61,-9.94 4.61,-17.33 0,-4.87 -0.72,-9.09 -2.16,-12.68 -1.44,-3.59 -3.49,-6.32 -6.15,-8.19 -2.67,-1.88 -5.8,-2.81 -9.39,-2.81"
         style="fill:#4f8ad0;fill-opacity:1;fill-rule:nonzero;stroke:none"
         id="path448" />
      <path
         d="m 2103.72,2936.3 c -3.1,0 -5.37,-0.95 -6.79,-2.84 -1.43,-1.89 -2.17,-5.01 -2.22,-9.35 v -1.35 c 0,-4.89 0.73,-8.4 2.2,-10.51 1.46,-2.12 3.79,-3.19 6.97,-3.19 5.63,0 8.45,4.6 8.45,13.78 0,4.49 -0.7,7.85 -2.08,10.09 -1.39,2.25 -3.56,3.37 -6.53,3.37 z m 3.71,-37.3 c -5.41,0 -9.65,1.94 -12.72,5.82 h -0.67 c 0.44,-3.8 0.67,-6 0.67,-6.6 v -18.47 h -12.56 v 65.64 h 10.21 l 1.77,-5.91 h 0.58 c 2.93,4.51 7.28,6.77 13.05,6.77 5.43,0 9.69,-2.09 12.76,-6.24 3.07,-4.16 4.61,-9.94 4.61,-17.33 0,-4.87 -0.72,-9.09 -2.16,-12.68 -1.44,-3.59 -3.49,-6.32 -6.16,-8.19 -2.66,-1.88 -5.79,-2.81 -9.38,-2.81"
         style="fill:#4f8ad0;fill-opacity:1;fill-rule:nonzero;stroke:none"
         id="path450" />
      <path
         d="m 2143.32,2922.68 c 0,-4.51 0.75,-7.92 2.25,-10.23 1.49,-2.31 3.93,-3.47 7.3,-3.47 3.35,0 5.76,1.15 7.23,3.45 1.47,2.29 2.2,5.71 2.2,10.25 0,4.51 -0.74,7.89 -2.22,10.15 -1.48,2.26 -3.91,3.38 -7.29,3.38 -3.35,0 -5.77,-1.12 -7.25,-3.36 -1.48,-2.24 -2.22,-5.63 -2.22,-10.17 z m 31.83,0 c 0,-7.42 -1.98,-13.22 -5.93,-17.41 -3.95,-4.18 -9.46,-6.27 -16.51,-6.27 -4.42,0 -8.32,0.95 -11.7,2.87 -3.37,1.92 -5.97,4.67 -7.78,8.26 -1.81,3.58 -2.71,7.76 -2.71,12.55 0,7.45 1.96,13.23 5.88,17.37 3.93,4.13 9.44,6.2 16.56,6.2 4.42,0 8.31,-0.96 11.69,-2.86 3.38,-1.9 5.97,-4.64 7.78,-8.19 1.81,-3.57 2.72,-7.74 2.72,-12.52"
         style="fill:#4f8ad0;fill-opacity:1;fill-rule:nonzero;stroke:none"
         id="path452" />
      <path
         d="m 2209.03,2946.25 c 1.7,0 3.11,-0.13 4.24,-0.37 l -0.95,-11.66 c -1.02,0.27 -2.25,0.41 -3.7,0.41 -4.01,0 -7.13,-1.02 -9.37,-3.06 -2.24,-2.04 -3.36,-4.89 -3.36,-8.56 v -23.2 h -12.56 v 45.58 h 9.52 l 1.85,-7.67 h 0.61 c 1.43,2.56 3.36,4.62 5.79,6.18 2.43,1.56 5.07,2.35 7.93,2.35"
         style="fill:#4f8ad0;fill-opacity:1;fill-rule:nonzero;stroke:none"
         id="path454" />
      <path
         d="m 2238.82,2908.9 c 2.2,0 4.84,0.48 7.91,1.43 v -9.26 c -3.13,-1.38 -6.97,-2.07 -11.53,-2.07 -5.02,0 -8.68,1.25 -10.97,3.77 -2.29,2.51 -3.44,6.28 -3.44,11.31 v 21.97 h -6.01 v 5.26 l 6.92,4.16 3.62,9.62 h 8.03 v -9.7 h 12.89 v -9.34 h -12.89 v -21.97 c 0,-1.77 0.5,-3.07 1.5,-3.92 1,-0.84 2.33,-1.26 3.97,-1.26"
         style="fill:#4f8ad0;fill-opacity:1;fill-rule:nonzero;stroke:none"
         id="path456" />
      <path
         d="m 113.574,2899.81 v 59.6 h 12.766 v -59.6 h -12.766"
         style="fill:#4f8ad0;fill-opacity:1;fill-rule:nonzero;stroke:none"
         id="path458" />
      <path
         d="m 190.137,2913.34 c 0,-4.67 -1.637,-8.23 -4.918,-10.68 -3.281,-2.44 -8.188,-3.66 -14.723,-3.66 -3.348,0 -6.199,0.22 -8.558,0.67 -2.364,0.45 -4.571,1.1 -6.633,1.97 v 10.28 c 2.336,-1.09 4.961,-2 7.883,-2.73 2.929,-0.74 5.5,-1.1 7.722,-1.1 4.555,0 6.836,1.3 6.836,3.91 0,0.98 -0.301,1.77 -0.906,2.38 -0.606,0.62 -1.649,1.31 -3.129,2.08 -1.484,0.78 -3.457,1.68 -5.93,2.72 -3.543,1.46 -6.14,2.82 -7.801,4.07 -1.664,1.25 -2.871,2.68 -3.625,4.3 -0.753,1.62 -1.132,3.61 -1.132,5.97 0,4.05 1.586,7.19 4.757,9.4 3.168,2.22 7.665,3.33 13.481,3.33 5.547,0 10.941,-1.2 16.184,-3.59 l -3.79,-8.97 c -2.304,0.98 -4.457,1.77 -6.46,2.4 -2.004,0.63 -4.051,0.94 -6.137,0.94 -3.703,0 -5.559,-0.99 -5.559,-2.98 0,-1.11 0.598,-2.07 1.789,-2.89 1.2,-0.82 3.813,-2.03 7.844,-3.63 3.598,-1.44 6.231,-2.78 7.906,-4.03 1.676,-1.25 2.91,-2.7 3.707,-4.32 0.793,-1.64 1.192,-3.58 1.192,-5.84"
         style="fill:#4f8ad0;fill-opacity:1;fill-rule:nonzero;stroke:none"
         id="path460" />
      <path
         d="m 230.355,2899.81 -1.683,5.83 h -0.66 c -1.348,-2.12 -3.25,-3.76 -5.723,-4.91 -2.473,-1.16 -5.285,-1.73 -8.441,-1.73 -5.407,0 -9.485,1.43 -12.231,4.29 -2.746,2.87 -4.113,7 -4.113,12.38 v 29.72 h 12.555 v -26.62 c 0,-3.29 0.593,-5.76 1.773,-7.4 1.18,-1.65 3.059,-2.47 5.637,-2.47 3.515,0 6.054,1.16 7.617,3.49 1.566,2.32 2.348,6.17 2.348,11.56 v 21.44 h 12.558 v -45.58 h -9.637"
         style="fill:#4f8ad0;fill-opacity:1;fill-rule:nonzero;stroke:none"
         id="path462" />
      <path
         d="m 272.551,2936.3 c -3.102,0 -5.367,-0.95 -6.793,-2.84 -1.43,-1.89 -2.168,-5.01 -2.223,-9.35 v -1.35 c 0,-4.89 0.735,-8.4 2.203,-10.51 1.465,-2.12 3.793,-3.19 6.977,-3.19 5.633,0 8.441,4.6 8.441,13.78 0,4.49 -0.691,7.85 -2.078,10.09 -1.387,2.25 -3.558,3.37 -6.527,3.37 z m 3.711,-37.3 c -5.414,0 -9.653,1.94 -12.727,5.82 h -0.66 c 0.438,-3.8 0.66,-6 0.66,-6.6 v -18.47 h -12.558 v 65.64 h 10.211 l 1.769,-5.91 h 0.578 c 2.938,4.51 7.289,6.77 13.051,6.77 5.437,0 9.691,-2.09 12.766,-6.24 3.074,-4.16 4.609,-9.94 4.609,-17.33 0,-4.87 -0.719,-9.09 -2.156,-12.68 -1.446,-3.59 -3.496,-6.32 -6.16,-8.19 -2.661,-1.88 -5.793,-2.81 -9.383,-2.81"
         style="fill:#4f8ad0;fill-opacity:1;fill-rule:nonzero;stroke:none"
         id="path464" />
      <path
         d="m 323.723,2936.3 c -3.106,0 -5.371,-0.95 -6.793,-2.84 -1.43,-1.89 -2.172,-5.01 -2.223,-9.35 v -1.35 c 0,-4.89 0.731,-8.4 2.199,-10.51 1.469,-2.12 3.793,-3.19 6.981,-3.19 5.629,0 8.437,4.6 8.437,13.78 0,4.49 -0.687,7.85 -2.074,10.09 -1.387,2.25 -3.562,3.37 -6.527,3.37 z m 3.707,-37.3 c -5.41,0 -9.653,1.94 -12.723,5.82 h -0.66 c 0.433,-3.8 0.66,-6 0.66,-6.6 v -18.47 h -12.562 v 65.64 h 10.214 l 1.766,-5.91 h 0.582 c 2.934,4.51 7.285,6.77 13.047,6.77 5.437,0 9.691,-2.09 12.769,-6.24 3.071,-4.16 4.61,-9.94 4.61,-17.33 0,-4.87 -0.723,-9.09 -2.16,-12.68 -1.442,-3.59 -3.493,-6.32 -6.16,-8.19 -2.661,-1.88 -5.793,-2.81 -9.383,-2.81"
         style="fill:#4f8ad0;fill-opacity:1;fill-rule:nonzero;stroke:none"
         id="path466" />
      <path
         d="m 363.32,2922.68 c 0,-4.51 0.746,-7.92 2.246,-10.23 1.493,-2.31 3.93,-3.47 7.309,-3.47 3.348,0 5.754,1.15 7.227,3.45 1.464,2.29 2.199,5.71 2.199,10.25 0,4.51 -0.742,7.89 -2.223,10.15 -1.48,2.26 -3.914,3.38 -7.285,3.38 -3.352,0 -5.77,-1.12 -7.25,-3.36 -1.484,-2.24 -2.223,-5.63 -2.223,-10.17 z m 31.828,0 c 0,-7.42 -1.976,-13.22 -5.929,-17.41 -3.953,-4.18 -9.457,-6.27 -16.512,-6.27 -4.422,0 -8.316,0.95 -11.695,2.87 -3.371,1.92 -5.969,4.67 -7.778,8.26 -1.812,3.58 -2.718,7.76 -2.718,12.55 0,7.45 1.961,13.23 5.886,17.37 3.922,4.13 9.442,6.2 16.551,6.2 4.422,0 8.32,-0.96 11.695,-2.86 3.379,-1.9 5.969,-4.64 7.782,-8.19 1.816,-3.57 2.718,-7.74 2.718,-12.52"
         style="fill:#4f8ad0;fill-opacity:1;fill-rule:nonzero;stroke:none"
         id="path468" />
      <path
         d="m 429.023,2946.25 c 1.707,0 3.118,-0.13 4.247,-0.37 l -0.95,-11.66 c -1.015,0.27 -2.25,0.41 -3.703,0.41 -4.008,0 -7.133,-1.02 -9.367,-3.06 -2.238,-2.04 -3.355,-4.89 -3.355,-8.56 v -23.2 h -12.559 v 45.58 h 9.512 l 1.847,-7.67 h 0.621 c 1.426,2.56 3.356,4.62 5.782,6.18 2.433,1.56 5.074,2.35 7.925,2.35"
         style="fill:#4f8ad0;fill-opacity:1;fill-rule:nonzero;stroke:none"
         id="path470" />
      <path
         d="m 458.824,2908.9 c 2.196,0 4.832,0.48 7.91,1.43 v -9.26 c -3.132,-1.38 -6.972,-2.07 -11.531,-2.07 -5.027,0 -8.683,1.25 -10.973,3.77 -2.292,2.51 -3.437,6.28 -3.437,11.31 v 21.97 h -6.012 v 5.26 l 6.918,4.16 3.621,9.62 h 8.028 v -9.7 h 12.89 v -9.34 h -12.89 v -21.97 c 0,-1.77 0.504,-3.07 1.507,-3.92 1,-0.84 2.325,-1.26 3.969,-1.26"
         style="fill:#4f8ad0;fill-opacity:1;fill-rule:nonzero;stroke:none"
         id="path472" />
    </g>
  </g>
</svg>
