<svg width="5620" height="5620" viewBox="0 0 5620 5620" fill="none" xmlns="http://www.w3.org/2000/svg">
<path d="M2810 5620C4361.92 5620 5620 4361.92 5620 2810C5620 1258.08 4361.92 0 2810 0C1258.08 0 0 1258.08 0 2810C0 4361.92 1258.08 5620 2810 5620Z" fill="#FED105"/>
<path d="M2810.1 5339.21C4206.89 5339.21 5339.21 4206.89 5339.21 2810.1C5339.21 1413.32 4206.89 281 2810.1 281C1413.32 281 281 1413.32 281 2810.1C281 4206.89 1413.32 5339.21 2810.1 5339.21Z" fill="white"/>
<path d="M2209 4189.38C2148.11 4131.83 2115.85 4059.73 2061.96 4004.82C2038.58 3981 2006.46 3964.93 1954.47 3960.49C1563.43 3927.12 1277.12 3933.94 1122.75 3630.39C1234.97 3694.52 1669.16 3620.4 1632.91 3510.35C1322.55 3559.44 898.686 3352.89 803 3108.6C966.348 3172.3 1166.62 3196.08 1296 3072.19C2298.77 3072.19 3301.55 3072.19 4304.32 3072.19C4393.39 3201.68 4512.5 3264.93 4514.96 3398.31C4516.46 3479.64 4474.76 3574.56 4422.32 3614.24C4233.4 3757.15 3928.19 3750.71 3744.64 3699.07C3653.73 3959.9 3964.02 4126.02 3912.61 4189.38C3912.61 4189.38 3621.91 4189.19 3461.45 4189.38C3379.78 4108.83 3357.1 3968.72 3254.87 3919.93C3096.54 3844.37 2635.99 3837.72 2591.14 3971.28C2560.54 4062.37 2763.42 4134.51 2713.98 4189.38H2209Z" fill="#FED105"/>
<path d="M986.935 2546.77C1167.22 2648.87 1354.53 2784.38 1540.05 2765.7C1357.85 2561.05 1142.77 2132.11 1277.88 1959.1C1356.78 2201.44 1573.16 2255.8 1782.33 2281.59C1691.23 2022.38 1748.86 1768.02 1956.3 1640.26C1898.38 1847.49 2023.49 2054.22 2285.54 2100.68C2229.66 1828.75 2476.07 1512.77 2743.05 1439.3C2605.06 1712.46 2677.02 1967.04 2922.41 2042.41C2946.24 1650.4 3276.3 1479.43 3574.9 1431C3468.14 1562.08 3323.32 1847.49 3506.39 2151.69C3545.66 1907.86 3756.9 1585.01 4152.75 1713.42C3956.54 1822.3 3900.08 2052.54 3971.47 2328.19C4036.71 2218.36 4346.69 2175.69 4509.05 2305.28C4251.43 2414.92 4073.46 2793.76 4252.43 2975.51C3249.13 2975.49 2290 2975.47 1286.71 2975.45C1139.22 2889.72 957.103 2689.24 986.935 2546.77Z" fill="#FED105"/>
<path d="M2311.56 2855.84L2137.45 2732.68L1964.18 2857.01L2027.51 2653.37L1855.72 2527L2068.96 2524.29L2136.07 2321.86L2204.53 2523.84L2417.79 2525.1L2246.86 2652.63L2311.56 2855.84Z" fill="white"/>
<path d="M2999.53 2855.84L2825.42 2732.68L2652.15 2857.01L2715.48 2653.37L2543.69 2527L2756.93 2524.29L2824.04 2321.86L2892.5 2523.84L3105.76 2525.1L2934.83 2652.63L2999.53 2855.84Z" fill="white"/>
<path d="M3687.5 2855.84L3513.39 2732.68L3340.12 2857.01L3403.45 2653.37L3231.66 2527L3444.9 2524.29L3512.01 2321.86L3580.47 2523.84L3793.73 2525.1L3622.8 2652.63L3687.5 2855.84Z" fill="white"/>
</svg>
