<?xml version="1.0" encoding="UTF-8" standalone="no"?>
<!-- Created with Inkscape (http://www.inkscape.org/) -->

<svg
   xmlns:dc="http://purl.org/dc/elements/1.1/"
   xmlns:cc="http://creativecommons.org/ns#"
   xmlns:rdf="http://www.w3.org/1999/02/22-rdf-syntax-ns#"
   xmlns:svg="http://www.w3.org/2000/svg"
   xmlns="http://www.w3.org/2000/svg"
   xmlns:sodipodi="http://sodipodi.sourceforge.net/DTD/sodipodi-0.dtd"
   xmlns:inkscape="http://www.inkscape.org/namespaces/inkscape"
   id="svg2"
   version="1.1"
   inkscape:version="0.48.4 r9939"
   width="3193.8611"
   height="2373.354"
   sodipodi:docname="LP_porcupine.svg"
   inkscape:export-filename="/home/lance/Desktop/LP_porcupine.png"
   inkscape:export-xdpi="25.406563"
   inkscape:export-ydpi="25.406563">
  <metadata
     id="metadata8">
    <rdf:RDF>
      <cc:Work
         rdf:about="">
        <dc:format>image/svg+xml</dc:format>
        <dc:type
           rdf:resource="http://purl.org/dc/dcmitype/StillImage" />
        <dc:title />
      </cc:Work>
    </rdf:RDF>
  </metadata>
  <defs
     id="defs6">
    <clipPath
       clipPathUnits="userSpaceOnUse"
       id="clipPath3826">
      <rect
         style="fill:#73ffff;fill-opacity:0.28440372;stroke:none"
         id="rect3828"
         width="3400"
         height="1154.1666"
         x="-104.16666"
         y="1399.3334"
         ry="3.2834313" />
    </clipPath>
    <clipPath
       clipPathUnits="userSpaceOnUse"
       id="clipPath3832">
      <rect
         style="fill:#73ffff;fill-opacity:0.28440372;stroke:none"
         id="rect3834"
         width="3837.5"
         height="1604.1666"
         x="500.00003"
         y="-2729.8335"
         ry="3.2834313" />
    </clipPath>
  </defs>
  <sodipodi:namedview
     pagecolor="#ffffff"
     bordercolor="#666666"
     borderopacity="1"
     objecttolerance="10"
     gridtolerance="10"
     guidetolerance="10"
     inkscape:pageopacity="0"
     inkscape:pageshadow="2"
     inkscape:window-width="1280"
     inkscape:window-height="954"
     id="namedview4"
     showgrid="false"
     inkscape:zoom="0.2197789"
     inkscape:cx="1587.9464"
     inkscape:cy="1219.1471"
     inkscape:window-x="0"
     inkscape:window-y="0"
     inkscape:window-maximized="1"
     inkscape:current-layer="svg2"
     fit-margin-top="0"
     fit-margin-left="0"
     fit-margin-right="0"
     fit-margin-bottom="0" />
  <path
     style="fill:#b22234;fill-opacity:1"
     d="m 1150.5763,2416.248 c -52.3856,-49.5155 -80.1451,-111.559 -126.5075,-158.8007 -20.1171,-20.4987 -47.7551,-34.3237 -92.4925,-38.1419 -336.45745,-28.7156 -582.79599,-22.8403 -715.6182,-284.0201 96.5483,55.1772 470.13801,-8.5962 438.9457,-103.2849 -267.03752,42.2384 -631.737907,-135.4813 -714.067203,-345.6786 140.547012,54.8102 312.868253,75.2737 424.186003,-31.3214 862.8012,0 1725.6023,0 2588.4035,0 76.6407,111.4162 179.1191,165.8375 181.2377,280.5995 1.2918,69.9738 -34.5862,151.6477 -79.7075,185.7824 -162.5486,122.9696 -425.1602,117.4253 -583.0848,72.9895 -78.2276,224.4261 188.7575,367.3558 144.5212,421.8762 0,0 -250.1216,-0.1684 -388.1824,0 -70.2744,-69.312 -89.7849,-189.8624 -177.7509,-231.8416 -136.23,-65.0117 -532.4865,-70.7376 -571.0825,44.1795 -26.325,78.381 148.2336,140.448 105.6994,187.6621 z"
     id="path2987"
     inkscape:connector-curvature="0"
     sodipodi:nodetypes="csscccccsscscsscc"
     clip-path="url(#clipPath3826)"
     transform="translate(59.163403,-42.893967)" />
  <path
     style="fill:#3c3b6e;fill-opacity:1"
     d="m 1155.0967,-1522.0789 c 155.1241,87.8496 316.2852,204.4396 475.9088,188.3662 -156.7637,-176.0816 -341.8235,-545.1436 -225.572,-694.0105 67.881,208.5137 254.0631,255.2832 434.0314,277.4749 -78.3808,-223.0222 -28.7981,-441.8816 149.6853,-551.8072 -49.8294,178.3065 57.8143,356.1747 283.2884,396.1494 -48.0846,-233.9717 163.9338,-505.8407 393.6447,-569.0574 -118.7263,235.0294 -56.8157,454.0728 154.3293,518.9233 20.4968,-337.2929 304.4909,-484.3999 561.4125,-526.0659 -91.8609,112.7849 -216.4684,358.3501 -58.9485,620.0949 33.7842,-209.7985 215.5368,-487.5817 556.1338,-377.0937 -168.823,93.6835 -217.3953,291.777 -155.9757,528.9519 56.1337,-94.4927 322.8475,-131.2148 462.5471,-19.7062 -221.6636,94.3368 -374.7922,420.293 -220.8023,576.6687 -863.2516,-0.016 -1688.5031,-0.032 -2551.7547,-0.048 -126.8963,-73.7631 -283.5959,-246.2548 -257.9281,-368.8404 z"
     id="path2987-4"
     inkscape:connector-curvature="0"
     sodipodi:nodetypes="cccccccccccccccc"
     clip-path="url(#clipPath3832)"
     transform="translate(-996.83663,2482.1061)" />
  <path
     sodipodi:type="star"
     style="fill:#ffffff;fill-opacity:1;stroke:none"
     id="path2992"
     sodipodi:sides="5"
     sodipodi:cx="1028.0056"
     sodipodi:cy="824.74585"
     sodipodi:r1="312.73248"
     sodipodi:r2="122.0474"
     sodipodi:arg1="0.93910569"
     sodipodi:arg2="1.5674242"
     inkscape:flatsided="false"
     inkscape:rounded="0"
     inkscape:randomized="0"
     d="M 1212.6773,1077.1304 1028.4172,946.79256 845.04028,1078.3702 912.05948,862.85177 730.25516,729.1097 l 225.68024,-2.8598 71.0157,-214.23476 72.4588,213.75094 225.6944,1.33772 -180.8982,134.96514 z"
     inkscape:transform-center-x="0.26494458"
     inkscape:transform-center-y="-24.026873"
     transform="matrix(0.8130041,0,0,0.8130041,312.07548,350.24163)" />
  <path
     sodipodi:type="star"
     style="fill:#ffffff;fill-opacity:1;stroke:none"
     id="path2992-3"
     sodipodi:sides="5"
     sodipodi:cx="1028.0056"
     sodipodi:cy="824.74585"
     sodipodi:r1="312.73248"
     sodipodi:r2="122.0474"
     sodipodi:arg1="0.93910569"
     sodipodi:arg2="1.5674242"
     inkscape:flatsided="false"
     inkscape:rounded="0"
     inkscape:randomized="0"
     d="M 1212.6773,1077.1304 1028.4172,946.79256 845.04028,1078.3702 912.05948,862.85177 730.25516,729.1097 l 225.68024,-2.8598 71.0157,-214.23476 72.4588,213.75094 225.6944,1.33772 -180.8982,134.96514 z"
     inkscape:transform-center-x="0.26494458"
     inkscape:transform-center-y="-24.026873"
     transform="matrix(0.8130041,0,0,0.8130041,904.01555,350.24163)" />
  <path
     sodipodi:type="star"
     style="fill:#ffffff;fill-opacity:1;stroke:none"
     id="path2992-2"
     sodipodi:sides="5"
     sodipodi:cx="1028.0056"
     sodipodi:cy="824.74585"
     sodipodi:r1="312.73248"
     sodipodi:r2="122.0474"
     sodipodi:arg1="0.93910569"
     sodipodi:arg2="1.5674242"
     inkscape:flatsided="false"
     inkscape:rounded="0"
     inkscape:randomized="0"
     d="M 1212.6773,1077.1304 1028.4172,946.79256 845.04028,1078.3702 912.05948,862.85177 730.25516,729.1097 l 225.68024,-2.8598 71.0157,-214.23476 72.4588,213.75094 225.6944,1.33772 -180.8982,134.96514 z"
     inkscape:transform-center-x="0.26494458"
     inkscape:transform-center-y="-24.026873"
     transform="matrix(0.8130041,0,0,0.8130041,1495.9556,350.24163)" />
</svg>
