<?xml version="1.0" encoding="UTF-8" standalone="no"?>
<svg
   xmlns:dc="http://purl.org/dc/elements/1.1/"
   xmlns:cc="http://creativecommons.org/ns#"
   xmlns:rdf="http://www.w3.org/1999/02/22-rdf-syntax-ns#"
   xmlns:svg="http://www.w3.org/2000/svg"
   xmlns="http://www.w3.org/2000/svg"
   xmlns:sodipodi="http://sodipodi.sourceforge.net/DTD/sodipodi-0.dtd"
   xmlns:inkscape="http://www.inkscape.org/namespaces/inkscape"
   height="21.813179"
   width="28.2411"
   version="1.1"
   id="svg12"
   sodipodi:docname="logo.svg"
   inkscape:version="1.0.2 (e86c870879, 2021-01-15)">
  <metadata
     id="metadata18">
    <rdf:RDF>
      <cc:Work
         rdf:about="">
        <dc:format>image/svg+xml</dc:format>
        <dc:type
           rdf:resource="http://purl.org/dc/dcmitype/StillImage" />
        <dc:title />
      </cc:Work>
    </rdf:RDF>
  </metadata>
  <defs
     id="defs16" />
  <sodipodi:namedview
     pagecolor="#ffffff"
     bordercolor="#666666"
     borderopacity="1"
     objecttolerance="10"
     gridtolerance="10"
     guidetolerance="10"
     inkscape:pageopacity="0"
     inkscape:pageshadow="2"
     inkscape:window-width="1280"
     inkscape:window-height="768"
     id="namedview14"
     showgrid="false"
     inkscape:zoom="2"
     inkscape:cx="14.617556"
     inkscape:cy="10.845483"
     inkscape:window-x="0"
     inkscape:window-y="0"
     inkscape:window-maximized="0"
     inkscape:current-layer="svg12"
     inkscape:document-rotation="0" />
  <path
     id="path7871"
     d="M 6.624282,21.515391 C 5.7284256,21.089353 5.0159792,20.233194 4.9970782,19.241874 4.972471,17.95154 5.6943691,16.799535 7.0663917,16.78144 c 0.5733691,-0.0076 1.3265469,0.228451 1.547032,1.201064 0.024861,1.020487 -0.6640341,1.902241 -1.5261835,2.358419 0.076443,0.311106 0.3253018,0.560138 0.8150127,0.43523 2.8541081,-2.238911 4.6574421,-9.206182 4.6611001,-9.217619 L 2.1951854,11.640079 2.2338003,10.039 H 12.87866 c 1.009657,-3.8668606 2.666931,-7.9731732 6.243214,-9.56545744 1.286737,-0.54856262 2.844742,-0.57941501 3.544772,-0.24660167 1.183064,0.56246142 1.492564,1.93717311 0.873884,3.38455501 -0.445238,1.04162 -1.090556,1.358259 -1.889924,1.257496 C 21.056112,4.7940606 20.533124,4.2782263 20.479945,3.8096136 20.403338,3.1344869 20.671778,2.5291456 21.380259,2.0890375 21.756847,1.8551017 22.166484,1.8473971 22.336547,1.5430346 21.525311,0.29769177 20.177863,1.0862087 19.355432,2.2922462 17.905971,4.6569901 17.122207,7.4411649 16.332484,10.166304 l 10.663439,-0.0036 -0.0013,1.435983 -10.932744,-0.0401 c -1.09264,3.050593 -2.537916,6.455953 -4.336002,8.346656 -1.546846,1.61335 -3.6130841,2.318057 -5.101552,1.610198 z"
     style="fill:#000000;fill-opacity:1;stroke-width:0.191707"
     sodipodi:nodetypes="sscccccccccssccscccccccss" />
</svg>
