<?xml version="1.0" encoding="UTF-8"?>
<svg version="1.1" viewBox="0 0 28.241 21.813" xmlns="http://www.w3.org/2000/svg" xmlns:cc="http://creativecommons.org/ns#">
<path d="m6.6243 21.515c-0.89586-0.42604-1.6083-1.2822-1.6272-2.2735-0.024607-1.2903 0.69729-2.4423 2.0693-2.4604 0.57337-0.0076 1.3265 0.22845 1.547 1.2011 0.024861 1.0205-0.66403 1.9022-1.5262 2.3584 0.076443 0.31111 0.3253 0.56014 0.81501 0.43523 2.8541-2.2389 4.6574-9.2062 4.6611-9.2176h-7.5549v-1.5195h7.8702c1.0097-3.8669 2.6669-7.9732 6.2432-9.5655 1.2867-0.54856 2.8447-0.57942 3.5448-0.2466 1.1831 0.56246 1.4926 1.9372 0.87388 3.3846-0.44524 1.0416-1.0906 1.3583-1.8899 1.2575-0.59449-0.074931-1.1175-0.59077-1.1707-1.0594-0.076607-0.67513 0.19183-1.2805 0.90031-1.7206 0.37659-0.23394 0.78622-0.24164 0.95629-0.546-0.81124-1.2453-2.1587-0.45683-2.9811 0.74921-1.4495 2.3647-2.2332 5.1489-3.0229 7.8741l7.524-0.0036-0.0013 1.3544-7.7933 0.04144c-1.0926 3.0506-2.5379 6.456-4.336 8.3467-1.5468 1.6134-3.6131 2.3181-5.1016 1.6102z" stroke-width=".19171"/>
</svg>
