<?xml version="1.0" encoding="UTF-8"?>
<svg version="1.1" viewBox="0 0 28.241 21.813" xmlns="http://www.w3.org/2000/svg" xmlns:cc="http://creativecommons.org/ns#">
<path d="m16.551 0.4939c-0.56645 0.26738-1.1041 0.58364-1.6045 1.0753-0.6671 0.65554-1.1703 1.4779-1.5269 2.2139-0.45722 1.1242-0.73043 2.3376-0.80811 3.4359-0.13518 1.0006-0.074841 1.8862-0.14101 2.7804-3.9392 0.014206-8.6863 0.10888-12.47 0.16334l1.1213 1.9064c3.735-0.02571 7.9962-0.16353 11.303-0.13464 0.05173 0.75908-0.07195 1.5555-0.17549 2.2744-0.12367 0.79645-0.3336 1.4463-0.56366 2.1737-0.27894 0.75619-0.69301 1.3945-1.1071 2.0328-0.72749 0.88843-1.7368 1.7452-3.0766 1.4806-0.72744-0.23006-1.0638-0.69012-1.2047-1.2652-0.16962-0.62395 0.020181-1.1961 0.32498-1.5728 0.22428-0.06612 0.42553 0.27605 0.96034 0.29045 0.73895 0.02591 1.3629-0.1437 1.9409-0.61523 0.52908-0.44277 0.7965-0.99482 0.87991-1.636 0.02301-0.40829-0.17824-0.75046-0.35074-1.0437-0.12362-0.32204-0.45139-0.65559-0.66416-0.79361-0.2904-0.15815-0.64981-0.20993-1.0293-0.18406-0.37954 0.025869-0.79934 0.20699-1.1904 0.43699-0.60671 0.42264-1.107 0.9143-1.5211 1.5526-0.36519 0.60955-0.57512 1.2594-0.64991 2.0271-0.077682 1.0984 0.21556 2.0443 0.78195 2.8955 0.61528 0.82236 1.4175 1.4032 2.5043 1.685 1.1357 0.25308 2.2744 0.1755 3.3584-0.33051 0.56644-0.26738 1.1041-0.58364 1.6045-1.0753 0.38243-0.35652 0.68723-0.73317 0.94314-1.0811 0.58947-0.67567 0.87129-1.7625 1.0726-2.5388 0.16104-0.62106 0.29334-1.291 0.36813-2.0587 0.13518-1.0006 0.07484-1.8862 0.14101-2.7804 3.9392-0.0142 8.6863-0.10888 12.47-0.16334l-1.1213-1.9064c-3.6574 0.045838-7.9761 0.085902-11.303 0.13464-0.12073-0.6527 0.0432-1.6044 0.14674-2.3232 0.12367-0.79645 0.25597-1.4664 0.56366-2.1737 0.27894-0.75619 0.59525-1.337 1.1071-2.0328 0.3048-0.37665 0.63835-0.70442 1.0495-1.0121 0.67572-0.52902 1.2508-0.66989 2.076-0.49733 0.72744 0.23006 1.0063 0.59236 1.2047 1.2652 0.16961 0.62395 0.02868 1.1674-0.32498 1.5728-0.35941-0.051766-0.5808-0.31631-0.96034-0.29045-0.73895-0.025907-1.3629 0.1437-1.9409 0.61523-0.52908 0.44277-0.7965 0.99482-0.87991 1.636-0.02302 0.40829 0.17823 0.75046 0.35074 1.0437 0.23001 0.39105 0.39389 0.55783 0.66416 0.79361 0.2904 0.15815 0.64981 0.20993 1.0293 0.18406 0.37954-0.025869 0.79934-0.20699 1.2393-0.46574 0.60671-0.42264 1.107-0.9143 1.4722-1.5238 0.36519-0.60955 0.57512-1.2594 0.64991-2.0271 0.04315-0.48592-0.04022-0.96323-0.14371-1.3629-0.16961-0.62395-0.51462-1.2105-0.87976-1.7195-0.25014-0.31342-0.57791-0.64697-1.0034-0.92302-0.42553-0.27605-0.81369-0.3767-1.3571-0.51761-1.1357-0.25307-2.3434-0.06911-3.3296 0.37939zm1.601 12.677c-0.34217 0.20126-0.61822 0.62679-0.56361 1.0552 0.02587 0.37954 0.35363 0.71309 0.67278 0.92012 0.33928 0.1294 0.69007 0.05466 0.93448-0.08909 0.48882-0.28751 0.65848-0.78205 0.52624-1.2306-0.09487-0.27316-0.34501-0.58658-0.69866-0.74042-0.35366-0.15384-0.59806-0.0101-0.87122 0.08479zm-9.5486-5.8315c-0.15815 0.2904-0.18117 0.69869-4.46e-5 1.1185 0.18112 0.4198 0.59804 0.56933 1.0265 0.51472 0.45717-0.0057347 0.8396-0.36225 0.98914-0.77916 0.19842-0.44566-0.031593-0.83671-0.35936-1.1703-0.22139-0.26454-0.55205-0.26743-0.89277-0.2315-0.34072 0.035921-0.60526 0.25731-0.76341 0.54771z" stroke-width=".5671"/>
</svg>
