<?xml version="1.0" encoding="UTF-8" standalone="no"?><svg xmlns="http://www.w3.org/2000/svg" version="1.1" viewBox="0 0 32 32" width="32" height="32"><path style="fill:#000000;fill-opacity:0;fill-rule:evenodd" d="M 0.0353459,-64.03102 H 960.03535 v 720 H 0.0353459 Z" /><path style="fill:#000000;fill-rule:evenodd;stroke-width:0.33321816" d="m 22.523534,5.776723 c -1.556849,0 -2.893708,2.508314 -4.010577,7.524941 h 8.90111 L 26.6018,11.173398 C 26.003878,9.602535 25.355191,8.310374 24.655739,7.296913 23.956285,6.283453 23.24555,5.776723 22.523534,5.776723 Z M 4.6536232,18.850357 c 1.1507137,2.432304 2.1980138,4.269202 3.1419007,5.510688 0.9401255,1.241489 1.8670896,1.862234 2.7808921,1.862234 0.699453,0 1.331218,-0.561629 1.895293,-1.684877 0.564075,-1.1317 1.133791,-3.027711 1.709149,-5.688045 z M 22.523534,0 c 1.173276,0 2.312709,0.743205 3.418297,2.229612 1.105588,1.477964 2.521418,4.674585 4.247488,9.589866 l -0.863035,1.482185 H 32 v 5.548694 H 17.294554 c -0.868676,4.332541 -1.541806,7.178674 -2.019391,8.538401 -0.481344,1.351278 -1.094306,2.457641 -1.838886,3.319082 C 12.691697,31.569282 11.738411,32 10.576415,32 9.1887893,32 7.8011638,31.108999 6.4135379,29.327 5.0259121,27.536553 3.4577827,24.589075 1.7091486,20.484561 L 2.5383394,18.850357 H 0 v -5.548694 h 15.365415 l 0.304601,-1.482185 C 17.260709,3.939826 19.545215,0 22.523533,0 Z" /></svg>