<?xml version="1.0" encoding="UTF-8" standalone="no"?>
<!-- Created with Inkscape (http://www.inkscape.org/) -->

<svg
   xmlns:dc="http://purl.org/dc/elements/1.1/"
   xmlns:cc="http://creativecommons.org/ns#"
   xmlns:rdf="http://www.w3.org/1999/02/22-rdf-syntax-ns#"
   xmlns:svg="http://www.w3.org/2000/svg"
   xmlns="http://www.w3.org/2000/svg"
   version="1.0"
   width="780"
   height="635"
   id="svg2">
  <defs
     id="defs4" />
  <metadata
     id="metadata7">
    <rdf:RDF>
      <cc:Work
         rdf:about="">
        <dc:format>image/svg+xml</dc:format>
        <dc:type
           rdf:resource="http://purl.org/dc/dcmitype/StillImage" />
        <dc:title></dc:title>
      </cc:Work>
    </rdf:RDF>
  </metadata>
  <g
     transform="translate(-135.78078,-208.63558)"
     id="layer1">
    <path
       d="m 424.18754,295.13158 0,42.3229 c -15.57729,4.74378 -24.54454,9.67257 -23.08842,12.83568 5.11799,-1.49145 13.30808,-2.14526 23.08842,-1.5154 l 0,219.88546 c -23.81648,45.80503 10.21622,116.09832 10.21622,116.09832 0,0 -25.24447,-74.9772 30.98454,-110.44806 C 517.122,541.67463 695.46662,557.02081 694.85351,456.35967 693.98415,313.78289 529.54875,314.63309 447.05204,331.72938 l 0,-36.5978 -22.8645,0 z m 22.8645,57.14159 c 41.25943,9.92583 89.70189,41.57138 73.60669,117.76401 -8.00928,37.9143 -49.43875,57.72824 -73.60669,74.11202 l 0,-191.87603 z"
       id="path2217"
       style="fill:#000000;fill-opacity:1;stroke:none" />
    <path
       d="m 525.78078,225.79452 c -144.34211,0 -261.35377,117.01166 -261.35377,261.35263 0,144.34324 117.01166,261.35377 261.35377,261.35377 144.3421,0 261.35376,-117.01053 261.35376,-261.35377 0,-144.34097 -117.01166,-261.35263 -261.35376,-261.35263 z m 0,497.2529 c -130.28374,0 -235.89914,-105.61653 -235.89914,-235.90027 0,-130.2826 105.6154,-235.898 235.89914,-235.898 130.28373,0 235.89913,105.6154 235.89913,235.898 0,130.28487 -105.6154,235.90027 -235.89913,235.90027 z"
       id="path2221"
       style="fill:#000000;fill-opacity:1" />
  </g>
</svg>
