<svg width="52" height="12" viewBox="0 0 52 12" fill="none" xmlns="http://www.w3.org/2000/svg" class="xlsuyXog"><path d="M13.0417 7.0616L10.7476 9.34202C10.5532 9.5352 10.5534 9.84924 10.748 10.0422L12.501 11.7809C12.7998 12.073 13.2883 12.073 13.5871 11.7809L18.9604 6.5285C19.2591 6.23644 19.2591 5.75892 18.9604 5.46686L13.5871 0.219046C13.2883 -0.0730152 12.7998 -0.0730152 12.501 0.219046L10.748 1.95779C10.5534 2.15076 10.5532 2.4648 10.7476 2.65798L13.0417 4.93839C13.6392 5.52251 13.6392 6.47749 13.0417 7.0616Z" fill="#22272F"></path><path d="M6.14275 7.0616L8.43688 9.34202C8.63122 9.5352 8.63105 9.84924 8.43649 10.0422L6.6834 11.7809C6.38462 12.073 5.89614 12.073 5.59735 11.7809L0.224084 6.5285C-0.0746947 6.23644 -0.0746947 5.75892 0.224084 5.46686L5.59735 0.219046C5.89614 -0.0730152 6.38462 -0.0730152 6.6834 0.219046L8.43649 1.95779C8.63105 2.15076 8.63122 2.4648 8.43688 2.65798L6.14275 4.93839C5.54521 5.52251 5.54521 6.47749 6.14275 7.0616Z" fill="#22272F"></path><path d="M6.74458 6.43389C6.50262 6.19426 6.50262 5.80574 6.74458 5.56611L9.15414 3.17972C9.39609 2.94009 9.78838 2.94009 10.0303 3.17972L12.4399 5.56611C12.6819 5.80574 12.6819 6.19426 12.4399 6.43389L10.0303 8.82028C9.78838 9.05991 9.39609 9.05991 9.15414 8.82028L6.74458 6.43389Z" fill="#22272F"></path><path d="M29.4601 9.60013H27.7478L26.8035 7.15353C26.7274 6.96083 26.6098 6.82662 26.4506 6.75092C26.2984 6.67522 26.1047 6.63737 25.8695 6.63737H24.8214V9.60013H23.2233V2.25H26.5129C27.3708 2.25 28.0211 2.43582 28.4638 2.80745C28.9066 3.17909 29.128 3.71246 29.128 4.40755C29.128 4.89618 28.9965 5.31599 28.7337 5.66698C28.4777 6.01797 28.1076 6.26917 27.6233 6.42058C28.0591 6.51005 28.3739 6.80942 28.5676 7.3187L29.4601 9.60013ZM26.2742 5.4089C26.7377 5.4089 27.0767 5.3332 27.2912 5.18179C27.5057 5.0235 27.6129 4.77919 27.6129 4.44884C27.6129 4.1185 27.5057 3.87763 27.2912 3.72622C27.0767 3.56793 26.7377 3.48879 26.2742 3.48879H24.8006V5.4089H26.2742Z" fill="#22272F"></path><path d="M35.7385 4.36626V9.60013H34.1922V8.82589C34.0331 9.09429 33.8083 9.3042 33.5177 9.4556C33.2271 9.60701 32.8985 9.68271 32.5319 9.68271C32.0752 9.68271 31.6705 9.5726 31.3177 9.35237C30.9718 9.13214 30.6985 8.81901 30.4979 8.41296C30.3042 8.00003 30.2073 7.52516 30.2073 6.98836C30.2073 6.45155 30.3042 5.97324 30.4979 5.55343C30.6985 5.13362 30.9752 4.81016 31.3281 4.58305C31.6809 4.34905 32.0822 4.23206 32.5319 4.23206C32.8985 4.23206 33.2271 4.3112 33.5177 4.46949C33.8083 4.62778 34.0331 4.84113 34.1922 5.10953V4.36626H35.7385ZM32.9885 8.49554C33.3759 8.49554 33.6734 8.36478 33.8809 8.10326C34.0885 7.84174 34.1922 7.46322 34.1922 6.96771C34.1922 6.47219 34.0885 6.09368 33.8809 5.83216C33.6734 5.56375 33.3759 5.42955 32.9885 5.42955C32.601 5.42955 32.3001 5.56719 32.0856 5.84248C31.8712 6.11776 31.7639 6.49972 31.7639 6.98836C31.7639 7.47699 31.8677 7.85206 32.0752 8.11359C32.2897 8.36823 32.5941 8.49554 32.9885 8.49554Z" fill="#22272F"></path><path d="M43.4373 4.23206C44.0391 4.23206 44.4854 4.41443 44.7759 4.77919C45.0734 5.13706 45.2222 5.68763 45.2222 6.4309V9.60013H43.6552V6.48252C43.6552 6.11776 43.5964 5.85624 43.4788 5.69795C43.3612 5.53278 43.1674 5.4502 42.8976 5.4502C42.5794 5.4502 42.3338 5.56031 42.1608 5.78054C41.9879 6.00077 41.9014 6.31046 41.9014 6.70963V9.60013H40.3344V6.48252C40.3344 6.12465 40.2722 5.86313 40.1476 5.69795C40.03 5.53278 39.8398 5.4502 39.5769 5.4502C39.2586 5.4502 39.0096 5.56031 38.8297 5.78054C38.6567 6.00077 38.5703 6.31046 38.5703 6.70963V9.60013H37.0033V5.86312C37.0033 5.30567 36.9756 4.80672 36.9203 4.36626H38.3939L38.4873 5.15082C38.6464 4.85489 38.8678 4.62778 39.1514 4.46949C39.442 4.3112 39.774 4.23206 40.1476 4.23206C40.9294 4.23206 41.4483 4.55552 41.7042 5.20244C41.8772 4.90651 42.1159 4.67251 42.4203 4.50046C42.7316 4.32152 43.0706 4.23206 43.4373 4.23206Z" fill="#22272F"></path><path d="M49.6754 4.23206C50.1251 4.23206 50.5264 4.34905 50.8792 4.58305C51.232 4.81016 51.5053 5.13362 51.699 5.55343C51.8997 5.97324 52 6.45155 52 6.98836C52 7.52516 51.9031 8.00003 51.7094 8.41296C51.5157 8.81901 51.2424 9.13214 50.8896 9.35237C50.5368 9.5726 50.132 9.68271 49.6754 9.68271C49.3088 9.68271 48.9802 9.60701 48.6896 9.4556C48.399 9.3042 48.1776 9.09429 48.0254 8.82589V12H46.4585V5.86312C46.4585 5.30567 46.4308 4.80672 46.3754 4.36626H47.849L47.9528 5.23341C48.0912 4.92371 48.3125 4.6794 48.6169 4.50046C48.9283 4.32152 49.2811 4.23206 49.6754 4.23206ZM49.2292 8.49554C49.6166 8.49554 49.9141 8.36823 50.1217 8.11359C50.3292 7.85206 50.433 7.47699 50.433 6.98836C50.433 6.49972 50.3258 6.11776 50.1113 5.84248C49.9037 5.56719 49.6097 5.42955 49.2292 5.42955C48.8418 5.42955 48.5408 5.56375 48.3264 5.83216C48.1188 6.09368 48.0151 6.47219 48.0151 6.96771C48.0151 7.46322 48.1188 7.84174 48.3264 8.10326C48.5408 8.36478 48.8418 8.49554 49.2292 8.49554Z" fill="#22272F"></path></svg>
