<svg xmlns="http://www.w3.org/2000/svg" version="1.1" x="0" y="0" xml:space="preserve" id="svg112" width="171" height="171">
  <g id="g98" transform="translate(-85 -85)">
    <circle style="fill:#fff" id="circle94" r="85.5" cy="170.9" cx="170.9"/>
    <path style="fill:#fff;stroke:#000;stroke-width:20" id="path95" d="M228 171a13 13 0 0 0-21-9c-9-6-20-10-33-11l5-26 19 4a9 9 0 1 0 9-10c-4 0-7 2-8 5l-21-4h-2l-1 1-6 30c-13 1-25 5-34 11-2-2-5-4-8-4a13 13 0 0 0-5 24l-1 4c0 19 23 35 50 35 28 0 50-16 50-35v-4c4-2 7-6 7-11zm-86 9a9 9 0 0 1 18 0 9 9 0 0 1-18 0zm50 23c-6 6-18 7-21 7s-15-1-21-7v-3h3c4 4 12 5 18 5s14-1 18-5h3v3zm-1-14a9 9 0 0 1 0-18 9 9 0 0 1 0 18z"/>
    <path style="fill:#fff" id="path96" d="M228 171a13 13 0 0 0-21-9c-9-6-20-10-33-11l5-26 19 4a9 9 0 1 0 9-10c-4 0-7 2-8 5l-21-4h-2l-1 1-6 30c-13 1-25 5-34 11-2-2-5-4-8-4a13 13 0 0 0-5 24l-1 4c0 19 23 35 50 35 28 0 50-16 50-35v-4c4-2 7-6 7-11zm-86 9a9 9 0 0 1 18 0 9 9 0 0 1-18 0zm50 23c-6 6-18 7-21 7s-15-1-21-7v-3h3c4 4 12 5 18 5s14-1 18-5h3v3zm-1-14a9 9 0 0 1 0-18 9 9 0 0 1 0 18z"/>
  </g>
</svg>
