<?xml version="1.0" encoding="UTF-8" standalone="no"?>
<!-- Generator: Adobe Illustrator 21.1.0, SVG Export Plug-In . SVG Version: 6.00 Build 0)  -->

<svg
   xmlns:dc="http://purl.org/dc/elements/1.1/"
   xmlns:cc="http://creativecommons.org/ns#"
   xmlns:rdf="http://www.w3.org/1999/02/22-rdf-syntax-ns#"
   xmlns:svg="http://www.w3.org/2000/svg"
   xmlns="http://www.w3.org/2000/svg"
   xmlns:sodipodi="http://sodipodi.sourceforge.net/DTD/sodipodi-0.dtd"
   xmlns:inkscape="http://www.inkscape.org/namespaces/inkscape"
   version="1.1"
   x="0px"
   y="0px"
   viewBox="0 0 171.00001 171.00001"
   xml:space="preserve"
   id="svg112"
   sodipodi:docname="Reddit_Mark_OnWhite.svg"
   width="171"
   height="171"
   inkscape:version="0.92.4 (5da689c313, 2019-01-14)"><metadata
   id="metadata118"><rdf:RDF><cc:Work
       rdf:about=""><dc:format>image/svg+xml</dc:format><dc:type
         rdf:resource="http://purl.org/dc/dcmitype/StillImage" /><dc:title></dc:title></cc:Work></rdf:RDF></metadata><defs
   id="defs116">
	
</defs><sodipodi:namedview
   pagecolor="#ffffff"
   bordercolor="#666666"
   borderopacity="1"
   objecttolerance="10"
   gridtolerance="10"
   guidetolerance="10"
   inkscape:pageopacity="0"
   inkscape:pageshadow="2"
   inkscape:window-width="1100"
   inkscape:window-height="704"
   id="namedview114"
   showgrid="false"
   fit-margin-top="0"
   fit-margin-left="0"
   fit-margin-right="0"
   fit-margin-bottom="0"
   inkscape:zoom="1.4160328"
   inkscape:cx="85.5"
   inkscape:cy="85.5"
   inkscape:window-x="0"
   inkscape:window-y="0"
   inkscape:window-maximized="0"
   inkscape:current-layer="svg112" />
<style
   type="text/css"
   id="style92">
	.st0{fill:#000000;}
	.st1{fill:#FFFFFF;}
	.st2{display:none;}
	.st3{display:inline;fill:none;stroke:#D8D8D8;stroke-width:0.5;stroke-miterlimit:10;}
</style>
<g
   id="g98"
   transform="translate(-85.399994,-85.399994)">
		<circle
   style="fill:#ff4500"
   id="circle94"
   r="85.5"
   cy="170.89999"
   cx="170.89999"
   class="st0" />
		<path
   style="fill:#ffffff"
   inkscape:connector-curvature="0"
   id="path96"
   d="m 227.9,170.9 c 0,-6.9 -5.6,-12.5 -12.5,-12.5 -3.4,0 -6.4,1.3 -8.6,3.5 -8.5,-6.1 -20.3,-10.1 -33.3,-10.6 l 5.7,-26.7 18.5,3.9 c 0.2,4.7 4.1,8.5 8.9,8.5 4.9,0 8.9,-4 8.9,-8.9 0,-4.9 -4,-8.9 -8.9,-8.9 -3.5,0 -6.5,2 -7.9,5 L 178,119.8 c -0.6,-0.1 -1.2,0 -1.7,0.3 -0.5,0.3 -0.8,0.8 -1,1.4 l -6.3,29.8 c -13.3,0.4 -25.2,4.3 -33.8,10.6 -2.2,-2.1 -5.3,-3.5 -8.6,-3.5 -6.9,0 -12.5,5.6 -12.5,12.5 0,5.1 3,9.4 7.4,11.4 -0.2,1.2 -0.3,2.5 -0.3,3.8 0,19.2 22.3,34.7 49.9,34.7 27.6,0 49.9,-15.5 49.9,-34.7 0,-1.3 -0.1,-2.5 -0.3,-3.7 4.1,-2 7.2,-6.4 7.2,-11.5 z m -85.5,8.9 c 0,-4.9 4,-8.9 8.9,-8.9 4.9,0 8.9,4 8.9,8.9 0,4.9 -4,8.9 -8.9,8.9 -4.9,0 -8.9,-4 -8.9,-8.9 z m 49.7,23.5 c -6.1,6.1 -17.7,6.5 -21.1,6.5 -3.4,0 -15.1,-0.5 -21.1,-6.5 -0.9,-0.9 -0.9,-2.4 0,-3.3 0.9,-0.9 2.4,-0.9 3.3,0 3.8,3.8 12,5.2 17.9,5.2 5.9,0 14,-1.4 17.9,-5.2 0.9,-0.9 2.4,-0.9 3.3,0 0.7,1 0.7,2.4 -0.2,3.3 z m -1.6,-14.6 c -4.9,0 -8.9,-4 -8.9,-8.9 0,-4.9 4,-8.9 8.9,-8.9 4.9,0 8.9,4 8.9,8.9 0,4.9 -4,8.9 -8.9,8.9 z"
   class="st1" />
	</g>
<g
   id="Spacing_Guide"
   class="st2"
   style="display:none"
   transform="translate(-85.399994,-85.399994)">
	<rect
   class="st3"
   width="85.400002"
   height="85.400002"
   id="rect101"
   x="0"
   y="0"
   style="display:inline;fill:none;stroke:#d8d8d8;stroke-width:0.5;stroke-miterlimit:10" />
	<rect
   class="st3"
   width="341.79999"
   height="85.400002"
   id="rect103"
   x="0"
   y="0"
   style="display:inline;fill:none;stroke:#d8d8d8;stroke-width:0.5;stroke-miterlimit:10" />
	<rect
   y="256.29999"
   class="st3"
   width="341.79999"
   height="85.400002"
   id="rect105"
   x="0"
   style="display:inline;fill:none;stroke:#d8d8d8;stroke-width:0.5;stroke-miterlimit:10" />
	<rect
   class="st3"
   width="85.400002"
   height="341.79999"
   id="rect107"
   x="0"
   y="0"
   style="display:inline;fill:none;stroke:#d8d8d8;stroke-width:0.5;stroke-miterlimit:10" />
	<rect
   x="256.39999"
   class="st3"
   width="85.400002"
   height="341.79999"
   id="rect109"
   y="0"
   style="display:inline;fill:none;stroke:#d8d8d8;stroke-width:0.5;stroke-miterlimit:10" />
</g>
</svg>
