<?xml version="1.0"?>
<svg width="1024" height="768" xmlns="http://www.w3.org/2000/svg" xmlns:svg="http://www.w3.org/2000/svg" version="1.2">
 <metadata id="metadata3893">image/svg+xmlukraine</metadata>
 <title id="title3832">ukraine</title>
 <style id="style3834">.s0 { fill: #000000;stroke: #000000;stroke-width: .4 } 
		.s1 { fill: #000000 }</style>
 <g class="layer">
  <title>Layer 1</title>
  <path class="s0" d="m77.65,440.32c-0.04,0.78 0.1,-11.83 0.3,-17.1c0.2,-5.27 0.4,-8.9 0.6,-10.9l-13.8,-5.1c-0.87,4.53 -2.47,8.33 -4.8,11.4c-2.33,3.13 -5.1,5.83 -8.3,8.1c-0.93,0.67 -1.93,1 -3,1c-1.27,0 -2.47,-0.4 -3.6,-1.2c-1.07,-0.8 -2.07,-1.7 -3,-2.7c-1.93,-2.07 -3.27,-4.07 -4,-6c-0.73,-2 -1.1,-4.47 -1.1,-7.4c0,-2.87 0.27,-5.37 0.8,-7.5c0.6,-2.07 1.73,-4.3 3.4,-6.7c1.73,-2.6 3.73,-4.9 6,-6.9c2.27,-2.07 4.8,-3.1 7.6,-3.1c0.47,0 0.9,0.03 1.3,0.1c3.4,0.47 8.43,2.77 15.1,6.9c1.93,1.27 4.37,2.93 7.3,5c-0.53,-2.4 -1.4,-13.25 -1,-12.5c0.4,0.75 -13.53,-8.15 -13.96,-7.84c-0.43,0.31 1.03,7.14 0.96,7.14c-2.2,-1.53 -4.07,-2.77 -5.6,-3.7c-1.53,-1 -3.23,-1.73 -5.1,-2.2c-1.87,-0.53 -4.37,-0.87 -7.5,-1c-3.47,0 -6.37,0.87 -8.7,2.6c-2.33,1.73 -4.33,3.87 -6,6.4c-1.53,2.27 -2.6,4.47 -3.2,6.6c-0.6,2.13 -0.9,4.6 -0.9,7.4c0,3.33 0.43,6.37 1.3,9.1c0.93,2.73 2.07,5.23 3.4,7.5c1.67,2.93 3.7,5.67 6.1,8.2c2.47,2.53 5.13,4.57 8,6.1c2.93,1.47 5.87,2.2 8.8,2.2c1.67,0 3.47,-0.33 5.4,-1c1.87,-0.67 3.43,-1.5 4.7,-2.5c-0.13,2 -0.27,4.2 -0.4,6.6c-0.07,2.47 -0.1,8.81 -0.1,8.3c0,-0.51 13.04,-6.08 13,-5.3z" fill="#000000" id="path3836" stroke="#000000" stroke-width="0.4" transform="matrix(1 0 0 1 0 0)"/>
  <path class="s0" d="m530.32,212.73l0,1q0,5.9 0.3,13.3q0.2,7.3 0.7,15.2q0.5,7.8 1.1,14.9q0.6,7.1 1.5,12.5q-2.7,0.4 -6.2,0.4q-3.5,0 -6.4,-0.4q-0.2,-2.8 -0.6,-5.4q-0.3,-2.7 -0.5,-5.4q-0.3,-2.8 -0.5,-5.8q-0.1,-2.9 -0.4,-6l-3.5,4.8q-1.9,2.7 -3.2,5.4q-1.4,2.8 -2.3,6.4q-2.5,0.6 -5.3,1.9q-2.8,1.2 -4.7,2.6q-1.1,0 -2.1,-0.5q-1,-0.5 -1,-1.8q0,-3.2 1.4,-6.5q1.5,-3.3 3,-6.3q2.3,-4.9 5.5,-9.5q3.2,-4.5 6.1,-9.5q3,-5 4.5,-11.2q-0.1,-2 -0.3,-3.2q-0.1,-1.3 -0.3,-5q2.3,-0.6 6.3,-1.3q3.9,-0.6 6.9,-0.6zm-11.5,29.4q-0.1,-0.9 -0.2,-2.9q0,-2.1 -0.2,-4.2q-0.1,-2.2 -0.2,-3.2q-2,4.5 -4.6,8.9q-2.5,4.3 -4.7,8.6q-0.8,1.8 -0.8,2.7q0.3,1 1.3,1q0.8,0 2.2,-1q1.5,-1.5 3.5,-4.7q2.1,-3.2 3.7,-5.2z" id="path3838"/>
  <path class="s0" d="m172.09,391.81q-0.6,-0.2 -0.7,-0.6q-0.1,-0.4 -0.3,-0.9q0,-1.9 -0.7,-2.9q-0.7,-1.1 -1.4,-2.1q-0.9,-1.3 -3.8,-1.3q-3,0.1 -5,2q-2.1,1.9 -3.2,4.8q-1,2.9 -1,5.9q0,3.1 0.9,4.8q0.9,1.8 2.7,3.2q0.5,0.3 1.2,0.5q0.8,0.1 1.7,0.1q1.6,0 3.2,-0.3q1.6,-0.3 2.5,-0.6q1.8,-0.9 3.5,-1.6q1.6,-0.8 3,-1.4l6.6,-3q1.5,-0.6 3.9,-1.1q2.4,-0.5 4.4,-0.5q5.2,0 8.2,2.4q2.9,2.4 4.9,6q1.1,1.9 2,4.3q0.9,2.4 0.9,5.3q0,3.5 -0.9,5.5q-1,2 -2.4,4.1l-7.2,5.7q-1.5,1.2 -3.3,2.4q-1.7,1.2 -3.5,2.2q-0.8,0.5 -2,0.5q-1.3,0 -2.8,-0.4q-1.5,-0.4 -2.5,-0.5l-3.7,-1q-3.6,-0.7 -7.5,-1.2q-6.8,0 -12.4,0.6q-5.7,0.7 -11.9,2.1q-0.3,0.1 -1,0.1q-0.9,0 -1.6,-0.2q-0.8,-0.3 -1.4,-0.4q-0.3,-0.4 -0.6,-0.9q-0.3,-0.6 -0.3,-1.3q0,-0.7 0.1,-0.9l11.8,-4.6q3.2,-1.3 6.7,-2.4q3.5,-1 7.3,-1.9q1.8,-0.4 3.6,-0.4q3.4,0 6.7,0.6q3.3,0.7 6,1.3l6.9,1.5q0.6,-0.3 1.6,-1.4q1,-1.1 1.4,-1.6q-0.2,-5.1 -1.5,-9.6q-1.4,-4.4 -3.9,-7.5q-1.8,-2.3 -5.3,-2.3q-1,-0.2 -2,0.4q-2.8,1.1 -5.3,2.2l-5.2,2.5q-3.7,1.8 -9,4.2q-5.3,2.3 -10.2,2.6q-2.7,-1.5 -4.8,-4.3q-2,-2.8 -2,-6.8l0,-0.8q0,-3.2 1.4,-6.5q1.4,-3.2 3.5,-5.9q2.1,-2.7 4.1,-4.5q3,-2.7 7.3,-4.9q4.3,-2.2 9.3,-2.2q1.4,0 2.6,0.1q1.3,0 2.1,0.2l4.7,0.6q1,0 2,0.1q1,0.2 1.8,0.1q1.2,0.1 2.2,-0.1q1.1,-0.1 2,-0.6q1,-0.6 1.5,-0.8q1.6,0.8 2,2.7q-2.4,1.1 -4.9,2.6q-2.5,1.5 -4.8,2.9q-2,1.2 -4,2.5q-2.1,1.2 -4.2,2.6z" id="path3840"/>
  <path class="s0" d="m245.39,376.01q4.3,0.1 11.2,9.6q7.4,10 7.4,17.3l0,1q0,0 -0.2,0.9q-0.7,6 -3.7,11.3q-3,5.3 -7.1,9.1q-4.2,3.9 -8.5,5.6q-6.8,2.8 -11.3,2.8q-0.6,0 -1.1,0q-0.5,0.1 -1,0q-5.1,-1.5 -11.4,-11.3q-5.4,-8.1 -5.4,-14.2l0,-0.3q0,-7.4 4.8,-14q5.2,-7.1 12,-12.4q6.9,-5.3 14.2,-5.3l0.1,-0.1zm-9.6,9.8q-3,0 -5.4,2.3q-2.3,2.2 -3.7,4.7q-0.4,2.8 -0.4,5q0,9.3 5.1,18q5.9,9.7 12,9.7q1.3,0 2.4,-0.4q2.5,-0.8 5.6,-5.4q1,-4.2 1,-7.7q0,-5.9 -1.8,-10.4q-1.8,-4.5 -3.9,-7.1q-2,-2.5 -3.5,-4.2q-1.5,-1.6 -2.6,-2.5q-2.4,-2 -4.8,-2z" id="path3842"/>
  <path class="s0" d="m230.19,344.41q-3.1,-0.3 -4.9,-1.8q-1.8,-1.5 -1.8,-4.8q0,-6 4.9,-12.1q4.7,-5.9 12.2,-10q7.5,-4.1 17.9,-4.1q2.1,0 5,0.6q3,0.6 5.9,1.4q2.8,0.8 5,1.5q2.1,0.6 2.5,0.6q3,1.2 5.7,1.7q2.8,0.4 5.9,0.4q3.7,0 9.2,-2.9l3.5,-2.3q1.7,-1.2 2.8,0.3q1.1,1.5 -0.4,3.3q-2.9,5.4 -3.9,11q-0.5,2.9 -1.2,8.3q-0.6,5.4 -1.3,11.9q-0.6,6.4 -1.1,12q-0.7,9.3 -1.2,15.8q-0.5,6.5 -0.9,11.7q-0.4,5.3 -0.7,10.5q-0.3,5.3 -0.7,11.7q-0.4,6.3 -0.9,15.3q-0.1,2.4 -0.2,4.7q-0.1,2.2 -1,2.2l-12.6,0q-0.4,0 -0.6,-1q-0.2,-1 -0.2,-1.6q0.4,-11.1 0.8,-19.8q0.5,-8.7 1.1,-16.6q0.7,-7.9 1.5,-16.4q0.7,-8.6 1.7,-19.6q0.5,-5.5 1,-10.9q0.5,-5.5 1,-10.8q1.4,-10 5.2,-12.9q-2.8,0.9 -5.8,0.9q-1.1,0 -2.4,-0.2q-3.6,-0.3 -7.8,-1.5q-4.2,-1.2 -8.7,-2.3q-4.5,-1 -8.8,-1q-5.4,0 -10,2.8q-4.5,2.9 -5.7,6.9q-0.8,2.6 -1.1,5.9q-0.2,3.2 -1,6q-0.7,2.7 -3,3.9q-2.6,1.3 -4.9,1.3z" id="path3844"/>
  <path class="s0" d="m308.31,428.5q0,-6.1 0.6,-13.2q0.6,-7.1 1.6,-14.4q0.9,-7.3 2.1,-14q1.2,-6.7 2.2,-11.9q2.7,-0.8 6.9,-1.3q4.2,-0.6 7.3,-0.8l0.2,0.9q-1.7,3.3 -2.7,7.1q-1.1,3.7 -1.7,7q-0.6,3.6 -1.3,8.6q-0.6,5 -1,10.3q-0.5,5.2 -0.5,9.6q0,5.9 0.4,12.1l-1.2,0.1q0,0 -3,0.1q-2.9,0.1 -2.8,0.1q-2.4,0 -4.7,-0.2l-2.4,-0.1z" id="path3846"/>
  <path class="s0" d="m633.62,212.03q-3.1,4.2 -4,10.5q-0.9,6.4 -0.9,13.5l0,4.5q0,4 0.3,9q0.4,5.1 1,9.8q0.7,4.7 1.3,7.8q-1.6,0.2 -3.4,0.4q-1.7,0.1 -3.6,0.1q-0.3,0.1 -0.8,0.1q-1.6,0 -3.1,-0.2q-1.5,-0.2 -2.9,-0.4q-0.6,-7 -1,-13.9q-0.3,-7 -0.3,-14.6l0,-3.7l-15.3,-5.5q-1.2,9.1 -1.7,18.7q-0.5,9.6 -0.5,19q-1.8,0.2 -3.4,0.4q-1.6,0.1 -3,0.1q-1.4,0 -3,-0.1q-1.6,-0.2 -3.3,-0.4l0,-6.7q0,-6 0.5,-13q0.5,-6.9 1.4,-13.7q0.8,-6.8 1.5,-12.2q0.4,-2.1 0.8,-4q0.3,-1.9 0.8,-3.5q3.7,-1.1 7,-1.8q3.3,-0.7 6.4,-0.7l0.6,0.5q-1.1,1.1 -1.6,2.4q-0.5,1.3 -0.9,4q-0.2,1.8 -0.5,3.6q-0.3,1.9 -0.6,3.6l14.8,5.4q0.6,-9.1 1.8,-16.8q2.9,-1.3 7.1,-2q4.2,-0.7 8.1,-0.7l0.4,0.5z" id="path3848"/>
  <path class="s0" d="m812.13,392.69q0,0.6 -0.2,2.7q-0.1,2.2 -0.2,4.2q-0.1,2 -0.3,2q-1.9,1.7 -4.1,2.8q-2.1,1.1 -4.6,2.1q0.3,2 0.6,4.3q0.4,2.2 0.8,3.8q2.7,-0.5 5.6,-2q0.5,-0.1 0.5,0.4l0,1.9q0,1.6 -0.4,4.1q-0.3,2.5 -0.6,3.4q-2.4,2 -5.7,3.4q-3.3,1.3 -6.6,2.7q-0.7,0.3 -0.8,0.3q-1.3,0 -2,-1.9q-0.6,-1.8 -0.9,-3q-1,-5.1 -1.9,-11.5q-1,-6.4 -1,-13.9q0.3,-8 2.6,-12.4q2.4,-4.5 7.4,-8.2q2.4,-1.6 6.1,-3.3q3.7,-1.7 6.8,-2.2q0.4,1.6 0.4,3.6q0,2 -0.3,3.8q-0.2,1.8 -0.6,3.8q-3.3,0.9 -5.7,2.2q-2.4,1.2 -4.7,2.6q-0.2,0.9 -0.4,2.4q-0.1,1.6 -0.1,3l0,1.6q0,0 0.1,1.9q2.5,-1 5,-2.2q2.6,-1.2 4.5,-2.7q0.7,-0.3 0.7,0.4l0,-0.1z" id="path3850"/>
  <path class="s0" d="m589.97,417.66q2.6,-1.9 5.2,-4q2.5,-2.1 4.9,-4.1q-2.4,-5.2 -4.3,-11.3q-1.8,-6.1 -1.8,-13.1q0,-2.9 0.4,-5.4q0.4,-2.5 1.1,-4.6q2.5,-1.8 6,-2.6q3.5,-0.9 7.2,-1.4l0.6,0.9q-0.6,1.2 -1.3,2.6q-0.8,1.4 -1.3,2.7q-0.1,0.9 -0.2,2.1q0,1.2 0,2.4q0,8.7 2.6,16q2.6,7.4 6.2,12.5q2.4,3.5 5.2,5.7q2.8,-3.4 4.6,-8.4q1.7,-4.9 1.7,-11.4q0,-5.1 -0.6,-8.9q-0.7,-3.7 -2.1,-7.6q-0.5,-1.4 -0.9,-2.1q-0.5,-0.8 -1.9,-1.3l0,-1.1q2.4,-1.7 5.9,-2.9q3.5,-1.2 6.9,-1.7q2.2,2 3.4,6.4q1.2,4.5 1.2,8.7q0,9.1 -1.9,14.9q-2,5.7 -6.1,11.5q-3,4.2 -6.5,8.5q-3.6,4.2 -7.1,7.1q-0.9,0.5 -1.8,0q-4.2,-2.1 -7.5,-6.2q-3.3,-4.2 -5.8,-8.5q-0.7,0.6 -1.4,1.1q-0.8,0.6 -1.5,1.2q-4.3,3.3 -8.2,6.3q-3.9,3.1 -8.7,6.1q-0.5,0.3 -0.6,0.3q-0.3,0 -0.5,-0.3q-5,-4.9 -8.2,-12.8q-3.2,-7.9 -4.7,-16.4q-0.5,-3 -0.7,-6q-0.3,-3 -0.3,-6q0,-6.9 2.9,-11.4q2.5,-1.6 6.1,-2.7q3.6,-1.1 7.3,-1.3l0.6,0.9q-0.8,1.2 -1.9,2.8q-1.1,1.7 -1.7,3q-0.3,1.7 -0.5,3.3q-0.2,1.7 -0.2,3.7q0,7.8 2.1,14.6q2.1,6.8 4.7,12.2q1.7,3.5 3.4,6z" id="path3852"/>
  <path class="s0" d="m745.03,427.99q0.7,-9.6 2,-19.6q1.3,-10 2.6,-19.5q0.6,-4 1.2,-8.1q0.6,-4.2 1.3,-7.4l27.6,0q0.2,0 1.2,0.4q1,0.3 0.2,0.8q-2.7,1.8 -5.7,5q-3.1,3.3 -5.8,6.9q-2.7,3.6 -4.3,6.4l0.9,0.6l11.6,0q1.3,1.6 2.1,5.6q1.7,6.2 2.9,13.8q1.1,7.7 1.4,15.1l-39.2,0zm16.9,-36.6q2,-4.1 4.8,-7.7q2.9,-3.6 5.9,-6.6l-8.7,0l-0.9,5.7q-0.5,3.7 -1.1,8.6zm2.1,4q-1.1,0.7 -1.9,3q-0.9,2.2 -1.4,4.9q-0.5,2.6 -0.8,4.3q-0.8,4 -1.3,8.2q-0.6,4.1 -1,8.5l13.6,0q-0.3,-7.4 -1.5,-14.2q-1.1,-6.7 -3.5,-11.7q-0.5,-1.4 -1.3,-2.2l-0.9,-0.8z" id="path3858"/>
  <path class="s0" d="m982.08,391.17q0,0.6 -0.1,2.7q-0.2,2.2 -0.3,4.2q-0.1,2 -0.2,2q-2,1.7 -4.2,2.8q-2.1,1.1 -4.6,2.1q0.3,2 0.6,4.3q0.4,2.2 0.8,3.8q2.7,-0.5 5.6,-2q0.5,-0.1 0.5,0.4l0,1.9q0,1.6 -0.4,4.1q-0.3,2.5 -0.6,3.4q-2.4,2 -5.7,3.4q-3.3,1.3 -6.5,2.7q-0.8,0.3 -0.9,0.3q-1.3,0 -2,-1.9q-0.6,-1.8 -0.9,-3q-1,-5.1 -1.9,-11.5q-1,-6.4 -1,-13.9q0.3,-8 2.7,-12.4q2.3,-4.5 7.3,-8.2q2.4,-1.6 6.1,-3.3q3.7,-1.7 6.8,-2.2q0.4,1.6 0.4,3.6q0,2 -0.3,3.8q-0.2,1.8 -0.6,3.8q-3.2,0.9 -5.7,2.2q-2.4,1.2 -4.7,2.6q-0.2,0.9 -0.3,2.4q-0.2,1.6 -0.2,3l0,1.6q0,0 0.2,1.9q2.5,-1 5,-2.2q2.5,-1.2 4.5,-2.7q0.6,-0.3 0.6,0.4l0,-0.1z" id="path3860"/>
  <path class="s0" d="m887.08,428.47q0,-13.8 1,-28.1q1.1,-14.4 2.7,-26.5l36.9,0q0.6,0 0.6,0.7q0,0.5 -0.2,0.8q-3.5,3.5 -7.5,8.2q-3.9,4.7 -6,9q-0.1,0.4 -0.9,0.4q-0.7,0 -0.7,-0.4q-0.2,-0.5 -0.1,-1q0.1,-0.6 0.1,-1.2q0,-1.5 -0.1,-3q-0.1,-1.4 -0.1,-2.9q0,-2.2 -0.3,-4.1q-0.3,-1.9 -1.5,-2.8l-8.3,0q-1,8.5 -1.7,18.6q-0.7,10.1 -1,19.4q-0.4,7.2 -0.4,12.9q-3.4,0.4 -6.4,0.4q-2.9,0 -6.1,-0.4z" id="path3864"/>
  <path class="s0" d="m950.08,393.17q0,0.6 -0.1,2.7q-0.2,2.2 -0.3,4.2q-0.1,2 -0.2,2q-2,1.7 -4.2,2.8q-2.1,1.1 -4.6,2.1q0.3,2 0.6,4.3q0.4,2.2 0.8,3.8q2.7,-0.5 5.6,-2q0.5,-0.1 0.5,0.4l0,1.9q0,1.6 -0.4,4.1q-0.3,2.5 -0.6,3.4q-2.4,2 -5.7,3.4q-3.3,1.3 -6.5,2.7q-0.8,0.3 -0.9,0.3q-1.3,0 -2,-1.9q-0.6,-1.8 -0.9,-3q-1,-5.1 -1.9,-11.5q-1,-6.4 -1,-13.9q0.3,-8 2.7,-12.4q2.3,-4.5 7.3,-8.2q2.4,-1.6 6.1,-3.3q3.7,-1.7 6.8,-2.2q0.4,1.6 0.4,3.6q0,2 -0.3,3.8q-0.2,1.8 -0.6,3.8q-3.2,0.9 -5.7,2.2q-2.4,1.2 -4.7,2.6q-0.2,0.9 -0.3,2.4q-0.2,1.6 -0.2,3l0,1.6q0,0 0.2,1.9q2.5,-1 5,-2.2q2.5,-1.2 4.5,-2.7q0.6,-0.3 0.6,0.4l0,-0.1z" id="path3866"/>
  <path class="s0" d="m668.22,233.46q0,0.6 -0.1,2.7q-0.2,2.2 -0.3,4.2q-0.1,2 -0.2,2q-2,1.7 -4.2,2.8q-2.1,1.1 -4.6,2.1q0.3,2 0.6,4.3q0.4,2.2 0.8,3.8q2.7,-0.5 5.6,-2q0.5,-0.1 0.5,0.4l0,1.9q0,1.6 -0.4,4.1q-0.3,2.5 -0.6,3.4q-2.4,2 -5.7,3.4q-3.3,1.3 -6.5,2.7q-0.8,0.2 -0.9,0.3q-1.3,0 -2,-1.9q-0.6,-1.8 -0.9,-3q-1,-5.1 -1.9,-11.5q-1,-6.4 -1,-13.9q0.3,-8 2.7,-12.4q2.3,-4.5 7.3,-8.2q2.4,-1.7 6.1,-3.3q3.7,-1.7 6.8,-2.2q0.4,1.6 0.4,3.6q0,2 -0.3,3.8q-0.2,1.8 -0.6,3.8q-3.2,0.9 -5.7,2.2q-2.4,1.2 -4.7,2.6q-0.2,0.9 -0.3,2.4q-0.2,1.6 -0.2,3l0,1.6q0,0 0.2,1.9q2.5,-1 5,-2.2q2.5,-1.2 4.5,-2.7q0.6,-0.3 0.6,0.4l0,-0.1z" id="path3868"/>
  <path class="s0" d="m349.02,217.73q0,11.4 -0.9,23.3q-0.8,11.8 -1.7,22l15.5,0q0.9,-2.8 1.3,-6.6q0.4,-3.8 0.8,-7.6q0.9,-8.6 1.6,-18q0.7,-9.5 0.7,-18.7q1.7,-0.1 3.4,-0.3q1.7,-0.2 3.4,-0.2q1.7,0 3.3,0.2q1.6,0.2 3.2,0.3q0,10.4 -1.1,21.4q-1.2,11 -2.5,20.6q-0.5,3.6 -1,6.7q-0.6,3.2 -1.1,5.9l-41,0q0,-0.2 -0.1,-0.3q-0.2,-0.1 -0.2,-0.3q1.5,-7.9 2.4,-16.8q0.9,-8.8 0.9,-18.6q0,-2.9 0.1,-5.4q0,-2.6 0,-5.3q0,-1.8 0,-3.7q-0.1,-2 -0.2,-4.2q1.3,-0.3 3,-0.4q1.6,-0.2 3.3,-0.2q1.8,0 3.5,0.2q1.7,0.1 3.3,0.4q0,1.4 0.1,2.7q0,1.4 0,2.9z" id="path3870"/>
  <path class="s0" d="m405.72,251.53q0,3.1 0.1,7.4q0.1,4.3 0.4,7.2q-1.5,0.3 -3,0.4q-1.5,0.1 -3,0.1l-0.8,0q-1.6,0 -3,-0.2q-1.5,-0.2 -2.7,-0.3q-0.3,-2.2 -0.3,-4.9q-0.1,-2.6 -0.1,-5.3l0,-1l0,-0.9q0,-8.9 0.8,-17.4q0.8,-8.5 2.1,-16q0.3,-2.4 0.7,-4.2q0.4,-1.9 0.8,-3.5q2.8,-1 6,-1.7q3.2,-0.7 7.1,-0.7q-1.6,6.2 -2.8,13.8q-1.1,7.6 -1.7,14.9q-0.4,3.2 -0.5,6.2q-0.1,3.1 -0.1,6.1zm42.7,-41q0.4,0 0.4,0.5q0,0.2 -0.1,0.4l-6.2,7.6q-1.2,1.6 -2.4,2.9q-1.2,1.3 -2.3,2.3q-0.4,0.4 -1.3,-0.6q-0.8,-1 -1.2,-1.2q-1.3,-1.2 -2.6,-2.2q-1.4,-1.1 -2.9,-1.8q-3.5,2.7 -6.4,7q-2.9,4.2 -4.5,8.7q1.3,0 2.4,-0.1q1.1,0 2.4,0q1.2,0 2.2,0q0.9,0.1 1.4,0.2q3.4,4.5 5.8,10.7q2.5,6.2 3.8,12.6q0.6,2.4 1,4.5q0.4,2.1 0.4,4.1q-3.1,0.4 -6.5,0.4q-3.3,0 -6.6,-0.4q-0.9,-7.1 -2.8,-13.8q-2,-6.7 -5.4,-12.4l-1.3,-2.3q-0.5,-1 -1,-1.7q-0.4,-0.7 0,-1.7q1.3,-3.7 3,-6.5q1.6,-2.7 3.6,-5.5q3.9,-5.3 8.7,-8.7q1.4,-0.6 3.7,-1.1q2.3,-0.4 4.3,-0.7q2.4,-0.3 5.3,-0.8q2.9,-0.4 5.1,-0.4z" id="path3872"/>
  <path class="s0" d="m458.22,268.13q0,-13.8 1,-28.1q1.1,-14.4 2.7,-26.5l36.9,0q0.6,0 0.6,0.7q0,0.5 -0.2,0.8q-3.5,3.5 -7.5,8.2q-3.9,4.7 -6,9q-0.2,0.4 -0.9,0.4q-0.8,0 -0.8,-0.4q-0.1,-0.5 0,-1q0,-0.6 0,-1.2q0,-1.5 0,-3q-0.1,-1.4 -0.1,-2.9q0,-2.2 -0.3,-4.1q-0.3,-1.9 -1.6,-2.8l-8.2,0q-1,8.5 -1.7,18.6q-0.7,10.1 -1.1,19.4q-0.3,7.2 -0.3,12.9q-3.4,0.4 -6.4,0.4q-2.9,0 -6.1,-0.4z" id="path3874"/>
  <path class="s0" d="m126.09,378.91l0,1q0,5.9 0.3,13.3q0.2,7.4 0.7,15.2q0.5,7.8 1.1,14.9q0.6,7.1 1.5,12.5q-2.7,0.4 -6.2,0.4q-3.5,0 -6.4,-0.4q-0.2,-2.7 -0.6,-5.4q-0.3,-2.7 -0.5,-5.3q-0.3,-2.9 -0.5,-5.9q-0.1,-2.9 -0.4,-6l-3.5,4.9q-1.9,2.6 -3.2,5.3q-1.4,2.8 -2.3,6.4q-2.5,0.6 -5.3,1.9q-2.8,1.2 -4.7,2.6q-1.1,0 -2.1,-0.5q-1,-0.5 -1,-1.7q0,-3.3 1.4,-6.6q1.5,-3.3 3,-6.3q2.3,-4.9 5.5,-9.5q3.2,-4.5 6.1,-9.5q3,-5 4.5,-11.1q-0.1,-2 -0.3,-3.3q-0.1,-1.3 -0.3,-5q2.3,-0.6 6.3,-1.2q3.9,-0.7 6.9,-0.7zm-11.5,29.4q-0.1,-0.9 -0.2,-2.9q0,-2.1 -0.2,-4.2q-0.1,-2.1 -0.2,-3.1q-2,4.5 -4.6,8.8q-2.5,4.3 -4.7,8.7q-0.8,1.7 -0.8,2.6q0.3,1 1.3,1q0.8,0 2.2,-1q1.5,-1.5 3.5,-4.7q2.1,-3.2 3.7,-5.2z" id="path3876" transform="matrix(1 0 0 1 0 0)"/>
  <path class="s0" d="m646.27,429.1q0,-6.1 0.6,-13.2q0.6,-7.1 1.6,-14.4q0.9,-7.3 2.1,-14q1.2,-6.7 2.2,-11.9q2.7,-0.8 6.9,-1.3q4.2,-0.6 7.3,-0.8l0.1,0.9q-1.6,3.3 -2.6,7.1q-1.1,3.7 -1.7,7q-0.7,3.6 -1.3,8.6q-0.6,5 -1,10.3q-0.5,5.2 -0.5,9.6q0,5.9 0.4,12.1l-1.3,0.1q0,0 -2.9,0.1q-2.9,0.1 -2.8,0.1q-2.4,0 -4.8,-0.2l-2.3,-0.1z" id="path3878"/>
  <path class="s0" d="m391.84,373.4q-3.1,4.2 -4,10.5q-0.9,6.4 -0.9,13.5l0,4.5q0,4 0.3,9q0.4,5.1 1,9.8q0.7,4.7 1.3,7.8q-1.6,0.2 -3.4,0.4q-1.7,0.1 -3.6,0.1q-0.2,0.1 -0.8,0.1q-1.6,0 -3.1,-0.2q-1.5,-0.2 -2.9,-0.4q-0.6,-7 -1,-13.9q-0.3,-7 -0.3,-14.6l0,-3.8l-15.3,-5.5q-1.2,9.2 -1.7,18.8q-0.5,9.6 -0.5,19q-1.8,0.2 -3.4,0.4q-1.6,0.1 -3,0.1q-1.4,0 -3,-0.1q-1.6,-0.2 -3.3,-0.4l0,-6.8q0,-6 0.5,-12.9q0.5,-6.9 1.4,-13.7q0.8,-6.8 1.5,-12.2q0.4,-2.1 0.8,-4q0.3,-1.9 0.8,-3.5q3.7,-1.1 7,-1.8q3.3,-0.7 6.4,-0.7l0.6,0.5q-1.1,1.1 -1.6,2.4q-0.5,1.3 -0.9,3.9q-0.2,1.9 -0.5,3.7q-0.3,1.9 -0.6,3.6l14.8,5.4q0.6,-9.2 1.8,-16.8q2.9,-1.3 7.1,-2q4.2,-0.7 8.1,-0.7l0.4,0.5z" id="path3880"/>
  <path class="s0" d="m423.44,390.2q0,0.6 -0.1,2.7q-0.2,2.2 -0.3,4.2q-0.1,2 -0.2,2q-2,1.7 -4.2,2.8q-2.1,1.1 -4.6,2.1q0.3,2 0.6,4.3q0.4,2.2 0.8,3.8q2.7,-0.5 5.6,-2q0.5,-0.1 0.5,0.4l0,1.9q0,1.6 -0.4,4.1q-0.3,2.5 -0.6,3.4q-2.4,2 -5.7,3.4q-3.3,1.3 -6.5,2.7q-0.8,0.3 -0.9,0.3q-1.3,0 -2,-1.9q-0.6,-1.8 -0.9,-3q-1,-5.1 -1.9,-11.5q-1,-6.4 -1,-13.9q0.3,-8 2.7,-12.4q2.3,-4.5 7.3,-8.2q2.4,-1.7 6.1,-3.3q3.7,-1.7 6.8,-2.2q0.4,1.6 0.4,3.6q0,2 -0.3,3.8q-0.2,1.8 -0.6,3.8q-3.2,0.9 -5.7,2.2q-2.4,1.2 -4.7,2.6q-0.2,0.9 -0.3,2.4q-0.2,1.6 -0.2,3l0,1.6q0,0 0.2,1.9q2.5,-1 5,-2.2q2.5,-1.2 4.5,-2.7q0.6,-0.3 0.6,0.4l0,-0.1z" id="path3882"/>
  <path class="s1" d="m562.52,194.13l0,1.2l-12.9,0l-6.8,-15.5l0,-1.2l12.9,0l6.8,15.5zm21.8,0l0,1.2l-12.8,0l-6.8,-15.6l0,-1.1l12.8,0l6.8,15.5zm-34.4,75.6q0,-6.3 0.6,-13.5q0.7,-7.3 1.6,-14.7q1,-7.6 2.1,-14.4q1.3,-7 2.4,-12.4q2.8,-0.7 7,-1.2q4.4,-0.7 7.6,-0.9l0.1,0.9q-1.6,3.4 -2.8,7.3q-1,3.8 -1.7,7.2q-0.6,3.7 -1.3,8.8q-0.6,5.2 -1.1,10.6q-0.4,5.4 -0.4,9.9q0,6 0.4,12.4q0,0 -1.3,0.1q-1.3,0 -3.1,0.2q-1.6,0 -2.8,0q-2.4,0 -4.9,-0.2q-2.4,-0.1 -2.4,-0.1z" id="ї"/>
  <path class="s0" d="m672.71,428.88q0,-9 0.6,-19.47q0.6,-10.47 1.6,-21.24q0.9,-10.77 2.1,-20.65q1.2,-9.88 2.2,-17.55q2.7,-1.18 6.9,-1.92q4.2,-0.88 7.3,-1.18l0.1,1.33q-1.6,4.87 -2.6,10.47q-1.1,5.46 -1.7,10.32q-0.7,5.31 -1.3,12.68q-0.6,7.37 -1,15.19q-0.5,7.67 -0.5,14.16q0,8.7 0.4,17.84l-1.3,0.15q0,0 -2.9,0.15q-2.9,0.15 -2.8,0.15q-2.4,0 -4.8,-0.29l-2.3,-0.15l0,0.01z" id="svg_3" transform="rotate(1.0711 683.11 388.095)"/>
  <path class="s0" d="m700.17,428.81q0,-11.97 0.6,-25.91q0.6,-13.94 1.6,-28.27q0.9,-14.33 2.1,-27.48q1.2,-13.15 2.2,-23.36q2.7,-1.57 6.9,-2.55q4.2,-1.18 7.3,-1.57l0.1,1.77q-1.6,6.48 -2.6,13.94q-1.1,7.26 -1.7,13.74q-0.7,7.07 -1.3,16.88q-0.6,9.82 -1,20.22q-0.5,10.21 -0.5,18.85q0,11.58 0.4,23.75l-1.3,0.2q0,0 -2.9,0.2q-2.9,0.2 -2.8,0.2q-2.4,0 -4.8,-0.39l-2.3,-0.2l0,-0.02z" id="svg_4" transform="rotate(0.811752 710.57 374.55)"/>
  <path d="m866.3,430.3t-1.5,-0.57q-0.86,-0.47 -2.46,-1.93t-2.25,-2.49q-0.32,-0.66 -0.64,-1.22t-0.53,-1.41l-4.39,2.91q-1.18,0.94 -2.41,1.88t-1.87,2.35q-0.64,0 -1.44,-0.47t-1.02,-1.03q0.75,-1.41 2.08,-2.68t2.73,-2.11l13.91,-9.5q1.5,0.38 2.57,1.79q0.96,1.03 1.87,2.16t1.87,2.16q0.85,0.94 1.07,1.22t1.07,0.75q0.86,-0.56 1.76,-1.13t1.77,-1.32l0.99,1.8l-13.19,8.83l0.01,0.01z" id="svg_2" transform="rotate(4.69171 860.94 423.798) matrix(1 0 0 1 -2.69226 1.63414)"/>
  <path d="m846.2,465.52q0,-8.86 -0.76,-16.34t-0.76,-16.22q0,-12.81 1.51,-24.36t6.59,-19.93q2.75,-4.55 6.73,-8.74t9.61,-6.22q0.82,-0.24 1.65,-0.24q0.96,0 1.1,0.36q2.61,3.47 3.5,7.54t0.89,9.46c-2.9,4.05 -9.71,8.75 -9.76,8.63c-0.06,-0.12 1.85,-6.4 -0.79,-7.04c-2.65,-0.64 -4.78,2.46 -6.46,7.22c-1.68,4.75 -2.69,7.98 -3.16,16.02l-0.14,11.8l0,4.91q0,3.11 0.14,6.34t0.14,6.34q0,10.18 -0.62,19.93t-3.36,17.42q-1.65,4.43 -5.76,6.82q-0.27,0.24 -0.96,0.24q-0.97,0 -1.72,-0.72t-0.62,-1.32l1.51,-4.43q1.1,-4.07 1.3,-8.32t0.21,-9.16l0,0l0,0.01z" id="svg_1" transform="matrix(1 0 0 1 0 0)"/>
 </g>
</svg>