<svg width="42" height="36" fill="none" xmlns="http://www.w3.org/2000/svg"><path fill-rule="evenodd" clip-rule="evenodd" d="M21.7885 8.7896c2.4186.0116 4.7528.9613 6.4988 2.6351 1.7881 1.7141 2.8185 4.0126 2.9086 6.4879.088 2.4173-.7559 4.7918-2.3566 6.6052-1.7555 1.9889-4.1975 3.1312-6.835 3.2069a9.4172 9.4172 0 0 1-.2709.0039c-1.4211 0-2.8291-.3205-4.1043-.9341l-4.9568 1.1025a.0728.0728 0 0 1-.086-.0812l.8373-5.012c-.7146-1.3056-1.1135-2.7768-1.1565-4.2731-.0724-2.5285.844-4.9337 2.5805-6.7728 1.8005-1.9068 4.2593-2.9683 6.894-2.9683h.0469Zm-.0527 1.643c-.0757 0-.1513.0011-.2274.0033-4.3138.1237-7.7226 3.7339-7.5988 8.0477.0378 1.3172.4088 2.6101 1.0731 3.739l.1442.2447-.6204 3.401 3.3656-.7944.2541.1323c1.109.577 2.3515.8794 3.607.8794.0746 0 .1493-.0011.2239-.0033 4.3138-.1237 7.7226-3.7338 7.5989-8.0475-.1216-4.2377-3.6078-7.6022-7.8202-7.6022Zm-3.2738 3.2521c.1583.0048.3168.0094.4551.0196.1692.0121.3563.0258.5222.4273.1968.4767.6224 1.667.6782 1.7877.0557.1208.0911.2608.007.4172-.0841.1562-.1268.2541-.2496.3892-.123.1353-.2593.3023-.3692.4056-.1229.1149-.2506.2399-.1192.4821.1313.2423.5842 1.0353 1.2712 1.6874.883.838 1.5911 1.1145 1.8724 1.2457.1014.0474.1858.0699.2595.0699.1011 0 .1821-.0424.2593-.1207.148-.15.5933-.6696.7808-.9087.0981-.1251.1869-.1694.2834-.1694.0772 0 .1593.0284.255.0666.2154.086 1.3659.6972 1.5999.8235.234.1261.3905.1906.4469.2914.0564.1013.0416.5772-.1734 1.1264-.2151.5493-1.2016 1.0551-1.6385 1.0813-.1279.0076-.2537.0255-.4176.0255-.3958 0-1.0132-.1043-2.4154-.7081-2.3859-1.0274-3.8348-3.5521-3.9488-3.7143-.1137-.1624-.9306-1.3193-.8946-2.4894.0359-1.17.6675-1.7265.8927-1.9577.2158-.2218.4631-.2784.6228-.2784l.0199.0003Z" fill="#103928"/></svg>